<?xml version="1.0" encoding="UTF-8" standalone="no"?>
<svg
   xmlns:dc="http://purl.org/dc/elements/1.1/"
   xmlns:cc="http://creativecommons.org/ns#"
   xmlns:rdf="http://www.w3.org/1999/02/22-rdf-syntax-ns#"
   xmlns:svg="http://www.w3.org/2000/svg"
   xmlns="http://www.w3.org/2000/svg"
   xmlns:sodipodi="http://sodipodi.sourceforge.net/DTD/sodipodi-0.dtd"
   xmlns:inkscape="http://www.inkscape.org/namespaces/inkscape"
   inkscape:version="1.0 (4035a4fb49, 2020-05-01)"
   sodipodi:docname="1.3.1.svg"
   id="svg20049"
   version="1.2"
   viewBox="0 0 146.56772 116.27567"
   height="116.27567pt"
   width="146.56772pt">
  <metadata
     id="metadata20053">
    <rdf:RDF>
      <cc:Work
         rdf:about="">
        <dc:format>image/svg+xml</dc:format>
        <dc:type
           rdf:resource="http://purl.org/dc/dcmitype/StillImage" />
        <dc:title></dc:title>
      </cc:Work>
    </rdf:RDF>
  </metadata>
  <sodipodi:namedview
     inkscape:current-layer="svg20049"
     inkscape:window-maximized="1"
     inkscape:window-y="13"
     inkscape:window-x="1912"
     inkscape:cy="135.70775"
     inkscape:cx="253.00564"
     inkscape:zoom="1.0732323"
     showgrid="false"
     id="namedview20051"
     inkscape:window-height="987"
     inkscape:window-width="1680"
     inkscape:pageshadow="2"
     inkscape:pageopacity="0"
     guidetolerance="10"
     gridtolerance="10"
     objecttolerance="10"
     borderopacity="1"
     bordercolor="#666666"
     pagecolor="#ffffff" />
  <defs
     id="defs18770">
    <clipPath
       id="clip1">
      <path
         id="path17828"
         d="m 66,75.183594 h 1.996094 v 1.765625 H 66 Z m 0,0" />
    </clipPath>
    <clipPath
       id="clip2">
      <path
         id="path17831"
         d="M 63.484375,54.011719 H 66 V 114 h -2.515625 z m 0,0" />
    </clipPath>
    <clipPath
       id="clip3">
      <path
         id="path17834"
         d="m 72.496094,129.59766 h 3.199219 v 1.82031 h -3.199219 z m 0,0" />
    </clipPath>
    <clipPath
       id="clip4">
      <path
         id="path17837"
         d="m 83,128.48047 h 94 v 2.9414 H 83 Z m 0,0" />
    </clipPath>
    <clipPath
       id="clip5">
      <path
         id="path17840"
         d="m 178.05469,133 h 1.64062 v 1.60937 h -1.64062 z m 0,0" />
    </clipPath>
    <clipPath
       id="clip6">
      <path
         id="path17843"
         d="m 82,140.55078 h 5.882813 v 9.10547 H 82 Z m 0,0" />
    </clipPath>
    <clipPath
       id="clip7">
      <path
         id="path17846"
         d="M 106.07422,141.51562 H 108 v 8.01563 h -1.92578 z m 0,0" />
    </clipPath>
    <clipPath
       id="clip8">
      <path
         id="path17849"
         d="M 127.55859,141 H 134 v 9 h -6.44141 z m 0,0" />
    </clipPath>
    <clipPath
       id="clip9">
      <path
         id="path17852"
         d="M 146.19141,141 H 152 v 9.89453 h -5.80859 z m 0,0" />
    </clipPath>
    <clipPath
       id="clip10">
      <path
         id="path17855"
         d="M 92.03125,155.08203 H 100 V 157 h -7.96875 z m 0,0" />
    </clipPath>
    <clipPath
       id="clip11">
      <path
         id="path17858"
         d="m 99,161 h 1.60547 v 5.64844 H 99 Z m 0,0" />
    </clipPath>
    <clipPath
       id="clip12">
      <path
         id="path17861"
         d="m 100.11719,158.33594 h 1.59765 v 2.63281 h -1.59765 z m 0,0" />
    </clipPath>
    <clipPath
       id="clip13">
      <path
         id="path17864"
         d="m 102,162 h 6.47266 v 5.67578 H 102 Z m 0,0" />
    </clipPath>
    <clipPath
       id="clip14">
      <path
         id="path17867"
         d="m 109.24609,162.26172 h 5.31641 v 6.67578 h -5.31641 z m 0,0" />
    </clipPath>
    <clipPath
       id="clip15">
      <path
         id="path17870"
         d="m 117,157.54297 h 3.39063 v 11.24609 H 117 Z m 0,0" />
    </clipPath>
    <clipPath
       id="clip16">
      <path
         id="path17873"
         d="M 122.10938,160.06641 H 126 V 169 h -3.89062 z m 0,0" />
    </clipPath>
    <clipPath
       id="clip17">
      <path
         id="path17876"
         d="m 127.00781,158.37109 h 3.69531 V 171 h -3.69531 z m 0,0" />
    </clipPath>
    <clipPath
       id="clip18">
      <path
         id="path17879"
         d="M 33.101563,114.17578 H 44 V 116 H 33.101563 Z m 0,0" />
    </clipPath>
    <clipPath
       id="clip19">
      <path
         id="path17882"
         d="m 32.324219,110.60156 h 11.179687 v 5.05469 H 32.324219 Z m 0,0" />
    </clipPath>
    <clipPath
       id="clip20">
      <path
         id="path17885"
         d="M 36.019531,105 H 43 v 4.97656 h -6.980469 z m 0,0" />
    </clipPath>
    <clipPath
       id="clip21">
      <path
         id="path17888"
         d="M 37.003906,101.21875 H 44 v 3.67188 h -6.996094 z m 0,0" />
    </clipPath>
    <clipPath
       id="clip22">
      <path
         id="path17891"
         d="m 37.445313,97.039063 h 5.078125 V 100 h -5.078125 z m 0,0" />
    </clipPath>
    <clipPath
       id="clip23">
      <path
         id="path17894"
         d="m 37,92.507813 h 5 v 4.46875 h -5 z m 0,0" />
    </clipPath>
    <clipPath
       id="clip24">
      <path
         id="path17897"
         d="m 37,88 h 5.9375 v 4.722656 H 37 Z m 0,0" />
    </clipPath>
    <clipPath
       id="clip25">
      <path
         id="path17900"
         d="m 37,84.507813 h 6.894531 V 88.40625 H 37 Z m 0,0" />
    </clipPath>
    <clipPath
       id="clip26">
      <path
         id="path17903"
         d="m 62.203125,111 h 2.527344 v 20.41406 h -2.527344 z m 0,0" />
    </clipPath>
    <clipPath
       id="clip27">
      <path
         id="path17906"
         d="m 63,130 h 26.445313 v 2.39062 H 63 Z m 0,0" />
    </clipPath>
    <clipPath
       id="clip28">
      <path
         id="path17909"
         d="m 51.414063,106.00391 h 6.394531 v 9.72656 h -6.394531 z m 0,0" />
    </clipPath>
    <clipPath
       id="clip29">
      <path
         id="path17912"
         d="m 51,63.28125 h 5.492188 V 73 H 51 Z m 0,0" />
    </clipPath>
    <clipPath
       id="clip30">
      <path
         id="path17915"
         d="M 82.476563,110.27734 H 85 v 2.69141 h -2.523437 z m 0,0" />
    </clipPath>
    <clipPath
       id="clip31">
      <path
         id="path17918"
         d="M 65.066406,67 H 69 v 2 h -3.933594 z m 0,0" />
    </clipPath>
    <clipPath
       id="clip32">
      <path
         id="path17921"
         d="M 79.136719,66.179688 H 85 v 2.464843 h -5.863281 z m 0,0" />
    </clipPath>
    <clipPath
       id="clip33">
      <path
         id="path17924"
         d="m 97,66 h 6.55078 v 1.765625 H 97 Z m 0,0" />
    </clipPath>
    <clipPath
       id="clip34">
      <path
         id="path17927"
         d="m 118.375,65 h 5.49609 v 1.523438 H 118.375 Z m 0,0" />
    </clipPath>
    <clipPath
       id="clip35">
      <path
         id="path17930"
         d="M 140.23828,65 H 145.5 v 2 h -5.26172 z m 0,0" />
    </clipPath>
    <clipPath
       id="clip36">
      <path
         id="path17933"
         d="m 148.56641,127.12891 h 2.07031 v 4.79687 h -2.07031 z m 0,0" />
    </clipPath>
    <clipPath
       id="clip37">
      <path
         id="path17936"
         d="M 149.1875,100.41406 H 151 v 5.13282 h -1.8125 z m 0,0" />
    </clipPath>
    <clipPath
       id="clip38">
      <path
         id="path17939"
         d="m 149.51562,87.351563 h 2.23829 V 91.625 h -2.23829 z m 0,0" />
    </clipPath>
    <clipPath
       id="clip39">
      <path
         id="path17942"
         d="M 149.44531,71 H 151 v 5.667969 h -1.55469 z m 0,0" />
    </clipPath>
    <clipPath
       id="clip40">
      <path
         id="path17945"
         d="m 149.60156,64 h 1.78906 v 3.804688 h -1.78906 z m 0,0" />
    </clipPath>
    <clipPath
       id="clip41">
      <path
         id="path17948"
         d="M 82.382813,62.507813 H 152.5 V 111.53516 H 82.382813 Z m 0,0" />
    </clipPath>
    <clipPath
       id="clip42">
      <path
         id="path17951"
         d="M 82.234375,114 H 84 v 5.62109 h -1.765625 z m 0,0" />
    </clipPath>
    <clipPath
       id="clip43">
      <path
         id="path17954"
         d="M 83.417969,123 H 85 v 5.67187 h -1.582031 z m 0,0" />
    </clipPath>
    <clipPath
       id="clip44">
      <path
         id="path17957"
         d="m 82.019531,124 h 1.691407 v 1.65625 h -1.691407 z m 0,0" />
    </clipPath>
    <clipPath
       id="clip45">
      <path
         id="path17960"
         d="M 65.425781,109.28125 H 71 v 1.69922 h -5.574219 z m 0,0" />
    </clipPath>
    <clipPath
       id="clip46">
      <path
         id="path17963"
         d="m 74.472656,109 h 6.421875 v 1.98438 h -6.421875 z m 0,0" />
    </clipPath>
    <clipPath
       id="clip47">
      <path
         id="path17966"
         d="m 83,181 h 1.980469 v 11 H 83 Z m 0,0" />
    </clipPath>
    <clipPath
       id="clip48">
      <path
         id="path17969"
         d="M 86.433594,188.52734 H 89 V 192 h -2.566406 z m 0,0" />
    </clipPath>
    <clipPath
       id="clip49">
      <path
         id="path17972"
         d="M 93.347656,181.22656 H 97.59375 V 192 h -4.246094 z m 0,0" />
    </clipPath>
    <clipPath
       id="clip50">
      <path
         id="path17975"
         d="m 99,188.53516 h 2.89063 V 192 H 99 Z m 0,0" />
    </clipPath>
    <clipPath
       id="clip51">
      <path
         id="path17978"
         d="M 106.14453,183 H 109 v 12.4375 h -2.85547 z m 0,0" />
    </clipPath>
    <clipPath
       id="clip52">
      <path
         id="path17981"
         d="m 259,52.523438 h 1.38281 V 64.816406 H 259 Z m 0,0" />
    </clipPath>
    <clipPath
       id="clip53">
      <path
         id="path17984"
         d="m 260,80.351563 h 1.83203 V 82 H 260 Z m 0,0" />
    </clipPath>
    <clipPath
       id="clip54">
      <path
         id="path17987"
         d="m 295.02344,80.40625 h 32.9414 v 2.511719 h -32.9414 z m 0,0" />
    </clipPath>
    <clipPath
       id="clip55">
      <path
         id="path17990"
         d="M 344.26953,81.265625 H 347 v 1.699219 h -2.73047 z m 0,0" />
    </clipPath>
    <clipPath
       id="clip56">
      <path
         id="path17993"
         d="m 259.46875,79.203125 h 2.29297 v 3.335938 h -2.29297 z m 0,0" />
    </clipPath>
    <clipPath
       id="clip57">
      <path
         id="path17996"
         d="m 258,93 h 1.97656 v 11 H 258 Z m 0,0" />
    </clipPath>
    <clipPath
       id="clip58">
      <path
         id="path17999"
         d="m 259,118.46875 h 1.60937 V 133 H 259 Z m 0,0" />
    </clipPath>
    <clipPath
       id="clip59">
      <path
         id="path18002"
         d="m 258,130.11719 h 94.66016 v 3.60937 H 258 Z m 0,0" />
    </clipPath>
    <clipPath
       id="clip60">
      <path
         id="path18005"
         d="M 254.41016,140.41797 H 256 V 150 h -1.58984 z m 0,0" />
    </clipPath>
    <clipPath
       id="clip61">
      <path
         id="path18008"
         d="M 257.37109,141.51172 H 262 v 8.42969 h -4.62891 z m 0,0" />
    </clipPath>
    <clipPath
       id="clip62">
      <path
         id="path18011"
         d="m 262.21875,138.61328 h 3.63672 v 5.08984 h -3.63672 z m 0,0" />
    </clipPath>
    <clipPath
       id="clip63">
      <path
         id="path18014"
         d="m 293,140 h 1.37891 v 8.5625 H 293 Z m 0,0" />
    </clipPath>
    <clipPath
       id="clip64">
      <path
         id="path18017"
         d="m 296.51953,139.16016 h 4.3125 v 8.72265 h -4.3125 z m 0,0" />
    </clipPath>
    <clipPath
       id="clip65">
      <path
         id="path18020"
         d="m 302.20703,137 h 1.72656 v 4.83203 h -1.72656 z m 0,0" />
    </clipPath>
    <clipPath
       id="clip66">
      <path
         id="path18023"
         d="M 326.05859,139 H 328 v 8 h -1.94141 z m 0,0" />
    </clipPath>
    <clipPath
       id="clip67">
      <path
         id="path18026"
         d="M 330.46484,139.53906 H 335 V 148 h -4.53516 z m 0,0" />
    </clipPath>
    <clipPath
       id="clip68">
      <path
         id="path18029"
         d="m 336.38281,137.59766 h 6 v 5.07031 h -6 z m 0,0" />
    </clipPath>
    <clipPath
       id="clip69">
      <path
         id="path18032"
         d="m 228.10937,130 h 10.42579 v 2 h -10.42579 z m 0,0" />
    </clipPath>
    <clipPath
       id="clip70">
      <path
         id="path18035"
         d="M 226.18359,126.02734 H 235 V 132 h -8.81641 z m 0,0" />
    </clipPath>
    <clipPath
       id="clip71">
      <path
         id="path18038"
         d="m 227,122.17578 h 11.87109 v 4.75781 H 227 Z m 0,0" />
    </clipPath>
    <clipPath
       id="clip72">
      <path
         id="path18041"
         d="M 232.41406,117 H 238 v 4.85547 h -5.58594 z m 0,0" />
    </clipPath>
    <clipPath
       id="clip73">
      <path
         id="path18044"
         d="m 231,114.40234 h 7.96875 v 3.58985 H 231 Z m 0,0" />
    </clipPath>
    <clipPath
       id="clip74">
      <path
         id="path18047"
         d="m 231.11719,110.03906 h 7.70703 V 114.5 h -7.70703 z m 0,0" />
    </clipPath>
    <clipPath
       id="clip75">
      <path
         id="path18050"
         d="m 227,103.53125 h 11.76562 V 107 H 227 Z m 0,0" />
    </clipPath>
    <clipPath
       id="clip76">
      <path
         id="path18053"
         d="M 226.5625,100 H 232 v 4 h -5.4375 z m 0,0" />
    </clipPath>
    <clipPath
       id="clip77">
      <path
         id="path18056"
         d="m 226,97 h 13 v 3.90625 h -13 z m 0,0" />
    </clipPath>
    <clipPath
       id="clip78">
      <path
         id="path18059"
         d="m 223.51562,50 h 8.16407 v 2.601563 h -8.16407 z m 0,0" />
    </clipPath>
    <clipPath
       id="clip79">
      <path
         id="path18062"
         d="m 233,49.527344 h 2.63672 V 52.375 H 233 Z m 0,0" />
    </clipPath>
    <clipPath
       id="clip80">
      <path
         id="path18065"
         d="m 224,45.152344 h 10 v 4.695312 h -10 z m 0,0" />
    </clipPath>
    <clipPath
       id="clip81">
      <path
         id="path18068"
         d="m 225.27344,42 h 10.53515 v 1.894531 h -10.53515 z m 0,0" />
    </clipPath>
    <clipPath
       id="clip82">
      <path
         id="path18071"
         d="m 226,39 h 10 v 4.773438 h -10 z m 0,0" />
    </clipPath>
    <clipPath
       id="clip83">
      <path
         id="path18074"
         d="m 223,34.507813 h 15.41016 V 38 H 223 Z m 0,0" />
    </clipPath>
    <clipPath
       id="clip84">
      <path
         id="path18077"
         d="m 297,79.101563 h 1.73047 v 3.410156 H 297 Z m 0,0" />
    </clipPath>
    <clipPath
       id="clip85">
      <path
         id="path18080"
         d="m 296.44531,89.066406 h 1.96094 V 93 h -1.96094 z m 0,0" />
    </clipPath>
    <clipPath
       id="clip86">
      <path
         id="path18083"
         d="m 297,97.550781 h 1.78516 v 2 H 297 Z m 0,0" />
    </clipPath>
    <clipPath
       id="clip87">
      <path
         id="path18086"
         d="m 296,121.17969 h 1.83594 V 127 H 296 Z m 0,0" />
    </clipPath>
    <clipPath
       id="clip88">
      <path
         id="path18089"
         d="m 296,130.47266 h 1.59375 V 133 H 296 Z m 0,0" />
    </clipPath>
    <clipPath
       id="clip89">
      <path
         id="path18092"
         d="m 257.42187,56.058594 h 5.07032 v 2.648437 h -5.07032 z m 0,0" />
    </clipPath>
    <clipPath
       id="clip90">
      <path
         id="path18095"
         d="m 331,87.457031 h 1.75391 V 94 H 331 Z m 0,0" />
    </clipPath>
    <clipPath
       id="clip91">
      <path
         id="path18098"
         d="m 329.57812,129.30078 h 1.87891 v 7.10547 h -1.87891 z m 0,0" />
    </clipPath>
    <clipPath
       id="clip92">
      <path
         id="path18101"
         d="m 269.375,156.60937 h 6.08984 v 2.34766 H 269.375 Z m 0,0" />
    </clipPath>
    <clipPath
       id="clip93">
      <path
         id="path18104"
         d="m 269.16016,157.16406 h 2.33593 v 11.42578 h -2.33593 z m 0,0" />
    </clipPath>
    <clipPath
       id="clip94">
      <path
         id="path18107"
         d="m 270.04687,162.25781 h 5.35938 V 164 h -5.35938 z m 0,0" />
    </clipPath>
    <clipPath
       id="clip95">
      <path
         id="path18110"
         d="m 276.57422,162.10937 h 4.0625 v 8.3086 h -4.0625 z m 0,0" />
    </clipPath>
    <clipPath
       id="clip96">
      <path
         id="path18113"
         d="m 279.59766,163 h 4.3789 v 7.60937 h -4.3789 z m 0,0" />
    </clipPath>
    <clipPath
       id="clip97">
      <path
         id="path18116"
         d="m 285,163.41406 h 6.57422 v 14.27735 H 285 Z m 0,0" />
    </clipPath>
    <clipPath
       id="clip98">
      <path
         id="path18119"
         d="m 290,164.07422 h 4.84766 v 7.48047 H 290 Z m 0,0" />
    </clipPath>
    <clipPath
       id="clip99">
      <path
         id="path18122"
         d="m 294,163.25781 h 3.88281 V 172 H 294 Z m 0,0" />
    </clipPath>
    <clipPath
       id="clip100">
      <path
         id="path18125"
         d="m 298,165 h 4.75 v 7 H 298 Z m 0,0" />
    </clipPath>
    <clipPath
       id="clip101">
      <path
         id="path18128"
         d="m 302.06641,165.42969 h 4.35156 V 172 h -4.35156 z m 0,0" />
    </clipPath>
    <clipPath
       id="clip102">
      <path
         id="path18131"
         d="m 306.01562,165.51953 h 5.3711 V 170 h -5.3711 z m 0,0" />
    </clipPath>
    <clipPath
       id="clip103">
      <path
         id="path18134"
         d="m 307,165.08984 h 6.55469 v 12.53125 H 307 Z m 0,0" />
    </clipPath>
    <clipPath
       id="clip104">
      <path
         id="path18137"
         d="M 322.07812,157 H 326 v 13.40234 h -3.92188 z m 0,0" />
    </clipPath>
    <clipPath
       id="clip105">
      <path
         id="path18140"
         d="m 327.60547,161 h 2.85156 v 8.95703 h -2.85156 z m 0,0" />
    </clipPath>
    <clipPath
       id="clip106">
      <path
         id="path18143"
         d="m 331,163.54687 h 6 v 6.00782 h -6 z m 0,0" />
    </clipPath>
    <clipPath
       id="clip107">
      <path
         id="path18146"
         d="M 335.23437,159 H 341 v 11.50391 h -5.76563 z m 0,0" />
    </clipPath>
    <clipPath
       id="clip108">
      <path
         id="path18149"
         d="m 341,157.51562 h 8 v 13.8711 h -8 z m 0,0" />
    </clipPath>
    <clipPath
       id="clip109">
      <path
         id="path18152"
         d="m 347.125,163.49609 h 4.73828 v 7.97266 H 347.125 Z m 0,0" />
    </clipPath>
    <clipPath
       id="clip110">
      <path
         id="path18155"
         d="m 354,156 h 2.42969 v 14.67578 H 354 Z m 0,0" />
    </clipPath>
    <clipPath
       id="clip111">
      <path
         id="path18158"
         d="m 238.60937,58 h 4.125 v 1.8125 h -4.125 z m 0,0" />
    </clipPath>
    <clipPath
       id="clip112">
      <path
         id="path18161"
         d="m 242.44922,54.066406 h 4.22265 v 8.335938 h -4.22265 z m 0,0" />
    </clipPath>
    <clipPath
       id="clip113">
      <path
         id="path18164"
         d="m 247.46484,55.535156 h 3.34375 V 61 h -3.34375 z m 0,0" />
    </clipPath>
    <clipPath
       id="clip114">
      <path
         id="path18167"
         d="m 238.17187,80 h 3.76563 v 2 h -3.76563 z m 0,0" />
    </clipPath>
    <clipPath
       id="clip115">
      <path
         id="path18170"
         d="m 243.14844,76.371094 h 5.46875 V 81 h -5.46875 z m 0,0" />
    </clipPath>
    <clipPath
       id="clip116">
      <path
         id="path18173"
         d="m 246,77 h 1.84766 v 7.960938 H 246 Z m 0,0" />
    </clipPath>
    <clipPath
       id="clip117">
      <path
         id="path18176"
         d="m 249,77.53125 h 4 v 7.335938 h -4 z m 0,0" />
    </clipPath>
    <clipPath
       id="clip118">
      <path
         id="path18179"
         d="m 296,61.234375 h 1.57422 v 3.417969 H 296 Z m 0,0" />
    </clipPath>
    <clipPath
       id="clip119">
      <path
         id="path18182"
         d="m 297,76.398438 h 1.60937 v 4.421875 H 297 Z m 0,0" />
    </clipPath>
    <clipPath
       id="clip120">
      <path
         id="path18185"
         d="m 258,64.480469 h 1.81641 V 69 H 258 Z m 0,0" />
    </clipPath>
    <clipPath
       id="clip121">
      <path
         id="path18188"
         d="m 259,63.226563 h 2.97266 v 21.75 H 259 Z m 0,0" />
    </clipPath>
    <clipPath
       id="clip122">
      <path
         id="path18191"
         d="m 259,82 h 16 v 2.453125 h -16 z m 0,0" />
    </clipPath>
    <clipPath
       id="clip123">
      <path
         id="path18194"
         d="m 272.09375,81.347656 h 4.66406 v 2.296875 h -4.66406 z m 0,0" />
    </clipPath>
    <clipPath
       id="clip124">
      <path
         id="path18197"
         d="m 274.49219,81.003906 h 25.32812 v 3.734375 h -25.32812 z m 0,0" />
    </clipPath>
    <clipPath
       id="clip125">
      <path
         id="path18200"
         d="M 296.60937,69.175781 H 298 V 73 h -1.39063 z m 0,0" />
    </clipPath>
    <clipPath
       id="clip126">
      <path
         id="path18203"
         d="m 325.35937,82.21875 h 4.1836 v 2.261719 h -4.1836 z m 0,0" />
    </clipPath>
    <clipPath
       id="clip127">
      <path
         id="path18206"
         d="m 325,81.265625 h 22 v 3.25 h -22 z m 0,0" />
    </clipPath>
    <clipPath
       id="clip128">
      <path
         id="path18209"
         d="m 297.27734,60 h 33.6836 v 22 h -33.6836 z m 0,0" />
    </clipPath>
    <clipPath
       id="clip129">
      <path
         id="path18212"
         d="m 328.49609,79.359375 h 4.88672 v 5.457031 h -4.88672 z m 0,0" />
    </clipPath>
    <clipPath
       id="clip130">
      <path
         id="path18215"
         d="m 257.09766,34.101563 h 1.89453 V 36 h -1.89453 z m 0,0" />
    </clipPath>
    <clipPath
       id="clip131">
      <path
         id="path18218"
         d="m 257.52344,34.039063 h 3.14453 v 27.699218 h -3.14453 z m 0,0" />
    </clipPath>
    <clipPath
       id="clip132">
      <path
         id="path18221"
         d="m 243.5,31 h 5.48828 v 7.820313 H 243.5 Z m 0,0" />
    </clipPath>
    <clipPath
       id="clip133">
      <path
         id="path18224"
         d="M 256.50391,32.214844 H 258 v 4.359375 h -1.49609 z m 0,0" />
    </clipPath>
    <clipPath
       id="clip134">
      <path
         id="path18227"
         d="m 257.20703,32.5625 h 75.77344 v 51.03125 h -75.77344 z m 0,0" />
    </clipPath>
    <clipPath
       id="clip135">
      <path
         id="path18230"
         d="m 295.31641,61.464844 h 2.4375 v 5.027344 h -2.4375 z m 0,0" />
    </clipPath>
    <clipPath
       id="clip136">
      <path
         id="path18233"
         d="m 259,102 h 1 v 1.41797 h -1 z m 0,0" />
    </clipPath>
    <clipPath
       id="clip137">
      <path
         id="path18236"
         d="M 258.53125,102 H 260 v 1.67188 h -1.46875 z m 0,0" />
    </clipPath>
    <clipPath
       id="clip138">
      <path
         id="path18239"
         d="m 258.57812,102 h 2.05079 v 5.82813 h -2.05079 z m 0,0" />
    </clipPath>
    <clipPath
       id="clip139">
      <path
         id="path18242"
         d="m 260.53516,107.21484 h 32.19531 v 2.73829 h -32.19531 z m 0,0" />
    </clipPath>
    <clipPath
       id="clip140">
      <path
         id="path18245"
         d="m 291.36719,109.38672 h 7.57031 v 2.25781 h -7.57031 z m 0,0" />
    </clipPath>
    <clipPath
       id="clip141">
      <path
         id="path18248"
         d="m 290,107 h 57.48828 v 3.77344 H 290 Z m 0,0" />
    </clipPath>
    <clipPath
       id="clip142">
      <path
         id="path18251"
         d="M 238.35156,107.36328 H 242 v 2.47266 h -3.64844 z m 0,0" />
    </clipPath>
    <clipPath
       id="clip143">
      <path
         id="path18254"
         d="m 243,104.45313 h 4.53516 V 113 H 243 Z m 0,0" />
    </clipPath>
    <clipPath
       id="clip144">
      <path
         id="path18257"
         d="m 247.38672,104.58984 h 4.33203 V 112 h -4.33203 z m 0,0" />
    </clipPath>
    <clipPath
       id="clip145">
      <path
         id="path18260"
         d="M 258.36328,105.33594 H 260 V 107 h -1.63672 z m 0,0" />
    </clipPath>
    <clipPath
       id="clip146">
      <path
         id="path18263"
         d="m 259,105.05078 h 2 v 18.4336 h -2 z m 0,0" />
    </clipPath>
    <clipPath
       id="clip147">
      <path
         id="path18266"
         d="m 330,98.199219 h 1.44922 V 105 H 330 Z m 0,0" />
    </clipPath>
    <clipPath
       id="clip148">
      <path
         id="path18269"
         d="M 330.15625,107 H 332 v 5.82422 h -1.84375 z m 0,0" />
    </clipPath>
    <clipPath
       id="clip149">
      <path
         id="path18272"
         d="m 330,119 h 1.71875 v 6.53516 H 330 Z m 0,0" />
    </clipPath>
    <clipPath
       id="clip150">
      <path
         id="path18275"
         d="m 296,103 h 1.94141 v 5.63672 H 296 Z m 0,0" />
    </clipPath>
    <clipPath
       id="clip151">
      <path
         id="path18278"
         d="M 296.50391,113.29297 H 298 V 120 h -1.49609 z m 0,0" />
    </clipPath>
    <clipPath
       id="clip152">
      <path
         id="path18281"
         d="m 231,52 h 1.96875 v 1.808594 H 231 Z m 0,0" />
    </clipPath>
    <clipPath
       id="clip153">
      <path
         id="path18284"
         d="m 231,51.4375 h 1 v 1.492188 h -1 z m 0,0" />
    </clipPath>
    <clipPath
       id="clip154">
      <path
         id="path18287"
         d="m 230.30469,50 h 5.5664 v 2.871094 h -5.5664 z m 0,0" />
    </clipPath>
    <clipPath
       id="clip155">
      <path
         id="path18290"
         d="m 226,74 h 8.87109 v 6 H 226 Z m 0,0" />
    </clipPath>
    <clipPath
       id="clip156">
      <path
         id="path18293"
         d="M 230.54297,73 H 232 v 4.71875 h -1.45703 z m 0,0" />
    </clipPath>
    <clipPath
       id="clip157">
      <path
         id="path18296"
         d="m 230.27344,66.371094 h 5.32031 v 6.601562 h -5.32031 z m 0,0" />
    </clipPath>
    <clipPath
       id="clip158">
      <path
         id="path18299"
         d="M 230.43359,64.101563 H 235 V 66 h -4.56641 z m 0,0" />
    </clipPath>
    <clipPath
       id="clip159">
      <path
         id="path18302"
         d="m 228,63.339844 h 1.81641 v 2.289062 H 228 Z m 0,0" />
    </clipPath>
    <clipPath
       id="clip160">
      <path
         id="path18305"
         d="m 230,59.375 h 5.71484 V 63 H 230 Z m 0,0" />
    </clipPath>
    <clipPath
       id="clip161">
      <path
         id="path18308"
         d="m 261,194 h 2.89062 v 13 H 261 Z m 0,0" />
    </clipPath>
    <clipPath
       id="clip162">
      <path
         id="path18311"
         d="m 266.16797,202 h 3.73047 v 4 h -3.73047 z m 0,0" />
    </clipPath>
    <clipPath
       id="clip163">
      <path
         id="path18314"
         d="m 274,193 h 4.97656 v 13.80859 H 274 Z m 0,0" />
    </clipPath>
    <clipPath
       id="clip164">
      <path
         id="path18317"
         d="m 281.39062,204 h 3.08204 v 4 h -3.08204 z m 0,0" />
    </clipPath>
    <clipPath
       id="clip165">
      <path
         id="path18320"
         d="m 292,196 h 8.66016 v 11.53906 H 292 Z m 0,0" />
    </clipPath>
    <clipPath
       id="clip166">
      <path
         id="path18323"
         d="m 63,231.07812 h 3 V 331 h -3 z m 0,0" />
    </clipPath>
    <clipPath
       id="clip167">
      <path
         id="path18326"
         d="M 64.484375,329 H 178.46094 v 4.38672 H 64.484375 Z m 0,0" />
    </clipPath>
    <clipPath
       id="clip168">
      <path
         id="path18329"
         d="M 85.25,344.33984 H 92 v 10.57813 h -6.75 z m 0,0" />
    </clipPath>
    <clipPath
       id="clip169">
      <path
         id="path18332"
         d="m 85,349.33203 h 3 V 354 h -3 z m 0,0" />
    </clipPath>
    <clipPath
       id="clip170">
      <path
         id="path18335"
         d="M 112.14063,344.46094 H 114 V 355 h -1.85937 z m 0,0" />
    </clipPath>
    <clipPath
       id="clip171">
      <path
         id="path18338"
         d="m 139,344.44531 h 6.86719 V 355 H 139 Z m 0,0" />
    </clipPath>
    <clipPath
       id="clip172">
      <path
         id="path18341"
         d="m 168.16797,345 h 5.74219 v 10 h -5.74219 z m 0,0" />
    </clipPath>
    <clipPath
       id="clip173">
      <path
         id="path18344"
         d="m 49,302 h 1.898438 v 9.41406 H 49 Z m 0,0" />
    </clipPath>
    <clipPath
       id="clip174">
      <path
         id="path18347"
         d="m 62.433594,305.42969 h 4.027344 V 307 h -4.027344 z m 0,0" />
    </clipPath>
    <clipPath
       id="clip175">
      <path
         id="path18350"
         d="M 72.121094,305 H 77 v 1.85937 h -4.878906 z m 0,0" />
    </clipPath>
    <clipPath
       id="clip176">
      <path
         id="path18353"
         d="m 80,304.27344 h 4.53125 V 306 H 80 Z m 0,0" />
    </clipPath>
    <clipPath
       id="clip177">
      <path
         id="path18356"
         d="M 86.148438,306.62109 H 88 v 4.09766 h -1.851562 z m 0,0" />
    </clipPath>
    <clipPath
       id="clip178">
      <path
         id="path18359"
         d="M 87.21875,316 H 89 v 3.60937 h -1.78125 z m 0,0" />
    </clipPath>
    <clipPath
       id="clip179">
      <path
         id="path18362"
         d="m 87.578125,323.41797 h 1.875 v 6.95703 h -1.875 z m 0,0" />
    </clipPath>
    <clipPath
       id="clip180">
      <path
         id="path18365"
         d="m 87,230.14062 h 90.92578 v 76.64063 H 87 Z m 0,0" />
    </clipPath>
    <clipPath
       id="clip181">
      <path
         id="path18368"
         d="m 169,237.36719 h 1.64844 v 2.01953 H 169 Z m 0,0" />
    </clipPath>
    <clipPath
       id="clip182">
      <path
         id="path18371"
         d="m 169.00781,244 h 1.75391 v 4 h -1.75391 z m 0,0" />
    </clipPath>
    <clipPath
       id="clip183">
      <path
         id="path18374"
         d="M 168.62109,254.51172 H 170 V 261 h -1.37891 z m 0,0" />
    </clipPath>
    <clipPath
       id="clip184">
      <path
         id="path18377"
         d="M 169.46094,266.55078 H 171 v 6.88672 h -1.53906 z m 0,0" />
    </clipPath>
    <clipPath
       id="clip185">
      <path
         id="path18380"
         d="m 169,285 h 1.83594 v 7 H 169 Z m 0,0" />
    </clipPath>
    <clipPath
       id="clip186">
      <path
         id="path18383"
         d="M 169.21875,305 H 171 v 7.89062 h -1.78125 z m 0,0" />
    </clipPath>
    <clipPath
       id="clip187">
      <path
         id="path18386"
         d="m 170,324 h 1.71484 v 8 H 170 Z m 0,0" />
    </clipPath>
    <clipPath
       id="clip188">
      <path
         id="path18389"
         d="m 65,240 h 4.871094 v 2.87109 H 65 Z m 0,0" />
    </clipPath>
    <clipPath
       id="clip189">
      <path
         id="path18392"
         d="m 80.027344,240.13672 h 8.882812 V 242 h -8.882812 z m 0,0" />
    </clipPath>
    <clipPath
       id="clip190">
      <path
         id="path18395"
         d="m 105.22266,241 h 6.5664 v 2 h -6.5664 z m 0,0" />
    </clipPath>
    <clipPath
       id="clip191">
      <path
         id="path18398"
         d="m 129,240 h 8 v 1.72266 h -8 z m 0,0" />
    </clipPath>
    <clipPath
       id="clip192">
      <path
         id="path18401"
         d="M 28.277344,236.61719 H 34 v 11.08203 h -5.722656 z m 0,0" />
    </clipPath>
    <clipPath
       id="clip193">
      <path
         id="path18404"
         d="m 34.160156,241.44141 h 7.8125 V 247 h -7.8125 z m 0,0" />
    </clipPath>
    <clipPath
       id="clip194">
      <path
         id="path18407"
         d="M 41.160156,245.37891 H 44.71875 V 250 h -3.558594 z m 0,0" />
    </clipPath>
    <clipPath
       id="clip195">
      <path
         id="path18410"
         d="m 46,241.21875 h 3.984375 V 243 H 46 Z m 0,0" />
    </clipPath>
    <clipPath
       id="clip196">
      <path
         id="path18413"
         d="m 47.316406,239 h 2.398438 v 7.80078 h -2.398438 z m 0,0" />
    </clipPath>
    <clipPath
       id="clip197">
      <path
         id="path18416"
         d="M 51.589844,238.41016 H 53 v 8.5039 h -1.410156 z m 0,0" />
    </clipPath>
    <clipPath
       id="clip198">
      <path
         id="path18419"
         d="m 96.605469,362 h 7.863281 v 2 h -7.863281 z m 0,0" />
    </clipPath>
    <clipPath
       id="clip199">
      <path
         id="path18422"
         d="m 100.18359,362.19531 h 2.25 V 374 h -2.25 z m 0,0" />
    </clipPath>
    <clipPath
       id="clip200">
      <path
         id="path18425"
         d="m 104.03906,369.19531 h 1.69532 V 374 h -1.69532 z m 0,0" />
    </clipPath>
    <clipPath
       id="clip201">
      <path
         id="path18428"
         d="M 104.61328,366 H 106 v 1.58594 h -1.38672 z m 0,0" />
    </clipPath>
    <clipPath
       id="clip202">
      <path
         id="path18431"
         d="m 106.14453,368.61328 h 7.64453 v 6.98438 h -7.64453 z m 0,0" />
    </clipPath>
    <clipPath
       id="clip203">
      <path
         id="path18434"
         d="m 115,369 h 5 v 7.71484 h -5 z m 0,0" />
    </clipPath>
    <clipPath
       id="clip204">
      <path
         id="path18437"
         d="M 124.27344,363.07812 H 128 v 15.57032 h -3.72656 z m 0,0" />
    </clipPath>
    <clipPath
       id="clip205">
      <path
         id="path18440"
         d="M 129.57812,368 H 133 v 8 h -3.42188 z m 0,0" />
    </clipPath>
    <clipPath
       id="clip206">
      <path
         id="path18443"
         d="M 136.46484,364 H 141 v 15.57031 h -4.53516 z m 0,0" />
    </clipPath>
    <clipPath
       id="clip207">
      <path
         id="path18446"
         d="M 20.246094,303.16016 H 30 v 2.27734 h -9.753906 z m 0,0" />
    </clipPath>
    <clipPath
       id="clip208">
      <path
         id="path18449"
         d="m 18.429688,300.10547 h 11.359375 v 5.46875 H 18.429688 Z m 0,0" />
    </clipPath>
    <clipPath
       id="clip209">
      <path
         id="path18452"
         d="m 24.242188,296.51562 h 6.371093 V 300 h -6.371093 z m 0,0" />
    </clipPath>
    <clipPath
       id="clip210">
      <path
         id="path18455"
         d="m 25.238281,292 h 7.394532 v 3.70703 h -7.394532 z m 0,0" />
    </clipPath>
    <clipPath
       id="clip211">
      <path
         id="path18458"
         d="m 26.066406,288.13672 h 10.484375 v 2.63672 H 26.066406 Z m 0,0" />
    </clipPath>
    <clipPath
       id="clip212">
      <path
         id="path18461"
         d="m 25,286 h 5.789063 v 4 H 25 Z m 0,0" />
    </clipPath>
    <clipPath
       id="clip213">
      <path
         id="path18464"
         d="m 25.335938,281.36719 h 6.488281 v 4.52343 h -6.488281 z m 0,0" />
    </clipPath>
    <clipPath
       id="clip214">
      <path
         id="path18467"
         d="m 26,276.14453 h 5.976563 v 4.50391 H 26 Z m 0,0" />
    </clipPath>
    <clipPath
       id="clip215">
      <path
         id="path18470"
         d="m 25,271.00391 h 7 V 275 h -7 z m 0,0" />
    </clipPath>
    <clipPath
       id="clip216">
      <path
         id="path18473"
         d="m 26.578125,266.40625 h 7.230469 v 5.49609 h -7.230469 z m 0,0" />
    </clipPath>
    <clipPath
       id="clip217">
      <path
         id="path18476"
         d="m 240,231.36328 h 2.96094 V 279 H 240 Z m 0,0" />
    </clipPath>
    <clipPath
       id="clip218">
      <path
         id="path18479"
         d="m 240.02344,277 h 12.41015 v 3 h -12.41015 z m 0,0" />
    </clipPath>
    <clipPath
       id="clip219">
      <path
         id="path18482"
         d="m 258,278 h 39.58594 v 2.51953 H 258 Z m 0,0" />
    </clipPath>
    <clipPath
       id="clip220">
      <path
         id="path18485"
         d="m 330.33594,279 h 30.33984 v 1.83984 h -30.33984 z m 0,0" />
    </clipPath>
    <clipPath
       id="clip221">
      <path
         id="path18488"
         d="M 240.35937,292 H 243 v 38.99219 h -2.64063 z m 0,0" />
    </clipPath>
    <clipPath
       id="clip222">
      <path
         id="path18491"
         d="m 241.15234,330.61719 h 10.78516 v 2.37109 h -10.78516 z m 0,0" />
    </clipPath>
    <clipPath
       id="clip223">
      <path
         id="path18494"
         d="M 257.27734,331 H 360 v 3.54297 H 257.27734 Z m 0,0" />
    </clipPath>
    <clipPath
       id="clip224">
      <path
         id="path18497"
         d="m 302.39453,329.38672 h 2.08203 v 6.53515 h -2.08203 z m 0,0" />
    </clipPath>
    <clipPath
       id="clip225">
      <path
         id="path18500"
         d="m 297.16406,342.07031 h 9.32422 v 9.51953 h -9.32422 z m 0,0" />
    </clipPath>
    <clipPath
       id="clip226">
      <path
         id="path18503"
         d="M 307.42578,348.46094 H 311 v 5.33593 h -3.57422 z m 0,0" />
    </clipPath>
    <clipPath
       id="clip227">
      <path
         id="path18506"
         d="m 220.09766,305.03125 h 6.75 v 5.5625 h -6.75 z m 0,0" />
    </clipPath>
    <clipPath
       id="clip228">
      <path
         id="path18509"
         d="m 223,306 h 1.92187 v 7.90234 H 223 Z m 0,0" />
    </clipPath>
    <clipPath
       id="clip229">
      <path
         id="path18512"
         d="m 226.32422,305.43359 h 4.40625 V 313 h -4.40625 z m 0,0" />
    </clipPath>
    <clipPath
       id="clip230">
      <path
         id="path18515"
         d="m 241,310 h 4.63281 v 1.51562 H 241 Z m 0,0" />
    </clipPath>
    <clipPath
       id="clip231">
      <path
         id="path18518"
         d="m 267.12891,310.46484 h 5.71093 V 312 h -5.71093 z m 0,0" />
    </clipPath>
    <clipPath
       id="clip232">
      <path
         id="path18521"
         d="m 282,310 h 6.67578 v 1.77734 H 282 Z m 0,0" />
    </clipPath>
    <clipPath
       id="clip233">
      <path
         id="path18524"
         d="m 294,310.44922 h 5.51562 V 313 H 294 Z m 0,0" />
    </clipPath>
    <clipPath
       id="clip234">
      <path
         id="path18527"
         d="m 301.5625,310.57422 h 2.05469 v 1.95703 h -2.05469 z m 0,0" />
    </clipPath>
    <clipPath
       id="clip235">
      <path
         id="path18530"
         d="m 303,314.49219 h 1 v 3.125 h -1 z m 0,0" />
    </clipPath>
    <clipPath
       id="clip236">
      <path
         id="path18533"
         d="M 302.25781,322 H 304 v 4.55859 h -1.74219 z m 0,0" />
    </clipPath>
    <clipPath
       id="clip237">
      <path
         id="path18536"
         d="M 229.51172,330.33984 H 234 V 337 h -4.48828 z m 0,0" />
    </clipPath>
    <clipPath
       id="clip238">
      <path
         id="path18539"
         d="m 224.48828,288 h 5.10156 v 7 h -5.10156 z m 0,0" />
    </clipPath>
    <clipPath
       id="clip239">
      <path
         id="path18542"
         d="m 230.52344,289.01562 h 4.32422 V 295 h -4.32422 z m 0,0" />
    </clipPath>
    <clipPath
       id="clip240">
      <path
         id="path18545"
         d="m 241,329.32031 h 10 V 331 h -10 z m 0,0" />
    </clipPath>
    <clipPath
       id="clip241">
      <path
         id="path18548"
         d="m 255.08984,292.09375 h 99.67188 v 39.71875 h -99.67188 z m 0,0" />
    </clipPath>
    <clipPath
       id="clip242">
      <path
         id="path18551"
         d="m 91,426 h 1.570313 v 2 H 91 Z m 0,0" />
    </clipPath>
    <clipPath
       id="clip243">
      <path
         id="path18554"
         d="m 86,424.5 h 7 V 438 h -7 z m 0,0" />
    </clipPath>
    <clipPath
       id="clip244">
      <path
         id="path18557"
         d="m 95.230469,431.03906 h 5.496091 v 2.69531 h -5.496091 z m 0,0" />
    </clipPath>
    <clipPath
       id="clip245">
      <path
         id="path18560"
         d="m 99,428.0625 h 2.55859 v 10.41016 H 99 Z m 0,0" />
    </clipPath>
    <clipPath
       id="clip246">
      <path
         id="path18563"
         d="m 105,428 h 2.375 v 11.64062 H 105 Z m 0,0" />
    </clipPath>
    <clipPath
       id="clip247">
      <path
         id="path18566"
         d="M 108.08984,429 H 114 v 8 h -5.91016 z m 0,0" />
    </clipPath>
    <clipPath
       id="clip248">
      <path
         id="path18569"
         d="m 117.45703,429.61719 h 6.98438 V 436 h -6.98438 z m 0,0" />
    </clipPath>
    <clipPath
       id="clip249">
      <path
         id="path18572"
         d="m 125,430 h 4 v 4.86328 h -4 z m 0,0" />
    </clipPath>
    <clipPath
       id="clip250">
      <path
         id="path18575"
         d="m 88.375,439.33594 h 44.01562 v 3.39062 H 88.375 Z m 0,0" />
    </clipPath>
    <clipPath
       id="clip251">
      <path
         id="path18578"
         d="m 101.62109,446.53516 h 5.08985 v 9.27343 h -5.08985 z m 0,0" />
    </clipPath>
    <clipPath
       id="clip252">
      <path
         id="path18581"
         d="m 139,443 h 7.48828 v 2 H 139 Z m 0,0" />
    </clipPath>
    <clipPath
       id="clip253">
      <path
         id="path18584"
         d="m 144,439.5625 h 5 V 449 h -5 z m 0,0" />
    </clipPath>
    <clipPath
       id="clip254">
      <path
         id="path18587"
         d="m 183,421 h 5.55078 v 17.53516 H 183 Z m 0,0" />
    </clipPath>
    <clipPath
       id="clip255">
      <path
         id="path18590"
         d="m 187.60937,414 h 57.94532 v 7.67969 h -57.94532 z m 0,0" />
    </clipPath>
    <clipPath
       id="clip256">
      <path
         id="path18593"
         d="m 192.42969,427 h 9.5 v 8.60156 h -9.5 z m 0,0" />
    </clipPath>
    <clipPath
       id="clip257">
      <path
         id="path18596"
         d="m 207.59766,428.04687 h 6.25781 v 2.67579 h -6.25781 z m 0,0" />
    </clipPath>
    <clipPath
       id="clip258">
      <path
         id="path18599"
         d="m 210.35547,426.01562 h 2.57422 V 434 h -2.57422 z m 0,0" />
    </clipPath>
    <clipPath
       id="clip259">
      <path
         id="path18602"
         d="m 221,425.60937 h 2 V 433 h -2 z m 0,0" />
    </clipPath>
    <clipPath
       id="clip260">
      <path
         id="path18605"
         d="m 225,425.04297 h 4 v 6.77734 h -4 z m 0,0" />
    </clipPath>
    <clipPath
       id="clip261">
      <path
         id="path18608"
         d="m 237.34375,425 h 5.12891 v 5.6875 h -5.12891 z m 0,0" />
    </clipPath>
    <clipPath
       id="clip262">
      <path
         id="path18611"
         d="M 243.36328,420.44922 H 248 V 425 h -4.63672 z m 0,0" />
    </clipPath>
    <clipPath
       id="clip263">
      <path
         id="path18614"
         d="m 202.61328,424 h 4.06641 v 4.6875 h -4.06641 z m 0,0" />
    </clipPath>
    <clipPath
       id="clip264">
      <path
         id="path18617"
         d="m 179.13672,437.28906 h 66.67578 v 3.29297 h -66.67578 z m 0,0" />
    </clipPath>
    <clipPath
       id="clip265">
      <path
         id="path18620"
         d="m 203.08594,447 h 13.35547 v 10 h -13.35547 z m 0,0" />
    </clipPath>
    <clipPath
       id="clip266">
      <path
         id="path18623"
         d="m 240,234.44141 h 2.56641 V 236 H 240 Z m 0,0" />
    </clipPath>
    <clipPath
       id="clip267">
      <path
         id="path18626"
         d="m 90,384.05859 h 1.917969 v 16.33594 H 90 Z m 0,0" />
    </clipPath>
    <clipPath
       id="clip268">
      <path
         id="path18629"
         d="m 95.257813,396.05469 h 3.507812 v 4.53906 h -3.507812 z m 0,0" />
    </clipPath>
    <clipPath
       id="clip269">
      <path
         id="path18632"
         d="m 104.44531,388 h 8.41797 v 6.6875 h -8.41797 z m 0,0" />
    </clipPath>
    <clipPath
       id="clip270">
      <path
         id="path18635"
         d="m 108.60938,387.33594 h 2.99609 v 13.08984 h -2.99609 z m 0,0" />
    </clipPath>
    <clipPath
       id="clip271">
      <path
         id="path18638"
         d="m 114.52344,396 h 3.05078 v 3.48437 h -3.05078 z m 0,0" />
    </clipPath>
    <clipPath
       id="clip272">
      <path
         id="path18641"
         d="m 124.46875,387.21484 h 2.4375 v 14.33203 h -2.4375 z m 0,0" />
    </clipPath>
    <clipPath
       id="clip273">
      <path
         id="path18644"
         d="M 224.14844,231.26172 H 230 V 238 h -5.85156 z m 0,0" />
    </clipPath>
    <clipPath
       id="clip274">
      <path
         id="path18647"
         d="m 227,231.48437 h 2 v 9.98829 h -2 z m 0,0" />
    </clipPath>
    <clipPath
       id="clip275">
      <path
         id="path18650"
         d="m 230.26172,232 h 4.33984 v 9 h -4.33984 z m 0,0" />
    </clipPath>
    <clipPath
       id="clip276">
      <path
         id="path18653"
         d="m 229,266.46484 h 6 v 10.22266 h -6 z m 0,0" />
    </clipPath>
    <clipPath
       id="clip277">
      <path
         id="path18656"
         d="m 240,268.41406 h 6.37891 v 2.33203 H 240 Z m 0,0" />
    </clipPath>
    <clipPath
       id="clip278">
      <path
         id="path18659"
         d="m 275.19922,269.11719 h 4.58984 v 2.30078 h -4.58984 z m 0,0" />
    </clipPath>
    <clipPath
       id="clip279">
      <path
         id="path18662"
         d="m 289,271.38281 h 4.52344 V 273 H 289 Z m 0,0" />
    </clipPath>
    <clipPath
       id="clip280">
      <path
         id="path18665"
         d="M 297.49219,271.28125 H 302 v 2.39062 h -4.50781 z m 0,0" />
    </clipPath>
    <clipPath
       id="clip281">
      <path
         id="path18668"
         d="m 302,273.44531 h 1.78125 V 277 H 302 Z m 0,0" />
    </clipPath>
    <clipPath
       id="clip282">
      <path
         id="path18671"
         d="m 302.08594,282.30078 h 1.82031 v 6.1875 h -1.82031 z m 0,0" />
    </clipPath>
    <clipPath
       id="clip283">
      <path
         id="path18674"
         d="m 302,292 h 1.87109 v 5.81641 H 302 Z m 0,0" />
    </clipPath>
    <clipPath
       id="clip284">
      <path
         id="path18677"
         d="m 303,302.26562 h 1.69922 v 6.55079 H 303 Z m 0,0" />
    </clipPath>
    <clipPath
       id="clip285">
      <path
         id="path18680"
         d="m 303.02734,310 h 1.96094 v 5.83984 h -1.96094 z m 0,0" />
    </clipPath>
    <clipPath
       id="clip286">
      <path
         id="path18683"
         d="m 293,277.54297 h 40 V 281 h -40 z m 0,0" />
    </clipPath>
    <clipPath
       id="clip287">
      <path
         id="path18686"
         d="m 306,271.10937 h 4.95312 V 273 H 306 Z m 0,0" />
    </clipPath>
    <clipPath
       id="clip288">
      <path
         id="path18689"
         d="M 264.62109,270.22266 H 269 V 272 h -4.37891 z m 0,0" />
    </clipPath>
    <clipPath
       id="clip289">
      <path
         id="path18692"
         d="M 315.19922,271.25 H 321 v 2.49609 h -5.80078 z m 0,0" />
    </clipPath>
    <clipPath
       id="clip290">
      <path
         id="path18695"
         d="M 325.42969,271.18359 H 331 V 273 h -5.57031 z m 0,0" />
    </clipPath>
    <clipPath
       id="clip291">
      <path
         id="path18698"
         d="M 336.06641,271.3125 H 341 V 273 h -4.93359 z m 0,0" />
    </clipPath>
    <clipPath
       id="clip292">
      <path
         id="path18701"
         d="M 346.08203,271 H 352 v 1.5 h -5.91797 z m 0,0" />
    </clipPath>
    <clipPath
       id="clip293">
      <path
         id="path18704"
         d="m 354,270.20703 h 5.67187 V 272 H 354 Z m 0,0" />
    </clipPath>
    <clipPath
       id="clip294">
      <path
         id="path18707"
         d="m 251.11328,331 h 7.78125 v 2 h -7.78125 z m 0,0" />
    </clipPath>
    <clipPath
       id="clip295">
      <path
         id="path18710"
         d="m 237,335.17187 h 7.97266 v 6.61719 H 237 Z m 0,0" />
    </clipPath>
    <clipPath
       id="clip296">
      <path
         id="path18713"
         d="m 244,340 h 3.61328 v 3 H 244 Z m 0,0" />
    </clipPath>
    <clipPath
       id="clip297">
      <path
         id="path18716"
         d="M 239.35156,339.62109 H 251 v 12.99219 h -11.64844 z m 0,0" />
    </clipPath>
    <clipPath
       id="clip298">
      <path
         id="path18719"
         d="M 242.47266,351 H 244 v 7.85937 h -1.52734 z m 0,0" />
    </clipPath>
    <clipPath
       id="clip299">
      <path
         id="path18722"
         d="m 244,352 h 4 v 6.4375 h -4 z m 0,0" />
    </clipPath>
    <clipPath
       id="clip300">
      <path
         id="path18725"
         d="m 241,236.32031 h 6 v 4.66797 h -6 z m 0,0" />
    </clipPath>
    <clipPath
       id="clip301">
      <path
         id="path18728"
         d="M 251.57031,242.30078 H 256 V 246 h -4.42969 z m 0,0" />
    </clipPath>
    <clipPath
       id="clip302">
      <path
         id="path18731"
         d="M 262.49609,248.07812 H 268 V 251 h -5.50391 z m 0,0" />
    </clipPath>
    <clipPath
       id="clip303">
      <path
         id="path18734"
         d="m 290,263.14453 h 5 v 4.37891 h -5 z m 0,0" />
    </clipPath>
    <clipPath
       id="clip304">
      <path
         id="path18737"
         d="m 298,269.54687 h 3.66016 v 2.92188 H 298 Z m 0,0" />
    </clipPath>
    <clipPath
       id="clip305">
      <path
         id="path18740"
         d="m 250.57031,270 h 6.82031 v 2 h -6.82031 z m 0,0" />
    </clipPath>
    <clipPath
       id="clip306">
      <path
         id="path18743"
         d="m 249.37109,312 h 7.39063 v 1.76562 h -7.39063 z m 0,0" />
    </clipPath>
    <clipPath
       id="clip307">
      <path
         id="path18746"
         d="M 259.38672,311.55469 H 264 V 313 h -4.61328 z m 0,0" />
    </clipPath>
    <clipPath
       id="clip308">
      <path
         id="path18749"
         d="m 242,238 h 118.89453 v 35.60547 H 242 Z m 0,0" />
    </clipPath>
    <clipPath
       id="clip309">
      <path
         id="path18752"
         d="m 260.34375,375 h 2.23437 v 10.75 h -2.23437 z m 0,0" />
    </clipPath>
    <clipPath
       id="clip310">
      <path
         id="path18755"
         d="m 265.52344,384.53125 h 2.98437 v 3.44531 h -2.98437 z m 0,0" />
    </clipPath>
    <clipPath
       id="clip311">
      <path
         id="path18758"
         d="m 274,374.53516 h 7.77344 v 7.04296 H 274 Z m 0,0" />
    </clipPath>
    <clipPath
       id="clip312">
      <path
         id="path18761"
         d="m 277.5,373.10937 h 3.16016 V 388 H 277.5 Z m 0,0" />
    </clipPath>
    <clipPath
       id="clip313">
      <path
         id="path18764"
         d="m 283.03125,384 h 2.82812 v 3.52734 h -2.82812 z m 0,0" />
    </clipPath>
    <clipPath
       id="clip314">
      <path
         id="path18767"
         d="m 289.51562,375.19531 h 8.44141 V 383 h -8.44141 z m 0,0" />
    </clipPath>
  </defs>
  <g
     transform="translate(-32.753627,-54.397571)"
     clip-path="url(#clip1)"
     clip-rule="nonzero"
     id="g18774">
    <path
       style="fill:none;stroke:#000000;stroke-width:0.745;stroke-linecap:round;stroke-linejoin:round;stroke-miterlimit:10;stroke-opacity:1"
       d="m 67.253906,517.99609 -0.09766,0.0781 -0.183594,-0.17188 -0.113281,-0.0195 -0.08984,0.125 -0.109375,-0.10547 0.04687,-0.0742 0.15625,0.0742 -0.08203,-0.10937 -0.02344,0.0977 0.125,0.0312"
       transform="matrix(1,0,0,-1,0,594)"
       id="path18772" />
  </g>
  <g
     transform="translate(-32.753627,-54.397571)"
     clip-path="url(#clip2)"
     clip-rule="nonzero"
     id="g18778">
    <path
       style="fill:none;stroke:#000000;stroke-width:0.745;stroke-linecap:round;stroke-linejoin:round;stroke-miterlimit:10;stroke-opacity:1"
       d="m 65.125,538.91797 -0.03516,-0.0547 0.101562,0.0781 -0.05469,-0.0625 -0.07422,0.0937 0.179688,-0.0586 0.0039,0.0742 -0.132813,0.1875 -0.04297,-0.0742 0.132812,0.14063 -0.164062,-0.043 0.1875,-0.0352 -0.105469,-0.10156 -0.0625,0.0586 0.04687,-0.13281 -0.07422,0.0781 0.04687,0.10156 0.02344,-0.11328 -0.04297,-1.47657 0.113281,-0.45312 0.04687,-1.29688 -0.04687,-1.76562 0.109375,-0.49219 -0.01953,-1.46875 0.136719,-0.0898 0.01172,-0.3086 -0.207031,-0.23437 0.08203,-0.73047 -0.08203,-0.25781 0.03516,-0.34375 -0.101562,-0.0508 0.09375,-0.82813 -0.125,-0.64453 0.01563,-0.52344 0.08594,-0.18359 0.0078,0.0977 0.03125,-1.73438 -0.07813,-0.72656 0.07813,-0.47266 -0.09766,-1.40234 -0.132813,-0.27344 0.136719,-0.71094 -0.125,-0.12109 0.05859,-0.98828 -0.144532,-1.51563 0.128907,-0.97265 -0.148438,-0.40235 -0.03516,-1.11328 0.191406,-0.65625 -0.222656,-0.64844 0.128906,-1.05078 -0.08984,-0.23437 -0.0625,-1.0586 0.04687,-0.99218 -0.117187,-0.44922 0.02734,-2.375 -0.164063,-0.90235 0.05859,0.0274 v -0.27735 l -0.117188,-0.83203 -0.0039,-3.61718 -0.144531,-0.72266 0.0039,-1.26172 -0.148437,-0.43359 0.03125,-1.78516 0.148437,-0.98047 -0.226562,-0.61719 0.05469,-1.62109 0.109375,-0.40234 -0.02734,-0.56641 -0.105468,-0.23047 -0.01172,-3.43359 0.105469,-0.35156 -0.09766,-1.08594 0.125,-1.98438 -0.04687,-2.35937 0.105469,-0.65235 -0.08984,-0.3125 -0.05078,-1.39062 0.03125,-1.28906 0.105469,-0.10938 0.01172,-0.26562 -0.167969,-0.96875 0.02344,-0.53125 0.195313,-0.26563 -0.05469,-0.26172 -0.15625,-0.17578"
       transform="matrix(1,0,0,-1,0,594)"
       id="path18776" />
  </g>
  <g
     transform="translate(-32.753627,-54.397571)"
     clip-path="url(#clip3)"
     clip-rule="nonzero"
     id="g18782">
    <path
       style="fill:none;stroke:#000000;stroke-width:0.745;stroke-linecap:round;stroke-linejoin:round;stroke-miterlimit:10;stroke-opacity:1"
       d="m 73.242188,463.32812 0.570312,0.11329 0.316406,-0.0469 0.21875,0.19922 0.34375,0.0664 0.261719,-0.14063"
       transform="matrix(1,0,0,-1,0,594)"
       id="path18780" />
  </g>
  <g
     transform="translate(-32.753627,-54.397571)"
     clip-path="url(#clip4)"
     clip-rule="nonzero"
     id="g18786">
    <path
       style="fill:none;stroke:#000000;stroke-width:0.745;stroke-linecap:round;stroke-linejoin:round;stroke-miterlimit:10;stroke-opacity:1"
       d="m 83.472656,463.65625 0.4375,-0.16797 0.378907,0.36328 0.214843,-0.25781 0.01563,0.15234 0.246094,0.0195 0.21875,0.33204 0.04297,-0.32813 0.890625,0.0508 -0.01563,0.0899 0.109375,-0.33204 0.04687,0.17969 0.839844,-0.008 0.08594,0.14062 0.171875,-0.19531 0.05078,0.0899 0.367188,-0.0664 -0.01563,0.0937 0.550781,0.11328 0.125,-0.16797 0.148438,0.004 0.08203,0.1914 0.40625,0.0703 0.01563,0.0781 0.164062,-0.14453 0.46875,0.125 0.105469,0.1875 0.191406,0.0586 0.152344,-0.17187 0.175781,-0.008 0.09375,-0.29688 H 90.375 l 0.07422,0.26563 0.367187,0.11328 0.128907,-0.16406 0.324218,0.1289 0.539063,-0.0156 0.457031,0.13281 0.265625,-0.0859 0.113281,0.125 0.4375,-0.1289 0.05469,0.10156 0.242187,0.0195 0.05859,0.25391 0.121094,0.0273 0.03125,-0.28906 0.269531,-0.1211 0.04687,0.20313 0.105469,0.043 0.02344,-0.23828 0.28125,-0.0781 0.457032,0.043 0.105468,0.16016 0.167969,-0.29297 0.355469,-0.0195 0.148437,0.19921 0.07422,-0.15625 0.34375,-0.13281 0.558594,0.14063 0.08203,0.10156 0.234375,-0.11328 0.07422,0.11719 0.386719,0.0898 0.429687,-0.0508 0.07031,0.14453 0.125,-0.0195 0.05469,-0.14453 0.328125,-0.0195 0.160156,-0.21485 0.167969,0.20313 0.335938,-0.0781 0.05078,0.125 0.195312,0.008 -0.0039,0.125 0.332031,-0.27734 0.621096,0.0195 0.15625,-0.0781 0.3789,0.21875 0.13672,-0.10938 0.60156,-0.0391 0.13282,0.23047 0.0703,-0.19141 0.43359,-0.22265 0.0547,0.10937 0.23047,0.0391 0.41797,-0.14843 0.24609,0.27734 0.16406,-0.4375 0.27735,-0.14063 0.10547,-0.0351 0.0703,0.15234 0.65234,-0.14844 0.0859,0.23047 0.10156,-0.0469 0.0391,-0.23047 0.51954,0.19922 0.38281,-0.33985 0.10547,0.19141 0.36718,0.1875 0.19141,-0.19531 0.0781,0.11328 0.47265,0.15234 0.55078,-0.19922 0.46875,0.16016 0.0742,-0.1875 0.14844,-0.0273 0.0781,0.1875 0.62891,-0.0547 0.14844,0.19531 0.21094,-0.22265 h 0.4375 l 0.23828,0.1289 1.3125,-0.0391 0.27343,0.11328 0.082,-0.10156 0.26562,0.0156 0.10156,-0.16015 0.13672,-0.0156 0.21094,0.23047 0.51562,-0.0859 0.44922,0.0703 0.22657,0.15234 0.10156,-0.16406 0.39453,-0.1836 0.26562,0.14844 0.32032,0.008 0.17968,-0.11718 0.11719,0.0937 h 0.76563 l 0.25,0.17578 0.20312,-0.12891 h 0.3086 l 0.75,0.1875 0.14453,-0.22656 0.0352,0.21094 0.21094,0.0391 0.0781,0.17969 0.19531,-0.26172 0.32422,0.0664 0.0625,0.2461 0.11718,0.043 v -0.2461 l 0.38282,-0.0625 0.17968,-0.19922 0.1211,0.17188 0.3789,0.0859 0.13672,-0.26954 0.4375,0.21094 0.27344,-0.18359 0.60156,-0.0195 0.10938,-0.17969 0.14062,0.0156 0.14844,0.23438 0.80078,0.0664 0.0742,0.1875 0.12891,0.0195 0.0781,-0.14063 1.6875,0.2461 0.45313,-0.11719 0.20312,0.19531 0.0898,-0.18359 0.3164,-0.14453 0.20313,0.0781 1.48437,-0.0664 0.21485,0.10938 0.53125,-0.0586 0.0977,0.0703 0.19922,-0.1836 0.17969,0.14844 0.39843,-0.0976 0.0937,0.0976 0.32422,-0.0312 0.0664,0.21485 0.0977,-0.004 0.1289,-0.19531 0.16797,-0.0469 0.43359,0.0547 0.47266,-0.0898 0.0586,-0.33204 0.15625,0.0352 0.0937,0.31641 0.35938,0.0898 0.23437,-0.19531 0.44532,0.125 0.35156,-0.17578 0.32031,0.0742 0.17578,-0.26954 0.26563,0.17188 0.18359,-0.12109 0.55469,0.043 0.45312,-0.14062 0.0781,-0.16016 0.27734,0.1875 0.42188,0.043 0.0586,-0.082 0.46875,0.21094 0.32813,-0.10156 0.49218,0.10156 0.22657,-0.14453 0.16015,0.18359 0.63282,-0.0898 0.15234,0.15234 0.0469,-0.12891 0.31641,-0.16406 0.46094,0.043 0.1914,-0.21094 0.0781,0.16016 0.22656,0.004 0.0625,0.12109 0.4336,-0.0859 0.0977,0.14453 0.13281,-0.16015 0.33985,0.0469 0.19922,-0.0937 0.3125,0.14844 0.19922,-0.18359 0.18359,0.21093 0.24219,0.0117 0.0781,0.15625 0.19922,-0.29687 0.0742,0.14453 0.20312,-0.0469 0.0742,0.22266 0.1211,-0.004 0.0664,-0.22265 0.25,-0.082 0.0469,-0.33985 0.0937,0.0703 0.0703,0.33985 0.19141,-0.008 0.0586,0.0937 0.14453,-0.26563 0.26953,0.0469 0.0469,0.28906 0.0898,0.0469 0.0625,-0.38281 0.17188,-0.0664 0.32422,0.0899 0.0508,-0.15625 0.0625,0.21484 0.24218,-0.125 0.41407,0.0195 0.0586,0.26563 0.125,0.082 0.0664,-0.25781 0.4375,-0.1211 0.1289,0.16407 0.15625,0.0508 0.13282,-0.082 0.0508,0.11718 0.16797,-0.008 0.082,0.1875 0.0859,-0.0234 0.0391,-0.1875 0.23828,0.0234 0.15625,0.19922 0.0117,-0.15625 0.20312,-0.082 0.34766,0.125 0.0859,-0.1836 0.3164,0.33204 0.20313,-0.17969 0.125,0.11719 0.19922,-0.0742 0.0234,0.10547 0.082,-0.21094 0.11719,0.14844 0.36328,0.0859 0.0469,0.23047 0.0898,-0.008 0.0781,-0.25 0.21875,0.0547 0.15625,-0.125 0.3125,0.13281 0.0469,-0.21875 0.125,-0.0352 0.0742,0.21485 0.28125,0.0547 0.0547,0.17969 0.12109,-0.23437 0.33203,0.0742 0.0117,0.19531 0.375,-0.25 0.0586,-0.34375 0.10937,0.0664 0.0742,0.33985 0.14062,0.0469 0.19141,-0.25 0.34766,0.125 0.97265,-0.0391 0.16407,-0.28906 0.15625,0.0469 0.16015,0.35157 0.12891,0.0391 0.15625,-0.13281 0.15234,0.15625 0.19531,0.0312 0.15625,0.35156 0.0391,-0.20313 0.3125,-0.0625 0.0977,0.16407 0.44922,-0.0274 0.10547,0.13672 h 0.12891 l 0.0508,0.18359 0.14844,-0.23437 0.22265,0.0391 0.0508,0.25391 0.0898,0.043 -0.0625,-0.24219 0.20703,-0.0703 0.0352,-0.14063 0.32032,0.19531 0.0508,-0.26953 0.0508,0.1875 0.49219,0.10157 0.22656,-0.0391 0.0586,-0.29687 0.0859,0.34765 0.11328,-0.004 0.0859,-0.19922 0.0508,0.14062 0.13672,-0.0195 0.0586,0.25 0.0547,-0.35156 0.26953,0.12891 0.17969,-0.0937 0.11719,-0.27344 0.15234,0.33984 0.0742,0.0586 0.125,-0.31641 0.0586,0.14063 0.15235,0.0391 0.0859,0.24609 0.0391,-0.21875 0.22656,-0.23828 0.18359,0.30859 0.19532,-0.30859 0.21093,0.27734 0.1875,-0.20312 0.0937,0.19531 0.125,-0.23047 0.30078,-0.0195 -0.0195,0.0664 0.17578,0.0234 0.14844,-0.10157 0.33985,0.41407 0.11328,-0.3086 0.0937,-0.004 0.10937,0.24218 0.11328,-0.3789 0.0937,-0.0156 -0.004,0.16797 0.18359,0.0547 0.0195,0.11719 0.0703,-0.24219 0.0312,0.082 0.19141,0.004 0.0234,0.16015 0.10547,-0.20312 0.14843,-0.0586 0.28516,0.15625 0.125,-0.29297 0.26172,0.23438 0.125,-0.0625 0.32812,0.0937 0.0508,0.28125 0.0937,0.0312 0.0195,-0.28125 0.10937,-0.0898 0.38672,0.11328 0.0391,-0.15235 0.10157,-0.0273 0.0586,0.125 0.21875,-0.004 0.11719,0.19922 0.16797,-0.30469 0.17968,-0.043 0.0937,0.21484 h 0.11328 l 0.043,-0.24609 0.21485,-0.0742 0.0742,-0.27344 0.0977,-0.0312 0.0352,0.26172 0.0977,0.0586 0.23047,0.008 0.14453,-0.20312 0.0547,0.15234 0.24219,-0.0508 0.13281,0.14453 0.0469,-0.13281 0.71484,-0.0391 0.19922,-0.32031 0.125,0.0547 0.0469,0.28516 0.34375,0.0312 0.15625,-0.12891 0.043,0.082 0.29297,0.004 0.0742,0.27734 0.11328,-0.043 0.0312,-0.25782 0.375,0.008 0.10547,0.11328 0.19141,0.043 0.10937,-0.082 0.3125,0.10157 0.15625,0.29297 0.004,-0.19532 0.28515,-0.0937 0.17579,0.35157 0.0312,-0.21485 0.32031,-0.11328 0.39453,0.14844 0.0508,0.16015 0.0937,-0.32421 0.0898,0.14062 0.55079,0.0586 0.043,0.26954 0.0937,0.0391 0.0312,-0.25 0.19141,-0.0391 0.0195,0.0781 0.0703,-0.19922 0.1211,0.1836 0.21094,-0.0899 0.22265,0.0742 0.0195,0.26953 0.082,-0.0117 0.0937,-0.34375 0.33204,0.0508 0.16406,-0.2539 -0.0117,0.21875 0.12891,0.0312 0.0234,0.11328 0.1211,-0.28516 0.2539,0.39453 -0.0195,-0.24609 0.10938,-0.23437 0.082,-0.008 0.0234,0.19532 0.0508,-0.22266 0.0937,0.0117 0.1914,0.44531 0.0547,-0.46875 0.19922,0.20703 0.0469,-0.23828 0.16407,0.0273 0.0625,-0.18359 0.12109,-0.0156 0.0547,0.13671 0.4414,0.26563 0.0742,-0.10938 0.20313,0.008 0.082,0.28906 0.15625,0.0352 0.0742,-0.19922 0.0898,-0.004 0.16016,0.0469 0.12109,0.22656 0.0391,-0.125 0.16016,0.0859 0.12891,-0.15235 0.0781,0.14844"
       transform="matrix(1,0,0,-1,0,594)"
       id="path18784" />
  </g>
  <g
     transform="translate(-32.753627,-54.397571)"
     clip-path="url(#clip5)"
     clip-rule="nonzero"
     id="g18790">
    <path
       style="fill:none;stroke:#000000;stroke-width:0.745;stroke-linecap:round;stroke-linejoin:round;stroke-miterlimit:10;stroke-opacity:1"
       d="m 178.94141,460.37109 0.008,-0.14453 -0.0781,0.13672 0.0234,-0.20312 -0.0937,-0.0234"
       transform="matrix(1,0,0,-1,0,594)"
       id="path18788" />
  </g>
  <g
     transform="translate(-32.753627,-54.397571)"
     clip-path="url(#clip6)"
     clip-rule="nonzero"
     id="g18794">
    <path
       style="fill:none;stroke:#000000;stroke-width:0.745;stroke-linecap:round;stroke-linejoin:round;stroke-miterlimit:10;stroke-opacity:1"
       d="m 83.003906,447.89844 -0.128906,-0.0508 0.08984,-0.34766 -0.05078,0.32031 -0.125,0.14063 0.0625,-0.15625 0.03516,0.33203 -0.140625,-0.1875 -0.03125,0.24609 h -0.105469 l 0.04297,0.19922 -0.09766,0.24219 0.01172,0.5664 -0.0625,-0.0117 0.04687,-0.0547 0.07031,0.28125 -0.08594,0.26172 0.07031,0.45312 0.140625,0.21875 0.121094,0.89844 0.01172,-0.21484 0.128907,0.13281 0.300781,0.88672 0.09766,-0.28516 0.121094,0.68359 0.05078,-0.22265 0.269531,0.10937 0.140625,0.1875 0.03516,-0.24218 0.101562,-0.0508 0.03906,0.25 0.347656,0.0899 0.06641,0.1289 0.148438,-0.17187 0.351562,0.008 0.195313,-0.4375 0.03906,0.46875 0.121094,-0.42578 0.0039,0.13672 0.226563,-0.12109 0.06641,0.13671 0.07031,-0.0469 0.320313,-0.77734 0.05469,0.16406 0.152344,0.0156 0.08203,-0.043 0.05469,-0.34375 0.09766,0.0937 0.132813,-0.17187 0.0625,0.17187 0.08594,-0.004 0.04297,-0.30078 0.25,-0.16797 -0.183594,-0.17578 0.01953,-0.22657 0.140625,-0.17187 -0.03906,-0.75 -0.03125,-0.13281 -0.105469,0.0234 -0.203125,-1.4414 -0.660156,-1.47266 -0.04687,0.10938 -0.07813,-0.10157 -0.121094,-0.625 -0.597656,-0.55078 -0.363281,-0.28515 -0.652344,0.15234 -0.21875,-0.0859 -0.304688,0.2461 -0.238281,0.44922 -0.08594,-0.16016 -0.04687,0.0547 -0.3125,1.47265 0.277343,0.26953 0.113282,0.72657"
       transform="matrix(1,0,0,-1,0,594)"
       id="path18792" />
  </g>
  <g
     transform="translate(-32.753627,-54.397571)"
     clip-path="url(#clip7)"
     clip-rule="nonzero"
     id="g18798">
    <path
       style="fill:none;stroke:#000000;stroke-width:0.745;stroke-linecap:round;stroke-linejoin:round;stroke-miterlimit:10;stroke-opacity:1"
       d="m 107.00781,450.55469 -0.0352,0.0742 0.11718,-0.0312 -0.0547,0.10156 -0.0391,-0.21094 -0.0352,0.86719 0.0469,-0.45703 0.0703,0.0195 -0.1836,0.25 0.0742,0.19922 0.0391,-0.29297 -0.0156,0.42578 -0.0625,-0.17969 0.0352,0.29688 0.004,-0.0977 -0.10156,-0.008 0.12109,-0.10156 -0.008,0.10937 -0.0898,-0.008 0.0977,-0.0352 v 0.26172 l 0.0586,-0.0781 -0.11719,-0.33204 0.0234,-0.90234 -0.13282,-1.05859 0.0547,-3.7461 0.11328,-0.28125 0.008,0.1211 0.22657,-0.25 0.3164,0.48828"
       transform="matrix(1,0,0,-1,0,594)"
       id="path18796" />
  </g>
  <g
     transform="translate(-32.753627,-54.397571)"
     clip-path="url(#clip8)"
     clip-rule="nonzero"
     id="g18802">
    <path
       style="fill:none;stroke:#000000;stroke-width:0.745;stroke-linecap:round;stroke-linejoin:round;stroke-miterlimit:10;stroke-opacity:1"
       d="m 128.82031,450.44141 -0.004,0.14062 -0.0703,-0.1875 0.0586,0.0742 -0.082,0.0273 0.0156,-0.24609 -0.043,0.53906 -0.10937,0.0156 -0.0234,-0.12891 0.10547,0.13672 0.0117,0.42187 0.0781,0.125 0.004,-0.15234 0.13281,0.60938 0.0117,-0.28907 0.4375,0.19141 0.10547,0.17578 0.30859,0.0742 0.14453,-0.13281 0.082,0.14062 0.33985,0.0742 0.0859,0.26172 0.19921,-0.28906 0.82813,-0.1211 0.0547,-0.35547 0.0547,0.13282 0.16407,-0.0703 0.0312,0.20313 0.15625,-1.67578 -0.10157,-1.2461 -0.25,-0.48828 -0.26562,-0.99218 -0.45313,-0.625 -0.17578,-0.49219 -0.59765,-0.66797 -0.56641,-0.3125 -0.14453,-0.21094 -0.74609,-0.13281 -0.25,-0.21875 -0.043,0.14453 0.10156,-0.25391 0.0664,-0.0234 0.0508,0.20703 0.0273,-0.0586 0.0625,0.082 h 0.28125 l 0.16406,0.13671 0.33594,-0.0703 0.46094,0.10547 0.60547,0.28516 0.15625,-0.0742 0.6289,0.0781 0.1836,-0.30078 0.17187,0.0274 0.16797,0.40234 0.16797,0.15234 0.41016,0.16407 0.30468,-0.16016 0.72266,0.39062 0.0664,-0.16796"
       transform="matrix(1,0,0,-1,0,594)"
       id="path18800" />
  </g>
  <g
     transform="translate(-32.753627,-54.397571)"
     clip-path="url(#clip9)"
     clip-rule="nonzero"
     id="g18806">
    <path
       style="fill:none;stroke:#000000;stroke-width:0.745;stroke-linecap:round;stroke-linejoin:round;stroke-miterlimit:10;stroke-opacity:1"
       d="m 147.12109,450.5 -0.1289,0.043 0.0195,0.15234 -0.0547,-0.10547 -0.0234,0.26953 0.0469,-0.1289 0.0234,0.50781 -0.0117,-0.1875 0.10156,0.19531 0.16016,0.49219 0.043,-0.14844 0.21485,0.082 0.43359,0.48047 0.14063,-0.25 0.0469,0.19141 0.27735,0.0664 0.0781,0.1875 0.11328,0.0234 0.0664,-0.19922 0.1914,-0.0976 0.1211,-0.004 0.15625,0.17188 0.0859,-0.17578 0.32812,-0.16407 0.0781,-0.35547 0.004,0.1875 0.0195,-0.60156 -0.1914,-0.4414 0.004,-0.53907 -0.19531,-0.26562 -0.14844,-0.4961 -0.008,0.1875 -0.15234,-0.12109 -0.0742,0.0586 -0.0664,-0.34765 -0.23047,-0.13672 -0.10156,0.10156 0.0234,-0.13672 0.19922,0.0977 0.0977,-0.17188 0.70313,-0.17968 0.73047,-0.33594 0.72656,-0.66406 0.11719,0.0195 0.21484,-0.1875 0.20703,-0.28906 -0.0273,-0.19532 0.0586,0.17188 -0.0117,-0.36328 -0.27343,-0.90235 -1.23829,-1.41797 -0.77343,-0.5 -0.3125,0.1836 -0.0625,-0.19922 -0.4336,-0.21094 -0.11718,0.29688 -0.125,-0.0742 -0.082,0.13281 -0.008,-0.19141 0.0195,0.36329"
       transform="matrix(1,0,0,-1,0,594)"
       id="path18804" />
  </g>
  <g
     transform="translate(-32.753627,-54.397571)"
     clip-path="url(#clip10)"
     clip-rule="nonzero"
     id="g18810">
    <path
       style="fill:none;stroke:#000000;stroke-width:0.745;stroke-linecap:round;stroke-linejoin:round;stroke-miterlimit:10;stroke-opacity:1"
       d="m 92.859375,437.94922 0.03516,-0.0781 -0.121093,0.0781 0.09766,0.0703 -0.01953,-0.11719 0.05469,0.13282 -0.05469,-0.10547 0.375,-0.043 0.07031,0.0703 0.191406,-0.28906 0.02344,0.16406 0.253906,0.0508 0.07813,0.21485 0.109375,0.0312 0.06641,-0.25391 0.171875,-0.0742 0.457032,0.125 0.265625,-0.0977 1.183593,0.13282 0.308594,-0.11719 0.109375,0.0977 0.515625,0.0859 0.222656,-0.14843 0.410157,0.0351 0.207031,0.15625 0.320312,-0.13281 0.21875,-0.25391 0.304688,0.49219 0.07813,-0.28516 0.261719,0.23438 0.01953,-0.12891 0.203125,-0.0625"
       transform="matrix(1,0,0,-1,0,594)"
       id="path18808" />
  </g>
  <path
     style="fill:none;stroke:#000000;stroke-width:0.745;stroke-linecap:round;stroke-linejoin:round;stroke-miterlimit:10;stroke-opacity:1"
     d="m 63.066686,103.45009 -0.179688,-0.0625 0.05469,0.16797 0.01953,-0.1836 -0.08203,-0.0351 0.05859,-0.14454 0.01953,0.14844 0.05078,-0.10547 -0.07813,-0.0351 0.06641,0.58593 0.109375,0.15625 0.05078,-0.11718 0.04297,0.16406 0.109375,5.79297 0.125,1.09765 0.328125,1.04688"
     id="path18812" />
  <g
     transform="translate(-32.753627,-54.397571)"
     clip-path="url(#clip11)"
     clip-rule="nonzero"
     id="g18816">
    <path
       style="fill:none;stroke:#000000;stroke-width:0.745;stroke-linecap:round;stroke-linejoin:round;stroke-miterlimit:10;stroke-opacity:1"
       d="m 99.859375,432.37109 -0.15625,-0.0391 0.101563,-0.0586 -0.207032,-0.65235 0.06641,-0.58203 -0.132813,-1.93359 0.08984,-0.29297 -0.09375,-0.47656 0.257812,-0.23828"
       transform="matrix(1,0,0,-1,0,594)"
       id="path18814" />
  </g>
  <g
     transform="translate(-32.753627,-54.397571)"
     clip-path="url(#clip12)"
     clip-rule="nonzero"
     id="g18820">
    <path
       style="fill:none;stroke:#000000;stroke-width:0.745;stroke-linecap:round;stroke-linejoin:round;stroke-miterlimit:10;stroke-opacity:1"
       d="m 100.96875,434.91797 -0.10547,-0.71485 0.0508,-0.42578"
       transform="matrix(1,0,0,-1,0,594)"
       id="path18818" />
  </g>
  <g
     transform="translate(-32.753627,-54.397571)"
     clip-path="url(#clip13)"
     clip-rule="nonzero"
     id="g18824">
    <path
       style="fill:none;stroke:#000000;stroke-width:0.745;stroke-linecap:round;stroke-linejoin:round;stroke-miterlimit:10;stroke-opacity:1"
       d="m 102.64844,430.02734 0.0352,0.0625 -0.13671,-0.0195 0.0742,0.16406 -0.0859,0.25391 0.0391,0.28516 0.0234,-0.27735 -0.0508,0.17188 -0.0273,-0.0859 0.0547,0.10547 v -0.26953 l 0.21875,-0.46094 0.15234,-0.9375 -0.0547,-0.27734 0.14843,-0.21094 0.0117,-1.46094 -0.0234,0.59766 0.14063,0.61719 0.0703,-0.0274 -0.043,0.28516 0.33985,0.85156 0.0742,0.74609 0.23437,0.33985 0.28125,0.80859 0.0117,-0.12109 0.17187,0.11328 0.0859,-0.35938 0.0312,0.20704 0.0937,-0.11719 0.0469,-0.42578 0.17187,-0.38672 -0.0234,-0.50781 0.15625,-1.03907 0.0352,0.16407 0.0352,-0.082 0.10547,0.16797 0.1875,0.0742 0.0664,0.36719 0.15235,0.14453 0.0859,0.30078 0.16407,-0.004 0.17187,0.34765 0.0156,-0.10937 0.15625,0.10937 0.26171,-0.11719 0.1211,-0.23437 0.0664,0.0742 0.14844,-0.14453 0.28516,-0.88672 0.17578,-0.0625 0.27344,-1.03125 0.0664,0.15234 0.22657,-0.0664 0.0547,-0.125"
       transform="matrix(1,0,0,-1,0,594)"
       id="path18822" />
  </g>
  <g
     transform="translate(-32.753627,-54.397571)"
     clip-path="url(#clip14)"
     clip-rule="nonzero"
     id="g18828">
    <path
       style="fill:none;stroke:#000000;stroke-width:0.745;stroke-linecap:round;stroke-linejoin:round;stroke-miterlimit:10;stroke-opacity:1"
       d="m 110.40625,428.11719 -0.0156,-0.17188 0.10546,-0.0156 0.11719,0.35937 0.0742,-0.21875 0.11328,0.0234 0.26953,0.85156 0.125,0.0156 0.0703,-0.15625 0.23437,0.39062 0.0273,0.28516 0.25,0.47265 0.0156,0.69922 -0.14063,0.32813 -0.35546,-0.125 -0.17969,0.13672 -0.21094,-0.11328 -0.21094,0.0351 -0.39843,-0.48437 -0.25391,-0.5586 -0.0508,-0.54297 0.082,-0.82812 0.35156,-1.40625 0.375,-0.61719 0.0781,0.0899 0.0625,-0.0586 0.0664,-0.28906 0.33985,-0.37891 0.94922,-0.0312 0.68359,0.26172 0.26562,0.38281 0.31641,0.0312 0.25781,0.22657"
       transform="matrix(1,0,0,-1,0,594)"
       id="path18826" />
  </g>
  <g
     transform="translate(-32.753627,-54.397571)"
     clip-path="url(#clip15)"
     clip-rule="nonzero"
     id="g18832">
    <path
       style="fill:none;stroke:#000000;stroke-width:0.745;stroke-linecap:round;stroke-linejoin:round;stroke-miterlimit:10;stroke-opacity:1"
       d="m 119.01953,435.71094 -0.15625,-0.0352 -0.16797,-0.26562 -0.004,0.1875 -0.28907,0.0586 -0.46093,-1.01953 -0.28516,-1.23828 -0.004,-1.82422 -0.0937,-0.55469 0.17188,-1.79297 0.14062,-0.67969 0.16797,-0.3164 -0.0156,-0.2461 0.89844,-1.51171 0.0898,-0.0703 0.0898,0.0977 0.54297,-0.54688"
       transform="matrix(1,0,0,-1,0,594)"
       id="path18830" />
  </g>
  <g
     transform="translate(-32.753627,-54.397571)"
     clip-path="url(#clip16)"
     clip-rule="nonzero"
     id="g18836">
    <path
       style="fill:none;stroke:#000000;stroke-width:0.745;stroke-linecap:round;stroke-linejoin:round;stroke-miterlimit:10;stroke-opacity:1"
       d="m 125.33984,433.19141 -0.45703,-0.0703 -0.0664,-0.30078 -0.0508,0.0859 -0.16407,-0.22656 -0.23828,-0.0352 -0.16015,-0.44922 -0.95704,-1.52734 -0.16796,-0.11328 -0.125,-0.33594 -0.0977,-0.74219 0.0469,0.10156 0.0703,-0.39062 0.19531,-0.34766 0.78906,-0.25 0.34766,0.23438 0.16797,-0.30469 0.39843,0.12891 0.26172,-0.28516 0.0586,-0.33594 -0.11328,-0.1289 -0.25782,-0.95313 -0.58203,-0.91015 -0.20703,-0.0977 -0.0273,-0.17969 -0.1875,-0.17969 0.0469,-0.0586 0.0117,0.0937 0.0195,-0.16797 0.0859,0.15625"
       transform="matrix(1,0,0,-1,0,594)"
       id="path18834" />
  </g>
  <g
     transform="translate(-32.753627,-54.397571)"
     clip-path="url(#clip17)"
     clip-rule="nonzero"
     id="g18840">
    <path
       style="fill:none;stroke:#000000;stroke-width:0.745;stroke-linecap:round;stroke-linejoin:round;stroke-miterlimit:10;stroke-opacity:1"
       d="m 128.17187,434.88281 -0.0391,-0.66797 -0.0742,0.17969 0.25,0.0781 -0.11328,0.0625 -0.0195,-0.20313 0.11328,0.0391 0.46485,-0.77734 0.96093,-1.98047 0.2461,-1.85937 -0.0234,-1.88282 -0.33984,-1.58593 -0.28907,-0.57032 -0.22265,-0.13672 -0.37891,-0.89453 -0.35547,-0.48047 -0.10547,-0.0195 -0.125,-0.41015 -0.0312,0.14453 -0.33984,-0.21875"
       transform="matrix(1,0,0,-1,0,594)"
       id="path18838" />
  </g>
  <g
     transform="translate(-32.753627,-54.397571)"
     clip-path="url(#clip18)"
     clip-rule="nonzero"
     id="g18844">
    <path
       style="fill:none;stroke:#000000;stroke-width:0.745;stroke-linecap:round;stroke-linejoin:round;stroke-miterlimit:10;stroke-opacity:1"
       d="m 34.46875,478.74609 -0.390625,-0.16015 -0.109375,0.125 -0.03906,-0.12891 -0.02734,0.0937 -0.05469,-0.0469 0.06641,0.0976 0.554687,-0.0351 2.265625,0.21093 2.839844,-0.0156 1.785156,-0.17188 0.609375,0.0625 0.636719,-0.13672 0.984375,0.14063 -0.183594,0.29687"
       transform="matrix(1,0,0,-1,0,594)"
       id="path18842" />
  </g>
  <g
     transform="translate(-32.753627,-54.397571)"
     clip-path="url(#clip19)"
     clip-rule="nonzero"
     id="g18848">
    <path
       style="fill:none;stroke:#000000;stroke-width:0.745;stroke-linecap:round;stroke-linejoin:round;stroke-miterlimit:10;stroke-opacity:1"
       d="m 34.480469,479.25391 -0.105469,-0.0156 0.01953,-0.0742 -0.164062,0.0391 0.136719,0.0312 -0.324219,-0.0469 -0.128906,0.21875 -0.210938,-0.0391 -0.523437,0.73437 v 0.48828 l -0.109375,0.17578 0.425781,0.6875 0.4375,0.0508 0.25,0.24218 1.234375,-0.043 1.261719,-0.25781 0.71875,-0.8164 0.222656,-0.79297 -0.05469,-0.7461 0.113282,0.0391 -0.113282,0.11328 1.113282,1.15625 0.335937,0.55468 1.089844,0.69532 0.359375,0.12109 0.664062,0.48828 1.628907,0.39844"
       transform="matrix(1,0,0,-1,0,594)"
       id="path18846" />
  </g>
  <g
     transform="translate(-32.753627,-54.397571)"
     clip-path="url(#clip20)"
     clip-rule="nonzero"
     id="g18852">
    <path
       style="fill:none;stroke:#000000;stroke-width:0.745;stroke-linecap:round;stroke-linejoin:round;stroke-miterlimit:10;stroke-opacity:1"
       d="m 39.3125,484.76953 0.335938,0.33984 0.328125,0.94532 -0.07813,0.87109 -0.08984,0.17188 -0.449219,0.32421 -0.832031,0.17188 -0.394531,-0.0469 -0.285157,0.0742 -0.671875,-0.25781 -0.300781,-0.58594 -0.109375,-0.82812 0.109375,-0.23438 0.339844,-0.27343 0.882812,-0.45704 0.558594,-0.15625 1.890625,0.125 1.152344,0.51954 0.46875,0.35156 0.21875,0.34765 0.164062,0.60157 -0.0078,0.41015 -0.285156,1.13672"
       transform="matrix(1,0,0,-1,0,594)"
       id="path18850" />
  </g>
  <g
     transform="translate(-32.753627,-54.397571)"
     clip-path="url(#clip21)"
     clip-rule="nonzero"
     id="g18856">
    <path
       style="fill:none;stroke:#000000;stroke-width:0.745;stroke-linecap:round;stroke-linejoin:round;stroke-miterlimit:10;stroke-opacity:1"
       d="m 37.820313,491.66406 -0.07031,-0.21094 0.07813,-0.5 0.308594,-0.5 0.160156,-0.0898 0.02344,-0.29687 0.117187,-0.16797 0.6875,-0.043 0.390625,0.15234 0.683594,0.83203 -0.0039,0.20703 0.433593,0.80079 0.214844,0.0742 0.04687,0.11719 1.089844,-0.0156 0.757812,-0.5 0.566407,-0.13282 0.210937,-0.30468 -0.02344,-0.33594 -0.613282,0.0859"
       transform="matrix(1,0,0,-1,0,594)"
       id="path18854" />
  </g>
  <path
     style="fill:none;stroke:#000000;stroke-width:0.745;stroke-linecap:round;stroke-linejoin:round;stroke-miterlimit:10;stroke-opacity:1"
     d="m 5.629187,45.473519 0.04687,-0.043 0.335937,0.33593 1.511719,0.20703 5.296874,-0.5625 0.304687,-0.0625 0.683594,-0.36328"
     id="path18858" />
  <g
     transform="translate(-32.753627,-54.397571)"
     clip-path="url(#clip22)"
     clip-rule="nonzero"
     id="g18862">
    <path
       style="fill:none;stroke:#000000;stroke-width:0.745;stroke-linecap:round;stroke-linejoin:round;stroke-miterlimit:10;stroke-opacity:1"
       d="m 38.339844,494.96484 0.01172,-0.33984 -0.160157,0.11328 0.144532,0.0586 -0.0625,0.71875 0.238281,0.47657 0.609375,0.22265 1.871094,-0.83203 0.679687,-0.69922 0.105469,-0.30468 -0.28125,0.11718"
       transform="matrix(1,0,0,-1,0,594)"
       id="path18860" />
  </g>
  <g
     transform="translate(-32.753627,-54.397571)"
     clip-path="url(#clip23)"
     clip-rule="nonzero"
     id="g18866">
    <path
       style="fill:none;stroke:#000000;stroke-width:0.745;stroke-linecap:round;stroke-linejoin:round;stroke-miterlimit:10;stroke-opacity:1"
       d="m 38.933594,498.97266 -0.05078,-0.26172 -0.324219,-0.28125 -0.152344,0.14453 -0.117187,-0.0937 -0.117188,0.14062 -0.117187,-0.0898 -0.308594,0.62891 -0.0039,0.3125 0.0625,0.53125 0.363281,0.62109 0.234375,-0.0391 0.578125,0.16015 0.710937,-0.19531 0.523438,0.0469 0.363281,-0.1211 0.925781,-0.95312 0.101563,-0.21094 -0.01953,-0.25391 -0.132813,-0.35937 -0.339844,-0.35547 -0.800781,-0.45703 -0.683594,-0.1211 -0.453125,0.0274 -0.578125,0.22656"
       transform="matrix(1,0,0,-1,0,594)"
       id="path18864" />
  </g>
  <g
     transform="translate(-32.753627,-54.397571)"
     clip-path="url(#clip24)"
     clip-rule="nonzero"
     id="g18870">
    <path
       style="fill:none;stroke:#000000;stroke-width:0.745;stroke-linecap:round;stroke-linejoin:round;stroke-miterlimit:10;stroke-opacity:1"
       d="m 40.480469,502.37109 0.335937,-0.0508 0.308594,-0.29687 -1.804687,0.34375 -1.484375,0.41015 -0.296875,0.14453 0.0078,0.40625 0.554688,0.40625 0.785156,0.2461 0.882812,0.54297 0.273438,0.082 0.253906,-0.0977 1.757813,0.51563 0.140625,0.25"
       transform="matrix(1,0,0,-1,0,594)"
       id="path18868" />
  </g>
  <g
     transform="translate(-32.753627,-54.397571)"
     clip-path="url(#clip25)"
     clip-rule="nonzero"
     id="g18874">
    <path
       style="fill:none;stroke:#000000;stroke-width:0.745;stroke-linecap:round;stroke-linejoin:round;stroke-miterlimit:10;stroke-opacity:1"
       d="m 37.871094,508.74609 -0.472656,-0.6914 0.02734,-0.33594 0.351563,-0.51172 0.410156,-0.0586 0.304688,-0.21485 0.789062,0.0274 0.238281,0.10937 0.96875,1.22266 0.175782,0.0859 0.945312,-0.23438 0.753906,-0.72656 0.335938,-0.19531 0.449219,-0.57032 -0.03125,-0.3125 -0.835938,0.33985 -0.113281,0.16406"
       transform="matrix(1,0,0,-1,0,594)"
       id="path18872" />
  </g>
  <path
     style="fill:none;stroke:#000000;stroke-width:0.745;stroke-linecap:round;stroke-linejoin:round;stroke-miterlimit:10;stroke-opacity:1"
     d="m 7.03153,28.442269 -0.01953,-0.16796 0.07422,-0.0234 -0.175781,-0.51172 -1.046875,-0.41406 -0.546875,0.12109 -0.433594,0.39453 -0.04687,0.1875 0.113281,0.57813 0.203125,0.28515 0.492188,0.39063 1.324218,0.60156 0.644532,0.0391 0.984375,-0.15625 0.8125,-0.25781 0.914061,-0.54687 0.355469,-0.53125 0.136719,-0.75 -0.167969,-1.01172 -0.667968,-1.61328"
     id="path18876" />
  <g
     transform="translate(-32.753627,-54.397571)"
     clip-path="url(#clip26)"
     clip-rule="nonzero"
     id="g18880">
    <path
       style="fill:none;stroke:#000000;stroke-width:0.745;stroke-linecap:round;stroke-linejoin:round;stroke-miterlimit:10;stroke-opacity:1"
       d="m 63.277344,481.71875 -0.05469,-0.11328 -0.07031,0.34765 0.08203,0.008 -0.04297,0.33593 0.02734,-0.10546 0.08594,0.14062 -0.05469,-0.17187 -0.0039,0.22656 -0.117188,-0.0625 h 0.09766 l 0.01172,0.20312 -0.09766,-0.51953 0.09375,-0.0703 -0.05469,0.10547 0.01563,-0.40235 -0.05078,-0.0469 v 0.10547 l -0.08594,-0.16406 0.09766,-0.40625 -0.05078,-0.86329 -0.06641,-0.25 -0.02344,0.14063 0.164063,-0.42969 -0.136719,-0.0195 0.04687,-0.38281 -0.113281,-0.45313 0.117187,-0.48437 -0.09766,-0.16406 0.02344,-0.29297 0.09766,0.008 -0.09766,-0.66797 0.07813,0.16406 -0.0039,-0.39453 0.0625,-0.008 -0.06641,-0.12109 -0.04687,0.0547 -0.02734,-0.38672 0.07813,-0.0859 0.02344,0.0937 L 63,475.87891 l 0.03125,-0.52735 0.105469,-0.15625 -0.08203,-0.3164 0.04687,0.11718 0.05469,-0.23828 0.164063,-0.0156 -0.03516,-0.12891 -0.136718,-0.008 -0.01563,-0.59766 0.121093,-0.0664 -0.113281,0.0156 -0.0039,-0.89062 0.01563,0.60937 0.09766,0.043 -0.113281,0.12891 -0.08203,-0.15235 -0.01953,-0.625 -0.08203,-0.0273 0.05469,-0.3086 -0.05859,0.11329 0.06641,0.5625 v -1.00782 l 0.09375,0.1211 -0.03906,-0.1836 0.02734,0.34375 0.06641,-0.0234 -0.101563,-0.51954 0.171875,0.0117 0.03125,-0.15234 -0.09375,-0.0977 0.175781,-0.30859 -0.04687,-0.55469 0.03906,0.1836 0.05078,-0.39844 -0.05469,-0.86328 0.01172,0.13672 -0.07422,-0.0274 0.09766,-0.0351 0.01563,0.17968 0.05078,-0.19531 0.07813,-1.39844 0.05469,-0.10937 -0.0039,0.1875 0.07813,-0.22266 -0.07422,-0.43359 0.101562,-0.28125 -0.121094,-0.26172 0.05469,-1.08203 -0.08203,-0.51563 0.109375,0.10157 -0.09766,-0.34766 0.04297,0.10937 0.105469,-0.50781 0.09375,-1.25781 0.207031,-0.21875 -0.109375,-0.11328 0.105469,-0.33985"
       transform="matrix(1,0,0,-1,0,594)"
       id="path18878" />
  </g>
  <g
     transform="translate(-32.753627,-54.397571)"
     clip-path="url(#clip27)"
     clip-rule="nonzero"
     id="g18884">
    <path
       style="fill:none;stroke:#000000;stroke-width:0.745;stroke-linecap:round;stroke-linejoin:round;stroke-miterlimit:10;stroke-opacity:1"
       d="m 63.671875,463.02734 -0.01953,-0.14453 -0.01172,0.20703 0.08203,0.0391 -0.09375,0.0195 -0.117187,-0.17188 0.04687,-0.0625 0.05859,0.0664 -0.105469,-0.0195 -0.01563,-0.21485 0.02734,0.36328 -0.121094,-0.0234 0.183594,0.0273 -0.07031,-0.008 0.0078,0.13672 -0.05859,-0.16016 -0.06641,0.043 0.02734,-0.0625 0.04687,0.0742 0.01563,-0.13672 0.06641,0.10937 -0.04687,0.0742 -0.03906,-0.16015 0.03516,0.1875 -0.09766,-0.082 0.02734,-0.16797 0.0078,0.17187 0.01953,-0.125 0.07422,0.14063 -0.02344,-0.27344 0.06641,0.33984 0.01172,-0.11328 0.04297,0.0899 0.144531,-0.0156 0.01172,0.0977 0.07031,-0.17188 0.21875,0.16797 0.257813,-0.23828 0.171875,0.27734 0.164062,-0.0664 0.08984,0.125 0.144531,-0.125 0.207031,0.0586 0.05078,0.26172 0.390625,-0.40234 0.128906,0.25781 -0.02344,-0.082 0.25,0.0742 0.25,-0.14454 0.335938,0.0312 0.125,0.15235 0.07422,-0.1836 0.164062,-0.043 0.15625,0.1289 0.04297,-0.0937 0.226562,-0.0117 0.0039,-0.14062 0.09375,0.17578 0.378906,-0.0898 0.07031,0.26171 0.09766,-0.26171 0.05469,0.10546 0.136719,-0.0625 0.08203,0.0781 0.152344,-0.0352 0.07422,-0.16406 0.09766,0.27344 -0.01563,-0.0899 0.125,-0.0117 0.03516,0.0937 0.121094,-0.14454 0.03906,0.11329 0.105469,-0.0781 0.125,0.14063 0.136719,-0.40235 0.117187,0.21094 0.21875,-0.0859 0.05859,-0.15234 0.136719,0.15625 0.550781,0.0312 0.02344,-0.15235 0.375,0.0977 0.04687,-0.125 0.34375,0.24609 0.07813,-0.29296 0.03906,0.19921 0.164063,0.0156 0.04687,0.11328 0.316406,-0.32812 0.05859,0.0742 0.179687,-0.0586 0.06641,-0.17969 0.207032,0.0391 0.07422,0.10937 0.07031,-0.15625 0.644531,-0.0977 0.152344,0.0742 0.05078,-0.12109 0.08594,0.16016 0.417968,0.0664 0.01953,0.15235 0.08203,-0.21485 0.171875,-0.0195 0.02344,-0.14844 0.261719,0.21094 0.07813,-0.10937 0.238281,0.11718 0.105469,-0.0508 0.191406,0.21485 0.117188,-0.20313 0.226562,-0.0273 0.08594,0.19531 0.207031,-0.004 0.08594,0.13672 0.136718,-0.0898 0.242188,0.20703 0.207031,-0.16016 0.164063,0.23828 0.09375,-0.0195 0.05859,-0.29297 0.203125,0.0859 0.121094,-0.24219 0.01563,0.13282 0.285156,0.0742 0.378907,-0.10938 0.136718,0.25781 0.03125,-0.21875 0.171875,-0.125 0.09766,0.0312 0.152343,-0.12109 0.273438,0.12109 0.02344,-0.19922 0.109375,-0.0391 0.273438,0.29688 0.121094,-0.27344 0.136718,0.0586 0.191407,0.32813 0.277343,-0.44531 0.25,0.33984 0.07813,-0.15625 0.234375,0.19531 0.234375,-0.14453 0.265625,0.0781 0.03906,-0.19922 0.324219,0.1875 0.339843,-0.0899 0.04297,0.15625 0.148438,-0.26172 0.539062,0.082 0.6875,-0.082 0.03125,0.10157 0.113281,-0.19922 0.164063,0.0976 0.08594,-0.15625 0.234375,0.12891 0.136719,-0.19531 0.207031,0.14453 0.339844,0.0508 0.289063,-0.19531 0.445312,0.043 0.238281,-0.15235 0.05078,0.13282 0.203125,0.0625 0.410156,-0.0312 0.05469,0.16015 0.179688,-0.26953 0.02344,0.125 0.394532,0.0586 0.285156,-0.0508 0.05859,-0.20312 0.121093,0.004 0.316407,0.40625 0.144531,-0.1875 0.05469,0.10547 0.277344,0.004 0.08203,0.18359 0.09766,-0.0508 0.01172,-0.17578 0.269532,0.17188 0.105468,-0.10938 0.410157,0.15625 0.160156,-0.25781"
       transform="matrix(1,0,0,-1,0,594)"
       id="path18882" />
  </g>
  <g
     transform="translate(-32.753627,-54.397571)"
     clip-path="url(#clip28)"
     clip-rule="nonzero"
     id="g18888">
    <path
       style="fill:none;stroke:#000000;stroke-width:0.745;stroke-linecap:round;stroke-linejoin:round;stroke-miterlimit:10;stroke-opacity:1"
       d="m 52.808594,482.36328 -0.234375,-0.19141 -0.01953,0.10547 0.02344,-0.16797 -0.0078,0.25782 0.0078,-0.0937 -0.171875,0.043 H 52.5 l -0.02344,0.32421 -0.0078,-0.18359 -0.128906,-0.0625 0.07422,0.21484 -0.07031,0.55079 0.05469,-0.15625 -0.04687,0.38671 -0.109375,0.10157 0.07813,0.0156 0.125,0.41406 -0.191407,0.31641 0.04297,0.46094 -0.136719,0.0469 0.132813,0.10157 0.09766,0.73828 0.207031,0.27734 0.05078,0.42969 0.105468,-0.21485 0.167969,0.13282 0.15625,0.34765 0.09375,-0.0976 v 0.13672 l 0.175781,0.14062 0.0625,-0.14453 0.01563,0.18359 0.398438,0.31641 0.05078,-0.14453 0.199219,0.0742 0.03516,-0.10157 0.136719,0.17579 0.292969,0.10546 0.07031,-0.11328 0.210938,0.15625 0.523437,-0.0664 0.105469,0.0703 0.285156,-0.14063 0.152344,-0.22265 0.164062,0.0664 0.210938,-0.33984 0.04297,0.0781 0.171875,-0.1211 0.02734,0.0703 0.07813,-0.51953 0.08594,0.0742 0.117187,-0.48437 0.121094,-0.70313 -0.02734,-0.49609 0.0625,-0.17188 0.0078,0.21094 0.113281,-0.63672 -0.335937,-1.07031 v -0.5 l -0.382813,-0.96094 -0.535156,-0.95703 -0.527344,-0.57812 -0.183594,-0.45313 -0.148437,0.10938 -0.628906,-0.40625 -0.707032,-0.0859 -0.06641,0.19531 -0.121094,-0.004 -0.09375,-0.15625 -0.265625,0.22266 -0.214843,0.42188 -0.355469,0.0937 -0.140625,1.05078 -0.136719,0.35156 0.554688,2.34766 0.191406,0.22265 0.07813,-0.10156"
       transform="matrix(1,0,0,-1,0,594)"
       id="path18886" />
  </g>
  <g
     transform="translate(-32.753627,-54.397571)"
     clip-path="url(#clip29)"
     clip-rule="nonzero"
     id="g18892">
    <path
       style="fill:none;stroke:#000000;stroke-width:0.745;stroke-linecap:round;stroke-linejoin:round;stroke-miterlimit:10;stroke-opacity:1"
       d="m 51.949219,528.33203 -0.25,0.0312 -0.01953,0.28906 -0.07031,-0.0234 0.0039,0.21875 -0.05859,-0.0195 0.160156,0.33204 0.554687,0.45703 0.246094,-0.0391 0.847656,0.39844 0.703125,-0.0664 0.113282,-0.1211 0.08984,-0.57031 0.01563,-0.73828 -0.214843,-0.74219 -0.203125,-1.32422 -0.191407,-0.42969 -0.328125,-0.28515 -0.445312,-0.0937 -0.08203,0.0664 0.652343,0.23047 0.882813,-0.0508 0.832031,-0.24609 0.101563,-0.21485 0.394531,-0.1289 0.06641,-0.71875 -0.175781,-0.91406 -0.195313,-0.20313 -0.257812,-0.72266 -0.808594,-0.79296 -0.777344,-0.35157 -0.761718,-0.16406 -0.429688,0.0312 -0.628906,0.21484 -0.265625,0.19922 0.1875,0.16407"
       transform="matrix(1,0,0,-1,0,594)"
       id="path18890" />
  </g>
  <g
     transform="translate(-32.753627,-54.397571)"
     clip-path="url(#clip30)"
     clip-rule="nonzero"
     id="g18896">
    <path
       style="fill:none;stroke:#000000;stroke-width:0.745;stroke-linecap:round;stroke-linejoin:round;stroke-miterlimit:10;stroke-opacity:1"
       d="m 83.273438,481.86719 -0.05078,-0.0469 0.09375,-0.043 0.05859,0.22657 0.06641,0.69531 v -0.10547 l 0.0039,0.0977 0.183593,-0.0117 0.269532,-0.13282 -0.277344,-0.52734 -0.269531,-0.14453 -0.03906,0.76172 0.136719,0.33984 0.390625,-0.0391 0.1875,-0.32422 0.128906,0.0117 0.113281,-0.14844 -0.01563,-0.20703 0.07422,0.0234 -0.125,-0.0664 -0.07422,-0.23828 -0.308593,-0.0273"
       transform="matrix(1,0,0,-1,0,594)"
       id="path18894" />
  </g>
  <g
     transform="translate(-32.753627,-54.397571)"
     clip-path="url(#clip31)"
     clip-rule="nonzero"
     id="g18900">
    <path
       style="fill:none;stroke:#000000;stroke-width:0.745;stroke-linecap:round;stroke-linejoin:round;stroke-miterlimit:10;stroke-opacity:1"
       d="m 65.839844,526.26562 -0.02344,-0.28125 0.08594,0.28907 -0.08984,-0.043 0.257813,-0.0312 0.496093,-0.32031 0.355469,-0.0664 0.296875,-0.17969 1.105469,0.24219"
       transform="matrix(1,0,0,-1,0,594)"
       id="path18898" />
  </g>
  <g
     transform="translate(-32.753627,-54.397571)"
     clip-path="url(#clip32)"
     clip-rule="nonzero"
     id="g18904">
    <path
       style="fill:none;stroke:#000000;stroke-width:0.745;stroke-linecap:round;stroke-linejoin:round;stroke-miterlimit:10;stroke-opacity:1"
       d="m 79.882813,526.66016 0.882812,0.1289 0.429688,0.22656 0.675781,0.0586 2.039062,-0.64844 0.15625,0.043 0.515625,-0.36719"
       transform="matrix(1,0,0,-1,0,594)"
       id="path18902" />
  </g>
  <g
     transform="translate(-32.753627,-54.397571)"
     clip-path="url(#clip33)"
     clip-rule="nonzero"
     id="g18908">
    <path
       style="fill:none;stroke:#000000;stroke-width:0.745;stroke-linecap:round;stroke-linejoin:round;stroke-miterlimit:10;stroke-opacity:1"
       d="m 97.460938,527.42578 0.699218,-0.0703 0.558594,-0.25391 0.269531,0.0703 0.695313,-0.125 0.644536,0.0469 0.24609,-0.11328 0.29297,0.10937 1.73047,-0.0156 0.20703,0.0742"
       transform="matrix(1,0,0,-1,0,594)"
       id="path18906" />
  </g>
  <g
     transform="translate(-32.753627,-54.397571)"
     clip-path="url(#clip34)"
     clip-rule="nonzero"
     id="g18912">
    <path
       style="fill:none;stroke:#000000;stroke-width:0.745;stroke-linecap:round;stroke-linejoin:round;stroke-miterlimit:10;stroke-opacity:1"
       d="m 119.13281,528.27344 -0.0156,0.0937 0.0625,-0.125 0.64844,0.0976 0.99218,-0.10937 2.30469,-0.008"
       transform="matrix(1,0,0,-1,0,594)"
       id="path18910" />
  </g>
  <g
     transform="translate(-32.753627,-54.397571)"
     clip-path="url(#clip35)"
     clip-rule="nonzero"
     id="g18916">
    <path
       style="fill:none;stroke:#000000;stroke-width:0.745;stroke-linecap:round;stroke-linejoin:round;stroke-miterlimit:10;stroke-opacity:1"
       d="m 140.98047,527.96875 0.36328,-0.26953 0.44531,0.082 0.57813,0.28516 0.76953,0.043 0.76172,0.19922 0.42968,-0.0273 0.42969,-0.16016"
       transform="matrix(1,0,0,-1,0,594)"
       id="path18914" />
  </g>
  <g
     transform="translate(-32.753627,-54.397571)"
     clip-path="url(#clip36)"
     clip-rule="nonzero"
     id="g18920">
    <path
       style="fill:none;stroke:#000000;stroke-width:0.745;stroke-linecap:round;stroke-linejoin:round;stroke-miterlimit:10;stroke-opacity:1"
       d="m 149.55469,462.91797 -0.0156,0.0664 -0.0742,-0.11718 0.008,0.10156 0.008,-0.0781 h -0.17188 l 0.0977,-0.0742 0.043,0.0781 -0.0664,0.0234 0.0508,1.20703 0.25391,1.64062 0.20312,0.36329"
       transform="matrix(1,0,0,-1,0,594)"
       id="path18918" />
  </g>
  <path
     style="fill:none;stroke:#000000;stroke-width:0.745;stroke-linecap:round;stroke-linejoin:round;stroke-miterlimit:10;stroke-opacity:1"
     d="m 117.58621,63.039929 -0.46093,-0.3125 -0.3125,-0.80078 -0.043,-1.81641 0.15234,-0.875"
     id="path18922" />
  <g
     transform="translate(-32.753627,-54.397571)"
     clip-path="url(#clip37)"
     clip-rule="nonzero"
     id="g18926">
    <path
       style="fill:none;stroke:#000000;stroke-width:0.745;stroke-linecap:round;stroke-linejoin:round;stroke-miterlimit:10;stroke-opacity:1"
       d="m 150.35937,489.19922 -0.30468,0.76562 -0.125,1.24219 0.0195,0.84766 0.28515,0.78515"
       transform="matrix(1,0,0,-1,0,594)"
       id="path18924" />
  </g>
  <g
     transform="translate(-32.753627,-54.397571)"
     clip-path="url(#clip38)"
     clip-rule="nonzero"
     id="g18930">
    <path
       style="fill:none;stroke:#000000;stroke-width:0.745;stroke-linecap:round;stroke-linejoin:round;stroke-miterlimit:10;stroke-opacity:1"
       d="m 151.00781,503.12109 -0.44531,0.38672 -0.30078,0.82813 0.0312,0.73828 0.3125,0.82812"
       transform="matrix(1,0,0,-1,0,594)"
       id="path18928" />
  </g>
  <g
     transform="translate(-32.753627,-54.397571)"
     clip-path="url(#clip39)"
     clip-rule="nonzero"
     id="g18934">
    <path
       style="fill:none;stroke:#000000;stroke-width:0.745;stroke-linecap:round;stroke-linejoin:round;stroke-miterlimit:10;stroke-opacity:1"
       d="m 150.46875,518.07422 -0.28125,1.72265 0.10156,2.47266"
       transform="matrix(1,0,0,-1,0,594)"
       id="path18932" />
  </g>
  <g
     transform="translate(-32.753627,-54.397571)"
     clip-path="url(#clip40)"
     clip-rule="nonzero"
     id="g18938">
    <path
       style="fill:none;stroke:#000000;stroke-width:0.745;stroke-linecap:round;stroke-linejoin:round;stroke-miterlimit:10;stroke-opacity:1"
       d="m 150.48828,526.94141 -0.14062,0.0898 v 0.66797 l 0.29687,1.89062"
       transform="matrix(1,0,0,-1,0,594)"
       id="path18936" />
  </g>
  <g
     transform="translate(-32.753627,-54.397571)"
     clip-path="url(#clip41)"
     clip-rule="nonzero"
     id="g18942">
    <path
       style="fill:none;stroke:#000000;stroke-width:0.745;stroke-linecap:round;stroke-linejoin:round;stroke-miterlimit:10;stroke-opacity:1"
       d="m 83.34375,483.3125 -0.1875,0.0508 0.08984,-0.0352 -0.101563,-0.0234 0.0625,0.0312 0.0078,-0.125 0.03125,0.10937 -0.117188,0.008 0.398438,0.043 0.04687,0.15625 0.0625,-0.10156 0.152344,0.0273 -0.0078,0.0703 0.492188,0.14453 3.757812,2.625 1.199219,0.48047 1.191406,0.80468 1.261719,0.6875 0.804687,0.64063 0.242188,0.0742 0.171875,0.23437 1.441406,0.81641 2.492188,1.82422 4.324221,2.375 2.52343,1.77734 1,0.40625 1.30469,0.92578 1.7461,0.76563 0.29296,0.29687 0.92579,0.54297 1.1914,0.48438 0.42578,0.42578 1.16407,0.7539 1.92968,0.9336 2.24219,1.38281 1.24219,0.625 0.82812,0.61719 0.89453,0.45703 0.58985,0.51172 0.65625,0.375 0.63672,0.55469 1.15234,0.75781 0.83203,0.35156 2.125,1.25781 0.32813,0.41407 1.28125,0.96093 0.30078,0.39453 1.43359,1.15235 0.64453,0.39453 0.88672,0.75 0.33594,0.12891 1.0664,0.73828 1.34375,1.21093 1.13282,0.63672 1.05078,0.86719 1.28906,0.82031 1.41016,1.10157 0.41797,0.18359 0.29296,0.34375 0.28516,0.12109 1.73828,1.52344 1.60938,1.19531 2.22656,1.85157 0.78906,0.90234 0.71094,0.48047 0.98437,1.12109 0.17969,0.0625 0.46094,0.60547 0.24609,0.12891 1.0586,1.125 0.33203,0.21093 0.40234,0.58594 1.3711,1.38281 0.32031,0.14063 0.3125,0.42578 0.28906,0.19531 0.28906,0.0859 -0.008,0.0703 0.0781,-0.10937"
       transform="matrix(1,0,0,-1,0,594)"
       id="path18940" />
  </g>
  <g
     transform="translate(-32.753627,-54.397571)"
     clip-path="url(#clip42)"
     clip-rule="nonzero"
     id="g18946">
    <path
       style="fill:none;stroke:#000000;stroke-width:0.745;stroke-linecap:round;stroke-linejoin:round;stroke-miterlimit:10;stroke-opacity:1"
       d="m 83.117188,479.40234 -0.08203,0.0937 -0.05859,-0.0859 0.09766,-0.043 -0.09375,0.0664 0.05859,0.0586 0.300781,-2.23828 0.117187,-2.13282"
       transform="matrix(1,0,0,-1,0,594)"
       id="path18944" />
  </g>
  <g
     transform="translate(-32.753627,-54.397571)"
     clip-path="url(#clip43)"
     clip-rule="nonzero"
     id="g18950">
    <path
       style="fill:none;stroke:#000000;stroke-width:0.745;stroke-linecap:round;stroke-linejoin:round;stroke-miterlimit:10;stroke-opacity:1"
       d="m 84.222656,470.33984 -0.0625,-1.46484 0.277344,-2.80078"
       transform="matrix(1,0,0,-1,0,594)"
       id="path18948" />
  </g>
  <g
     transform="translate(-32.753627,-54.397571)"
     clip-path="url(#clip44)"
     clip-rule="nonzero"
     id="g18954">
    <path
       style="fill:none;stroke:#000000;stroke-width:0.745;stroke-linecap:round;stroke-linejoin:round;stroke-miterlimit:10;stroke-opacity:1"
       d="m 82.933594,469.08984 -0.101563,0.0234 0.0039,0.23047 -0.07031,-0.0352 0.179688,0.0547 0.0039,0.16797 0.01563,-0.0937"
       transform="matrix(1,0,0,-1,0,594)"
       id="path18952" />
  </g>
  <g
     transform="translate(-32.753627,-54.397571)"
     clip-path="url(#clip45)"
     clip-rule="nonzero"
     id="g18958">
    <path
       style="fill:none;stroke:#000000;stroke-width:0.745;stroke-linecap:round;stroke-linejoin:round;stroke-miterlimit:10;stroke-opacity:1"
       d="m 66.273438,483.86328 -0.02734,-0.0977 -0.07422,0.0977 0.04687,0.10938 0.05078,-0.14454 0.03125,0.10547 0.136719,-0.0937 0.597656,0.082 0.328125,-0.11718 3.222657,0.10937"
       transform="matrix(1,0,0,-1,0,594)"
       id="path18956" />
  </g>
  <g
     transform="translate(-32.753627,-54.397571)"
     clip-path="url(#clip46)"
     clip-rule="nonzero"
     id="g18962">
    <path
       style="fill:none;stroke:#000000;stroke-width:0.745;stroke-linecap:round;stroke-linejoin:round;stroke-miterlimit:10;stroke-opacity:1"
       d="m 75.214844,484.47656 1.015625,-0.375 0.316406,0.0586 1.171875,-0.0859 2.433594,-0.3125"
       transform="matrix(1,0,0,-1,0,594)"
       id="path18960" />
  </g>
</svg>
