<?xml version="1.0" encoding="UTF-8" standalone="no"?>
<svg
   xmlns:dc="http://purl.org/dc/elements/1.1/"
   xmlns:cc="http://creativecommons.org/ns#"
   xmlns:rdf="http://www.w3.org/1999/02/22-rdf-syntax-ns#"
   xmlns:svg="http://www.w3.org/2000/svg"
   xmlns="http://www.w3.org/2000/svg"
   xmlns:sodipodi="http://sodipodi.sourceforge.net/DTD/sodipodi-0.dtd"
   xmlns:inkscape="http://www.inkscape.org/namespaces/inkscape"
   inkscape:version="1.0 (4035a4fb49, 2020-05-01)"
   sodipodi:docname="1.4.1.svg"
   id="svg27472"
   version="1.2"
   viewBox="0 0 159.28604 148.63515"
   height="148.63515pt"
   width="159.28604pt">
  <metadata
     id="metadata27476">
    <rdf:RDF>
      <cc:Work
         rdf:about="">
        <dc:format>image/svg+xml</dc:format>
        <dc:type
           rdf:resource="http://purl.org/dc/dcmitype/StillImage" />
        <dc:title></dc:title>
      </cc:Work>
    </rdf:RDF>
  </metadata>
  <sodipodi:namedview
     inkscape:current-layer="svg27472"
     inkscape:window-maximized="1"
     inkscape:window-y="13"
     inkscape:window-x="1912"
     inkscape:cy="88.648213"
     inkscape:cx="271.93181"
     inkscape:zoom="1.0732323"
     showgrid="false"
     id="namedview27474"
     inkscape:window-height="987"
     inkscape:window-width="1680"
     inkscape:pageshadow="2"
     inkscape:pageopacity="0"
     guidetolerance="10"
     gridtolerance="10"
     objecttolerance="10"
     borderopacity="1"
     bordercolor="#666666"
     pagecolor="#ffffff" />
  <defs
     id="defs26193">
    <clipPath
       id="clip1">
      <path
         id="path25251"
         d="m 66,75.183594 h 1.996094 v 1.765625 H 66 Z m 0,0" />
    </clipPath>
    <clipPath
       id="clip2">
      <path
         id="path25254"
         d="M 63.484375,54.011719 H 66 V 114 h -2.515625 z m 0,0" />
    </clipPath>
    <clipPath
       id="clip3">
      <path
         id="path25257"
         d="m 72.496094,129.59766 h 3.199219 v 1.82031 h -3.199219 z m 0,0" />
    </clipPath>
    <clipPath
       id="clip4">
      <path
         id="path25260"
         d="m 83,128.48047 h 94 v 2.9414 H 83 Z m 0,0" />
    </clipPath>
    <clipPath
       id="clip5">
      <path
         id="path25263"
         d="m 178.05469,133 h 1.64062 v 1.60937 h -1.64062 z m 0,0" />
    </clipPath>
    <clipPath
       id="clip6">
      <path
         id="path25266"
         d="m 82,140.55078 h 5.882813 v 9.10547 H 82 Z m 0,0" />
    </clipPath>
    <clipPath
       id="clip7">
      <path
         id="path25269"
         d="M 106.07422,141.51562 H 108 v 8.01563 h -1.92578 z m 0,0" />
    </clipPath>
    <clipPath
       id="clip8">
      <path
         id="path25272"
         d="M 127.55859,141 H 134 v 9 h -6.44141 z m 0,0" />
    </clipPath>
    <clipPath
       id="clip9">
      <path
         id="path25275"
         d="M 146.19141,141 H 152 v 9.89453 h -5.80859 z m 0,0" />
    </clipPath>
    <clipPath
       id="clip10">
      <path
         id="path25278"
         d="M 92.03125,155.08203 H 100 V 157 h -7.96875 z m 0,0" />
    </clipPath>
    <clipPath
       id="clip11">
      <path
         id="path25281"
         d="m 99,161 h 1.60547 v 5.64844 H 99 Z m 0,0" />
    </clipPath>
    <clipPath
       id="clip12">
      <path
         id="path25284"
         d="m 100.11719,158.33594 h 1.59765 v 2.63281 h -1.59765 z m 0,0" />
    </clipPath>
    <clipPath
       id="clip13">
      <path
         id="path25287"
         d="m 102,162 h 6.47266 v 5.67578 H 102 Z m 0,0" />
    </clipPath>
    <clipPath
       id="clip14">
      <path
         id="path25290"
         d="m 109.24609,162.26172 h 5.31641 v 6.67578 h -5.31641 z m 0,0" />
    </clipPath>
    <clipPath
       id="clip15">
      <path
         id="path25293"
         d="m 117,157.54297 h 3.39063 v 11.24609 H 117 Z m 0,0" />
    </clipPath>
    <clipPath
       id="clip16">
      <path
         id="path25296"
         d="M 122.10938,160.06641 H 126 V 169 h -3.89062 z m 0,0" />
    </clipPath>
    <clipPath
       id="clip17">
      <path
         id="path25299"
         d="m 127.00781,158.37109 h 3.69531 V 171 h -3.69531 z m 0,0" />
    </clipPath>
    <clipPath
       id="clip18">
      <path
         id="path25302"
         d="M 33.101563,114.17578 H 44 V 116 H 33.101563 Z m 0,0" />
    </clipPath>
    <clipPath
       id="clip19">
      <path
         id="path25305"
         d="m 32.324219,110.60156 h 11.179687 v 5.05469 H 32.324219 Z m 0,0" />
    </clipPath>
    <clipPath
       id="clip20">
      <path
         id="path25308"
         d="M 36.019531,105 H 43 v 4.97656 h -6.980469 z m 0,0" />
    </clipPath>
    <clipPath
       id="clip21">
      <path
         id="path25311"
         d="M 37.003906,101.21875 H 44 v 3.67188 h -6.996094 z m 0,0" />
    </clipPath>
    <clipPath
       id="clip22">
      <path
         id="path25314"
         d="m 37.445313,97.039063 h 5.078125 V 100 h -5.078125 z m 0,0" />
    </clipPath>
    <clipPath
       id="clip23">
      <path
         id="path25317"
         d="m 37,92.507813 h 5 v 4.46875 h -5 z m 0,0" />
    </clipPath>
    <clipPath
       id="clip24">
      <path
         id="path25320"
         d="m 37,88 h 5.9375 v 4.722656 H 37 Z m 0,0" />
    </clipPath>
    <clipPath
       id="clip25">
      <path
         id="path25323"
         d="m 37,84.507813 h 6.894531 V 88.40625 H 37 Z m 0,0" />
    </clipPath>
    <clipPath
       id="clip26">
      <path
         id="path25326"
         d="m 62.203125,111 h 2.527344 v 20.41406 h -2.527344 z m 0,0" />
    </clipPath>
    <clipPath
       id="clip27">
      <path
         id="path25329"
         d="m 63,130 h 26.445313 v 2.39062 H 63 Z m 0,0" />
    </clipPath>
    <clipPath
       id="clip28">
      <path
         id="path25332"
         d="m 51.414063,106.00391 h 6.394531 v 9.72656 h -6.394531 z m 0,0" />
    </clipPath>
    <clipPath
       id="clip29">
      <path
         id="path25335"
         d="m 51,63.28125 h 5.492188 V 73 H 51 Z m 0,0" />
    </clipPath>
    <clipPath
       id="clip30">
      <path
         id="path25338"
         d="M 82.476563,110.27734 H 85 v 2.69141 h -2.523437 z m 0,0" />
    </clipPath>
    <clipPath
       id="clip31">
      <path
         id="path25341"
         d="M 65.066406,67 H 69 v 2 h -3.933594 z m 0,0" />
    </clipPath>
    <clipPath
       id="clip32">
      <path
         id="path25344"
         d="M 79.136719,66.179688 H 85 v 2.464843 h -5.863281 z m 0,0" />
    </clipPath>
    <clipPath
       id="clip33">
      <path
         id="path25347"
         d="m 97,66 h 6.55078 v 1.765625 H 97 Z m 0,0" />
    </clipPath>
    <clipPath
       id="clip34">
      <path
         id="path25350"
         d="m 118.375,65 h 5.49609 v 1.523438 H 118.375 Z m 0,0" />
    </clipPath>
    <clipPath
       id="clip35">
      <path
         id="path25353"
         d="M 140.23828,65 H 145.5 v 2 h -5.26172 z m 0,0" />
    </clipPath>
    <clipPath
       id="clip36">
      <path
         id="path25356"
         d="m 148.56641,127.12891 h 2.07031 v 4.79687 h -2.07031 z m 0,0" />
    </clipPath>
    <clipPath
       id="clip37">
      <path
         id="path25359"
         d="M 149.1875,100.41406 H 151 v 5.13282 h -1.8125 z m 0,0" />
    </clipPath>
    <clipPath
       id="clip38">
      <path
         id="path25362"
         d="m 149.51562,87.351563 h 2.23829 V 91.625 h -2.23829 z m 0,0" />
    </clipPath>
    <clipPath
       id="clip39">
      <path
         id="path25365"
         d="M 149.44531,71 H 151 v 5.667969 h -1.55469 z m 0,0" />
    </clipPath>
    <clipPath
       id="clip40">
      <path
         id="path25368"
         d="m 149.60156,64 h 1.78906 v 3.804688 h -1.78906 z m 0,0" />
    </clipPath>
    <clipPath
       id="clip41">
      <path
         id="path25371"
         d="M 82.382813,62.507813 H 152.5 V 111.53516 H 82.382813 Z m 0,0" />
    </clipPath>
    <clipPath
       id="clip42">
      <path
         id="path25374"
         d="M 82.234375,114 H 84 v 5.62109 h -1.765625 z m 0,0" />
    </clipPath>
    <clipPath
       id="clip43">
      <path
         id="path25377"
         d="M 83.417969,123 H 85 v 5.67187 h -1.582031 z m 0,0" />
    </clipPath>
    <clipPath
       id="clip44">
      <path
         id="path25380"
         d="m 82.019531,124 h 1.691407 v 1.65625 h -1.691407 z m 0,0" />
    </clipPath>
    <clipPath
       id="clip45">
      <path
         id="path25383"
         d="M 65.425781,109.28125 H 71 v 1.69922 h -5.574219 z m 0,0" />
    </clipPath>
    <clipPath
       id="clip46">
      <path
         id="path25386"
         d="m 74.472656,109 h 6.421875 v 1.98438 h -6.421875 z m 0,0" />
    </clipPath>
    <clipPath
       id="clip47">
      <path
         id="path25389"
         d="m 83,181 h 1.980469 v 11 H 83 Z m 0,0" />
    </clipPath>
    <clipPath
       id="clip48">
      <path
         id="path25392"
         d="M 86.433594,188.52734 H 89 V 192 h -2.566406 z m 0,0" />
    </clipPath>
    <clipPath
       id="clip49">
      <path
         id="path25395"
         d="M 93.347656,181.22656 H 97.59375 V 192 h -4.246094 z m 0,0" />
    </clipPath>
    <clipPath
       id="clip50">
      <path
         id="path25398"
         d="m 99,188.53516 h 2.89063 V 192 H 99 Z m 0,0" />
    </clipPath>
    <clipPath
       id="clip51">
      <path
         id="path25401"
         d="M 106.14453,183 H 109 v 12.4375 h -2.85547 z m 0,0" />
    </clipPath>
    <clipPath
       id="clip52">
      <path
         id="path25404"
         d="m 259,52.523438 h 1.38281 V 64.816406 H 259 Z m 0,0" />
    </clipPath>
    <clipPath
       id="clip53">
      <path
         id="path25407"
         d="m 260,80.351563 h 1.83203 V 82 H 260 Z m 0,0" />
    </clipPath>
    <clipPath
       id="clip54">
      <path
         id="path25410"
         d="m 295.02344,80.40625 h 32.9414 v 2.511719 h -32.9414 z m 0,0" />
    </clipPath>
    <clipPath
       id="clip55">
      <path
         id="path25413"
         d="M 344.26953,81.265625 H 347 v 1.699219 h -2.73047 z m 0,0" />
    </clipPath>
    <clipPath
       id="clip56">
      <path
         id="path25416"
         d="m 259.46875,79.203125 h 2.29297 v 3.335938 h -2.29297 z m 0,0" />
    </clipPath>
    <clipPath
       id="clip57">
      <path
         id="path25419"
         d="m 258,93 h 1.97656 v 11 H 258 Z m 0,0" />
    </clipPath>
    <clipPath
       id="clip58">
      <path
         id="path25422"
         d="m 259,118.46875 h 1.60937 V 133 H 259 Z m 0,0" />
    </clipPath>
    <clipPath
       id="clip59">
      <path
         id="path25425"
         d="m 258,130.11719 h 94.66016 v 3.60937 H 258 Z m 0,0" />
    </clipPath>
    <clipPath
       id="clip60">
      <path
         id="path25428"
         d="M 254.41016,140.41797 H 256 V 150 h -1.58984 z m 0,0" />
    </clipPath>
    <clipPath
       id="clip61">
      <path
         id="path25431"
         d="M 257.37109,141.51172 H 262 v 8.42969 h -4.62891 z m 0,0" />
    </clipPath>
    <clipPath
       id="clip62">
      <path
         id="path25434"
         d="m 262.21875,138.61328 h 3.63672 v 5.08984 h -3.63672 z m 0,0" />
    </clipPath>
    <clipPath
       id="clip63">
      <path
         id="path25437"
         d="m 293,140 h 1.37891 v 8.5625 H 293 Z m 0,0" />
    </clipPath>
    <clipPath
       id="clip64">
      <path
         id="path25440"
         d="m 296.51953,139.16016 h 4.3125 v 8.72265 h -4.3125 z m 0,0" />
    </clipPath>
    <clipPath
       id="clip65">
      <path
         id="path25443"
         d="m 302.20703,137 h 1.72656 v 4.83203 h -1.72656 z m 0,0" />
    </clipPath>
    <clipPath
       id="clip66">
      <path
         id="path25446"
         d="M 326.05859,139 H 328 v 8 h -1.94141 z m 0,0" />
    </clipPath>
    <clipPath
       id="clip67">
      <path
         id="path25449"
         d="M 330.46484,139.53906 H 335 V 148 h -4.53516 z m 0,0" />
    </clipPath>
    <clipPath
       id="clip68">
      <path
         id="path25452"
         d="m 336.38281,137.59766 h 6 v 5.07031 h -6 z m 0,0" />
    </clipPath>
    <clipPath
       id="clip69">
      <path
         id="path25455"
         d="m 228.10937,130 h 10.42579 v 2 h -10.42579 z m 0,0" />
    </clipPath>
    <clipPath
       id="clip70">
      <path
         id="path25458"
         d="M 226.18359,126.02734 H 235 V 132 h -8.81641 z m 0,0" />
    </clipPath>
    <clipPath
       id="clip71">
      <path
         id="path25461"
         d="m 227,122.17578 h 11.87109 v 4.75781 H 227 Z m 0,0" />
    </clipPath>
    <clipPath
       id="clip72">
      <path
         id="path25464"
         d="M 232.41406,117 H 238 v 4.85547 h -5.58594 z m 0,0" />
    </clipPath>
    <clipPath
       id="clip73">
      <path
         id="path25467"
         d="m 231,114.40234 h 7.96875 v 3.58985 H 231 Z m 0,0" />
    </clipPath>
    <clipPath
       id="clip74">
      <path
         id="path25470"
         d="m 231.11719,110.03906 h 7.70703 V 114.5 h -7.70703 z m 0,0" />
    </clipPath>
    <clipPath
       id="clip75">
      <path
         id="path25473"
         d="m 227,103.53125 h 11.76562 V 107 H 227 Z m 0,0" />
    </clipPath>
    <clipPath
       id="clip76">
      <path
         id="path25476"
         d="M 226.5625,100 H 232 v 4 h -5.4375 z m 0,0" />
    </clipPath>
    <clipPath
       id="clip77">
      <path
         id="path25479"
         d="m 226,97 h 13 v 3.90625 h -13 z m 0,0" />
    </clipPath>
    <clipPath
       id="clip78">
      <path
         id="path25482"
         d="m 223.51562,50 h 8.16407 v 2.601563 h -8.16407 z m 0,0" />
    </clipPath>
    <clipPath
       id="clip79">
      <path
         id="path25485"
         d="m 233,49.527344 h 2.63672 V 52.375 H 233 Z m 0,0" />
    </clipPath>
    <clipPath
       id="clip80">
      <path
         id="path25488"
         d="m 224,45.152344 h 10 v 4.695312 h -10 z m 0,0" />
    </clipPath>
    <clipPath
       id="clip81">
      <path
         id="path25491"
         d="m 225.27344,42 h 10.53515 v 1.894531 h -10.53515 z m 0,0" />
    </clipPath>
    <clipPath
       id="clip82">
      <path
         id="path25494"
         d="m 226,39 h 10 v 4.773438 h -10 z m 0,0" />
    </clipPath>
    <clipPath
       id="clip83">
      <path
         id="path25497"
         d="m 223,34.507813 h 15.41016 V 38 H 223 Z m 0,0" />
    </clipPath>
    <clipPath
       id="clip84">
      <path
         id="path25500"
         d="m 297,79.101563 h 1.73047 v 3.410156 H 297 Z m 0,0" />
    </clipPath>
    <clipPath
       id="clip85">
      <path
         id="path25503"
         d="m 296.44531,89.066406 h 1.96094 V 93 h -1.96094 z m 0,0" />
    </clipPath>
    <clipPath
       id="clip86">
      <path
         id="path25506"
         d="m 297,97.550781 h 1.78516 v 2 H 297 Z m 0,0" />
    </clipPath>
    <clipPath
       id="clip87">
      <path
         id="path25509"
         d="m 296,121.17969 h 1.83594 V 127 H 296 Z m 0,0" />
    </clipPath>
    <clipPath
       id="clip88">
      <path
         id="path25512"
         d="m 296,130.47266 h 1.59375 V 133 H 296 Z m 0,0" />
    </clipPath>
    <clipPath
       id="clip89">
      <path
         id="path25515"
         d="m 257.42187,56.058594 h 5.07032 v 2.648437 h -5.07032 z m 0,0" />
    </clipPath>
    <clipPath
       id="clip90">
      <path
         id="path25518"
         d="m 331,87.457031 h 1.75391 V 94 H 331 Z m 0,0" />
    </clipPath>
    <clipPath
       id="clip91">
      <path
         id="path25521"
         d="m 329.57812,129.30078 h 1.87891 v 7.10547 h -1.87891 z m 0,0" />
    </clipPath>
    <clipPath
       id="clip92">
      <path
         id="path25524"
         d="m 269.375,156.60937 h 6.08984 v 2.34766 H 269.375 Z m 0,0" />
    </clipPath>
    <clipPath
       id="clip93">
      <path
         id="path25527"
         d="m 269.16016,157.16406 h 2.33593 v 11.42578 h -2.33593 z m 0,0" />
    </clipPath>
    <clipPath
       id="clip94">
      <path
         id="path25530"
         d="m 270.04687,162.25781 h 5.35938 V 164 h -5.35938 z m 0,0" />
    </clipPath>
    <clipPath
       id="clip95">
      <path
         id="path25533"
         d="m 276.57422,162.10937 h 4.0625 v 8.3086 h -4.0625 z m 0,0" />
    </clipPath>
    <clipPath
       id="clip96">
      <path
         id="path25536"
         d="m 279.59766,163 h 4.3789 v 7.60937 h -4.3789 z m 0,0" />
    </clipPath>
    <clipPath
       id="clip97">
      <path
         id="path25539"
         d="m 285,163.41406 h 6.57422 v 14.27735 H 285 Z m 0,0" />
    </clipPath>
    <clipPath
       id="clip98">
      <path
         id="path25542"
         d="m 290,164.07422 h 4.84766 v 7.48047 H 290 Z m 0,0" />
    </clipPath>
    <clipPath
       id="clip99">
      <path
         id="path25545"
         d="m 294,163.25781 h 3.88281 V 172 H 294 Z m 0,0" />
    </clipPath>
    <clipPath
       id="clip100">
      <path
         id="path25548"
         d="m 298,165 h 4.75 v 7 H 298 Z m 0,0" />
    </clipPath>
    <clipPath
       id="clip101">
      <path
         id="path25551"
         d="m 302.06641,165.42969 h 4.35156 V 172 h -4.35156 z m 0,0" />
    </clipPath>
    <clipPath
       id="clip102">
      <path
         id="path25554"
         d="m 306.01562,165.51953 h 5.3711 V 170 h -5.3711 z m 0,0" />
    </clipPath>
    <clipPath
       id="clip103">
      <path
         id="path25557"
         d="m 307,165.08984 h 6.55469 v 12.53125 H 307 Z m 0,0" />
    </clipPath>
    <clipPath
       id="clip104">
      <path
         id="path25560"
         d="M 322.07812,157 H 326 v 13.40234 h -3.92188 z m 0,0" />
    </clipPath>
    <clipPath
       id="clip105">
      <path
         id="path25563"
         d="m 327.60547,161 h 2.85156 v 8.95703 h -2.85156 z m 0,0" />
    </clipPath>
    <clipPath
       id="clip106">
      <path
         id="path25566"
         d="m 331,163.54687 h 6 v 6.00782 h -6 z m 0,0" />
    </clipPath>
    <clipPath
       id="clip107">
      <path
         id="path25569"
         d="M 335.23437,159 H 341 v 11.50391 h -5.76563 z m 0,0" />
    </clipPath>
    <clipPath
       id="clip108">
      <path
         id="path25572"
         d="m 341,157.51562 h 8 v 13.8711 h -8 z m 0,0" />
    </clipPath>
    <clipPath
       id="clip109">
      <path
         id="path25575"
         d="m 347.125,163.49609 h 4.73828 v 7.97266 H 347.125 Z m 0,0" />
    </clipPath>
    <clipPath
       id="clip110">
      <path
         id="path25578"
         d="m 354,156 h 2.42969 v 14.67578 H 354 Z m 0,0" />
    </clipPath>
    <clipPath
       id="clip111">
      <path
         id="path25581"
         d="m 238.60937,58 h 4.125 v 1.8125 h -4.125 z m 0,0" />
    </clipPath>
    <clipPath
       id="clip112">
      <path
         id="path25584"
         d="m 242.44922,54.066406 h 4.22265 v 8.335938 h -4.22265 z m 0,0" />
    </clipPath>
    <clipPath
       id="clip113">
      <path
         id="path25587"
         d="m 247.46484,55.535156 h 3.34375 V 61 h -3.34375 z m 0,0" />
    </clipPath>
    <clipPath
       id="clip114">
      <path
         id="path25590"
         d="m 238.17187,80 h 3.76563 v 2 h -3.76563 z m 0,0" />
    </clipPath>
    <clipPath
       id="clip115">
      <path
         id="path25593"
         d="m 243.14844,76.371094 h 5.46875 V 81 h -5.46875 z m 0,0" />
    </clipPath>
    <clipPath
       id="clip116">
      <path
         id="path25596"
         d="m 246,77 h 1.84766 v 7.960938 H 246 Z m 0,0" />
    </clipPath>
    <clipPath
       id="clip117">
      <path
         id="path25599"
         d="m 249,77.53125 h 4 v 7.335938 h -4 z m 0,0" />
    </clipPath>
    <clipPath
       id="clip118">
      <path
         id="path25602"
         d="m 296,61.234375 h 1.57422 v 3.417969 H 296 Z m 0,0" />
    </clipPath>
    <clipPath
       id="clip119">
      <path
         id="path25605"
         d="m 297,76.398438 h 1.60937 v 4.421875 H 297 Z m 0,0" />
    </clipPath>
    <clipPath
       id="clip120">
      <path
         id="path25608"
         d="m 258,64.480469 h 1.81641 V 69 H 258 Z m 0,0" />
    </clipPath>
    <clipPath
       id="clip121">
      <path
         id="path25611"
         d="m 259,63.226563 h 2.97266 v 21.75 H 259 Z m 0,0" />
    </clipPath>
    <clipPath
       id="clip122">
      <path
         id="path25614"
         d="m 259,82 h 16 v 2.453125 h -16 z m 0,0" />
    </clipPath>
    <clipPath
       id="clip123">
      <path
         id="path25617"
         d="m 272.09375,81.347656 h 4.66406 v 2.296875 h -4.66406 z m 0,0" />
    </clipPath>
    <clipPath
       id="clip124">
      <path
         id="path25620"
         d="m 274.49219,81.003906 h 25.32812 v 3.734375 h -25.32812 z m 0,0" />
    </clipPath>
    <clipPath
       id="clip125">
      <path
         id="path25623"
         d="M 296.60937,69.175781 H 298 V 73 h -1.39063 z m 0,0" />
    </clipPath>
    <clipPath
       id="clip126">
      <path
         id="path25626"
         d="m 325.35937,82.21875 h 4.1836 v 2.261719 h -4.1836 z m 0,0" />
    </clipPath>
    <clipPath
       id="clip127">
      <path
         id="path25629"
         d="m 325,81.265625 h 22 v 3.25 h -22 z m 0,0" />
    </clipPath>
    <clipPath
       id="clip128">
      <path
         id="path25632"
         d="m 297.27734,60 h 33.6836 v 22 h -33.6836 z m 0,0" />
    </clipPath>
    <clipPath
       id="clip129">
      <path
         id="path25635"
         d="m 328.49609,79.359375 h 4.88672 v 5.457031 h -4.88672 z m 0,0" />
    </clipPath>
    <clipPath
       id="clip130">
      <path
         id="path25638"
         d="m 257.09766,34.101563 h 1.89453 V 36 h -1.89453 z m 0,0" />
    </clipPath>
    <clipPath
       id="clip131">
      <path
         id="path25641"
         d="m 257.52344,34.039063 h 3.14453 v 27.699218 h -3.14453 z m 0,0" />
    </clipPath>
    <clipPath
       id="clip132">
      <path
         id="path25644"
         d="m 243.5,31 h 5.48828 v 7.820313 H 243.5 Z m 0,0" />
    </clipPath>
    <clipPath
       id="clip133">
      <path
         id="path25647"
         d="M 256.50391,32.214844 H 258 v 4.359375 h -1.49609 z m 0,0" />
    </clipPath>
    <clipPath
       id="clip134">
      <path
         id="path25650"
         d="m 257.20703,32.5625 h 75.77344 v 51.03125 h -75.77344 z m 0,0" />
    </clipPath>
    <clipPath
       id="clip135">
      <path
         id="path25653"
         d="m 295.31641,61.464844 h 2.4375 v 5.027344 h -2.4375 z m 0,0" />
    </clipPath>
    <clipPath
       id="clip136">
      <path
         id="path25656"
         d="m 259,102 h 1 v 1.41797 h -1 z m 0,0" />
    </clipPath>
    <clipPath
       id="clip137">
      <path
         id="path25659"
         d="M 258.53125,102 H 260 v 1.67188 h -1.46875 z m 0,0" />
    </clipPath>
    <clipPath
       id="clip138">
      <path
         id="path25662"
         d="m 258.57812,102 h 2.05079 v 5.82813 h -2.05079 z m 0,0" />
    </clipPath>
    <clipPath
       id="clip139">
      <path
         id="path25665"
         d="m 260.53516,107.21484 h 32.19531 v 2.73829 h -32.19531 z m 0,0" />
    </clipPath>
    <clipPath
       id="clip140">
      <path
         id="path25668"
         d="m 291.36719,109.38672 h 7.57031 v 2.25781 h -7.57031 z m 0,0" />
    </clipPath>
    <clipPath
       id="clip141">
      <path
         id="path25671"
         d="m 290,107 h 57.48828 v 3.77344 H 290 Z m 0,0" />
    </clipPath>
    <clipPath
       id="clip142">
      <path
         id="path25674"
         d="M 238.35156,107.36328 H 242 v 2.47266 h -3.64844 z m 0,0" />
    </clipPath>
    <clipPath
       id="clip143">
      <path
         id="path25677"
         d="m 243,104.45313 h 4.53516 V 113 H 243 Z m 0,0" />
    </clipPath>
    <clipPath
       id="clip144">
      <path
         id="path25680"
         d="m 247.38672,104.58984 h 4.33203 V 112 h -4.33203 z m 0,0" />
    </clipPath>
    <clipPath
       id="clip145">
      <path
         id="path25683"
         d="M 258.36328,105.33594 H 260 V 107 h -1.63672 z m 0,0" />
    </clipPath>
    <clipPath
       id="clip146">
      <path
         id="path25686"
         d="m 259,105.05078 h 2 v 18.4336 h -2 z m 0,0" />
    </clipPath>
    <clipPath
       id="clip147">
      <path
         id="path25689"
         d="m 330,98.199219 h 1.44922 V 105 H 330 Z m 0,0" />
    </clipPath>
    <clipPath
       id="clip148">
      <path
         id="path25692"
         d="M 330.15625,107 H 332 v 5.82422 h -1.84375 z m 0,0" />
    </clipPath>
    <clipPath
       id="clip149">
      <path
         id="path25695"
         d="m 330,119 h 1.71875 v 6.53516 H 330 Z m 0,0" />
    </clipPath>
    <clipPath
       id="clip150">
      <path
         id="path25698"
         d="m 296,103 h 1.94141 v 5.63672 H 296 Z m 0,0" />
    </clipPath>
    <clipPath
       id="clip151">
      <path
         id="path25701"
         d="M 296.50391,113.29297 H 298 V 120 h -1.49609 z m 0,0" />
    </clipPath>
    <clipPath
       id="clip152">
      <path
         id="path25704"
         d="m 231,52 h 1.96875 v 1.808594 H 231 Z m 0,0" />
    </clipPath>
    <clipPath
       id="clip153">
      <path
         id="path25707"
         d="m 231,51.4375 h 1 v 1.492188 h -1 z m 0,0" />
    </clipPath>
    <clipPath
       id="clip154">
      <path
         id="path25710"
         d="m 230.30469,50 h 5.5664 v 2.871094 h -5.5664 z m 0,0" />
    </clipPath>
    <clipPath
       id="clip155">
      <path
         id="path25713"
         d="m 226,74 h 8.87109 v 6 H 226 Z m 0,0" />
    </clipPath>
    <clipPath
       id="clip156">
      <path
         id="path25716"
         d="M 230.54297,73 H 232 v 4.71875 h -1.45703 z m 0,0" />
    </clipPath>
    <clipPath
       id="clip157">
      <path
         id="path25719"
         d="m 230.27344,66.371094 h 5.32031 v 6.601562 h -5.32031 z m 0,0" />
    </clipPath>
    <clipPath
       id="clip158">
      <path
         id="path25722"
         d="M 230.43359,64.101563 H 235 V 66 h -4.56641 z m 0,0" />
    </clipPath>
    <clipPath
       id="clip159">
      <path
         id="path25725"
         d="m 228,63.339844 h 1.81641 v 2.289062 H 228 Z m 0,0" />
    </clipPath>
    <clipPath
       id="clip160">
      <path
         id="path25728"
         d="m 230,59.375 h 5.71484 V 63 H 230 Z m 0,0" />
    </clipPath>
    <clipPath
       id="clip161">
      <path
         id="path25731"
         d="m 261,194 h 2.89062 v 13 H 261 Z m 0,0" />
    </clipPath>
    <clipPath
       id="clip162">
      <path
         id="path25734"
         d="m 266.16797,202 h 3.73047 v 4 h -3.73047 z m 0,0" />
    </clipPath>
    <clipPath
       id="clip163">
      <path
         id="path25737"
         d="m 274,193 h 4.97656 v 13.80859 H 274 Z m 0,0" />
    </clipPath>
    <clipPath
       id="clip164">
      <path
         id="path25740"
         d="m 281.39062,204 h 3.08204 v 4 h -3.08204 z m 0,0" />
    </clipPath>
    <clipPath
       id="clip165">
      <path
         id="path25743"
         d="m 292,196 h 8.66016 v 11.53906 H 292 Z m 0,0" />
    </clipPath>
    <clipPath
       id="clip166">
      <path
         id="path25746"
         d="m 63,231.07812 h 3 V 331 h -3 z m 0,0" />
    </clipPath>
    <clipPath
       id="clip167">
      <path
         id="path25749"
         d="M 64.484375,329 H 178.46094 v 4.38672 H 64.484375 Z m 0,0" />
    </clipPath>
    <clipPath
       id="clip168">
      <path
         id="path25752"
         d="M 85.25,344.33984 H 92 v 10.57813 h -6.75 z m 0,0" />
    </clipPath>
    <clipPath
       id="clip169">
      <path
         id="path25755"
         d="m 85,349.33203 h 3 V 354 h -3 z m 0,0" />
    </clipPath>
    <clipPath
       id="clip170">
      <path
         id="path25758"
         d="M 112.14063,344.46094 H 114 V 355 h -1.85937 z m 0,0" />
    </clipPath>
    <clipPath
       id="clip171">
      <path
         id="path25761"
         d="m 139,344.44531 h 6.86719 V 355 H 139 Z m 0,0" />
    </clipPath>
    <clipPath
       id="clip172">
      <path
         id="path25764"
         d="m 168.16797,345 h 5.74219 v 10 h -5.74219 z m 0,0" />
    </clipPath>
    <clipPath
       id="clip173">
      <path
         id="path25767"
         d="m 49,302 h 1.898438 v 9.41406 H 49 Z m 0,0" />
    </clipPath>
    <clipPath
       id="clip174">
      <path
         id="path25770"
         d="m 62.433594,305.42969 h 4.027344 V 307 h -4.027344 z m 0,0" />
    </clipPath>
    <clipPath
       id="clip175">
      <path
         id="path25773"
         d="M 72.121094,305 H 77 v 1.85937 h -4.878906 z m 0,0" />
    </clipPath>
    <clipPath
       id="clip176">
      <path
         id="path25776"
         d="m 80,304.27344 h 4.53125 V 306 H 80 Z m 0,0" />
    </clipPath>
    <clipPath
       id="clip177">
      <path
         id="path25779"
         d="M 86.148438,306.62109 H 88 v 4.09766 h -1.851562 z m 0,0" />
    </clipPath>
    <clipPath
       id="clip178">
      <path
         id="path25782"
         d="M 87.21875,316 H 89 v 3.60937 h -1.78125 z m 0,0" />
    </clipPath>
    <clipPath
       id="clip179">
      <path
         id="path25785"
         d="m 87.578125,323.41797 h 1.875 v 6.95703 h -1.875 z m 0,0" />
    </clipPath>
    <clipPath
       id="clip180">
      <path
         id="path25788"
         d="m 87,230.14062 h 90.92578 v 76.64063 H 87 Z m 0,0" />
    </clipPath>
    <clipPath
       id="clip181">
      <path
         id="path25791"
         d="m 169,237.36719 h 1.64844 v 2.01953 H 169 Z m 0,0" />
    </clipPath>
    <clipPath
       id="clip182">
      <path
         id="path25794"
         d="m 169.00781,244 h 1.75391 v 4 h -1.75391 z m 0,0" />
    </clipPath>
    <clipPath
       id="clip183">
      <path
         id="path25797"
         d="M 168.62109,254.51172 H 170 V 261 h -1.37891 z m 0,0" />
    </clipPath>
    <clipPath
       id="clip184">
      <path
         id="path25800"
         d="M 169.46094,266.55078 H 171 v 6.88672 h -1.53906 z m 0,0" />
    </clipPath>
    <clipPath
       id="clip185">
      <path
         id="path25803"
         d="m 169,285 h 1.83594 v 7 H 169 Z m 0,0" />
    </clipPath>
    <clipPath
       id="clip186">
      <path
         id="path25806"
         d="M 169.21875,305 H 171 v 7.89062 h -1.78125 z m 0,0" />
    </clipPath>
    <clipPath
       id="clip187">
      <path
         id="path25809"
         d="m 170,324 h 1.71484 v 8 H 170 Z m 0,0" />
    </clipPath>
    <clipPath
       id="clip188">
      <path
         id="path25812"
         d="m 65,240 h 4.871094 v 2.87109 H 65 Z m 0,0" />
    </clipPath>
    <clipPath
       id="clip189">
      <path
         id="path25815"
         d="m 80.027344,240.13672 h 8.882812 V 242 h -8.882812 z m 0,0" />
    </clipPath>
    <clipPath
       id="clip190">
      <path
         id="path25818"
         d="m 105.22266,241 h 6.5664 v 2 h -6.5664 z m 0,0" />
    </clipPath>
    <clipPath
       id="clip191">
      <path
         id="path25821"
         d="m 129,240 h 8 v 1.72266 h -8 z m 0,0" />
    </clipPath>
    <clipPath
       id="clip192">
      <path
         id="path25824"
         d="M 28.277344,236.61719 H 34 v 11.08203 h -5.722656 z m 0,0" />
    </clipPath>
    <clipPath
       id="clip193">
      <path
         id="path25827"
         d="m 34.160156,241.44141 h 7.8125 V 247 h -7.8125 z m 0,0" />
    </clipPath>
    <clipPath
       id="clip194">
      <path
         id="path25830"
         d="M 41.160156,245.37891 H 44.71875 V 250 h -3.558594 z m 0,0" />
    </clipPath>
    <clipPath
       id="clip195">
      <path
         id="path25833"
         d="m 46,241.21875 h 3.984375 V 243 H 46 Z m 0,0" />
    </clipPath>
    <clipPath
       id="clip196">
      <path
         id="path25836"
         d="m 47.316406,239 h 2.398438 v 7.80078 h -2.398438 z m 0,0" />
    </clipPath>
    <clipPath
       id="clip197">
      <path
         id="path25839"
         d="M 51.589844,238.41016 H 53 v 8.5039 h -1.410156 z m 0,0" />
    </clipPath>
    <clipPath
       id="clip198">
      <path
         id="path25842"
         d="m 96.605469,362 h 7.863281 v 2 h -7.863281 z m 0,0" />
    </clipPath>
    <clipPath
       id="clip199">
      <path
         id="path25845"
         d="m 100.18359,362.19531 h 2.25 V 374 h -2.25 z m 0,0" />
    </clipPath>
    <clipPath
       id="clip200">
      <path
         id="path25848"
         d="m 104.03906,369.19531 h 1.69532 V 374 h -1.69532 z m 0,0" />
    </clipPath>
    <clipPath
       id="clip201">
      <path
         id="path25851"
         d="M 104.61328,366 H 106 v 1.58594 h -1.38672 z m 0,0" />
    </clipPath>
    <clipPath
       id="clip202">
      <path
         id="path25854"
         d="m 106.14453,368.61328 h 7.64453 v 6.98438 h -7.64453 z m 0,0" />
    </clipPath>
    <clipPath
       id="clip203">
      <path
         id="path25857"
         d="m 115,369 h 5 v 7.71484 h -5 z m 0,0" />
    </clipPath>
    <clipPath
       id="clip204">
      <path
         id="path25860"
         d="M 124.27344,363.07812 H 128 v 15.57032 h -3.72656 z m 0,0" />
    </clipPath>
    <clipPath
       id="clip205">
      <path
         id="path25863"
         d="M 129.57812,368 H 133 v 8 h -3.42188 z m 0,0" />
    </clipPath>
    <clipPath
       id="clip206">
      <path
         id="path25866"
         d="M 136.46484,364 H 141 v 15.57031 h -4.53516 z m 0,0" />
    </clipPath>
    <clipPath
       id="clip207">
      <path
         id="path25869"
         d="M 20.246094,303.16016 H 30 v 2.27734 h -9.753906 z m 0,0" />
    </clipPath>
    <clipPath
       id="clip208">
      <path
         id="path25872"
         d="m 18.429688,300.10547 h 11.359375 v 5.46875 H 18.429688 Z m 0,0" />
    </clipPath>
    <clipPath
       id="clip209">
      <path
         id="path25875"
         d="m 24.242188,296.51562 h 6.371093 V 300 h -6.371093 z m 0,0" />
    </clipPath>
    <clipPath
       id="clip210">
      <path
         id="path25878"
         d="m 25.238281,292 h 7.394532 v 3.70703 h -7.394532 z m 0,0" />
    </clipPath>
    <clipPath
       id="clip211">
      <path
         id="path25881"
         d="m 26.066406,288.13672 h 10.484375 v 2.63672 H 26.066406 Z m 0,0" />
    </clipPath>
    <clipPath
       id="clip212">
      <path
         id="path25884"
         d="m 25,286 h 5.789063 v 4 H 25 Z m 0,0" />
    </clipPath>
    <clipPath
       id="clip213">
      <path
         id="path25887"
         d="m 25.335938,281.36719 h 6.488281 v 4.52343 h -6.488281 z m 0,0" />
    </clipPath>
    <clipPath
       id="clip214">
      <path
         id="path25890"
         d="m 26,276.14453 h 5.976563 v 4.50391 H 26 Z m 0,0" />
    </clipPath>
    <clipPath
       id="clip215">
      <path
         id="path25893"
         d="m 25,271.00391 h 7 V 275 h -7 z m 0,0" />
    </clipPath>
    <clipPath
       id="clip216">
      <path
         id="path25896"
         d="m 26.578125,266.40625 h 7.230469 v 5.49609 h -7.230469 z m 0,0" />
    </clipPath>
    <clipPath
       id="clip217">
      <path
         id="path25899"
         d="m 240,231.36328 h 2.96094 V 279 H 240 Z m 0,0" />
    </clipPath>
    <clipPath
       id="clip218">
      <path
         id="path25902"
         d="m 240.02344,277 h 12.41015 v 3 h -12.41015 z m 0,0" />
    </clipPath>
    <clipPath
       id="clip219">
      <path
         id="path25905"
         d="m 258,278 h 39.58594 v 2.51953 H 258 Z m 0,0" />
    </clipPath>
    <clipPath
       id="clip220">
      <path
         id="path25908"
         d="m 330.33594,279 h 30.33984 v 1.83984 h -30.33984 z m 0,0" />
    </clipPath>
    <clipPath
       id="clip221">
      <path
         id="path25911"
         d="M 240.35937,292 H 243 v 38.99219 h -2.64063 z m 0,0" />
    </clipPath>
    <clipPath
       id="clip222">
      <path
         id="path25914"
         d="m 241.15234,330.61719 h 10.78516 v 2.37109 h -10.78516 z m 0,0" />
    </clipPath>
    <clipPath
       id="clip223">
      <path
         id="path25917"
         d="M 257.27734,331 H 360 v 3.54297 H 257.27734 Z m 0,0" />
    </clipPath>
    <clipPath
       id="clip224">
      <path
         id="path25920"
         d="m 302.39453,329.38672 h 2.08203 v 6.53515 h -2.08203 z m 0,0" />
    </clipPath>
    <clipPath
       id="clip225">
      <path
         id="path25923"
         d="m 297.16406,342.07031 h 9.32422 v 9.51953 h -9.32422 z m 0,0" />
    </clipPath>
    <clipPath
       id="clip226">
      <path
         id="path25926"
         d="M 307.42578,348.46094 H 311 v 5.33593 h -3.57422 z m 0,0" />
    </clipPath>
    <clipPath
       id="clip227">
      <path
         id="path25929"
         d="m 220.09766,305.03125 h 6.75 v 5.5625 h -6.75 z m 0,0" />
    </clipPath>
    <clipPath
       id="clip228">
      <path
         id="path25932"
         d="m 223,306 h 1.92187 v 7.90234 H 223 Z m 0,0" />
    </clipPath>
    <clipPath
       id="clip229">
      <path
         id="path25935"
         d="m 226.32422,305.43359 h 4.40625 V 313 h -4.40625 z m 0,0" />
    </clipPath>
    <clipPath
       id="clip230">
      <path
         id="path25938"
         d="m 241,310 h 4.63281 v 1.51562 H 241 Z m 0,0" />
    </clipPath>
    <clipPath
       id="clip231">
      <path
         id="path25941"
         d="m 267.12891,310.46484 h 5.71093 V 312 h -5.71093 z m 0,0" />
    </clipPath>
    <clipPath
       id="clip232">
      <path
         id="path25944"
         d="m 282,310 h 6.67578 v 1.77734 H 282 Z m 0,0" />
    </clipPath>
    <clipPath
       id="clip233">
      <path
         id="path25947"
         d="m 294,310.44922 h 5.51562 V 313 H 294 Z m 0,0" />
    </clipPath>
    <clipPath
       id="clip234">
      <path
         id="path25950"
         d="m 301.5625,310.57422 h 2.05469 v 1.95703 h -2.05469 z m 0,0" />
    </clipPath>
    <clipPath
       id="clip235">
      <path
         id="path25953"
         d="m 303,314.49219 h 1 v 3.125 h -1 z m 0,0" />
    </clipPath>
    <clipPath
       id="clip236">
      <path
         id="path25956"
         d="M 302.25781,322 H 304 v 4.55859 h -1.74219 z m 0,0" />
    </clipPath>
    <clipPath
       id="clip237">
      <path
         id="path25959"
         d="M 229.51172,330.33984 H 234 V 337 h -4.48828 z m 0,0" />
    </clipPath>
    <clipPath
       id="clip238">
      <path
         id="path25962"
         d="m 224.48828,288 h 5.10156 v 7 h -5.10156 z m 0,0" />
    </clipPath>
    <clipPath
       id="clip239">
      <path
         id="path25965"
         d="m 230.52344,289.01562 h 4.32422 V 295 h -4.32422 z m 0,0" />
    </clipPath>
    <clipPath
       id="clip240">
      <path
         id="path25968"
         d="m 241,329.32031 h 10 V 331 h -10 z m 0,0" />
    </clipPath>
    <clipPath
       id="clip241">
      <path
         id="path25971"
         d="m 255.08984,292.09375 h 99.67188 v 39.71875 h -99.67188 z m 0,0" />
    </clipPath>
    <clipPath
       id="clip242">
      <path
         id="path25974"
         d="m 91,426 h 1.570313 v 2 H 91 Z m 0,0" />
    </clipPath>
    <clipPath
       id="clip243">
      <path
         id="path25977"
         d="m 86,424.5 h 7 V 438 h -7 z m 0,0" />
    </clipPath>
    <clipPath
       id="clip244">
      <path
         id="path25980"
         d="m 95.230469,431.03906 h 5.496091 v 2.69531 h -5.496091 z m 0,0" />
    </clipPath>
    <clipPath
       id="clip245">
      <path
         id="path25983"
         d="m 99,428.0625 h 2.55859 v 10.41016 H 99 Z m 0,0" />
    </clipPath>
    <clipPath
       id="clip246">
      <path
         id="path25986"
         d="m 105,428 h 2.375 v 11.64062 H 105 Z m 0,0" />
    </clipPath>
    <clipPath
       id="clip247">
      <path
         id="path25989"
         d="M 108.08984,429 H 114 v 8 h -5.91016 z m 0,0" />
    </clipPath>
    <clipPath
       id="clip248">
      <path
         id="path25992"
         d="m 117.45703,429.61719 h 6.98438 V 436 h -6.98438 z m 0,0" />
    </clipPath>
    <clipPath
       id="clip249">
      <path
         id="path25995"
         d="m 125,430 h 4 v 4.86328 h -4 z m 0,0" />
    </clipPath>
    <clipPath
       id="clip250">
      <path
         id="path25998"
         d="m 88.375,439.33594 h 44.01562 v 3.39062 H 88.375 Z m 0,0" />
    </clipPath>
    <clipPath
       id="clip251">
      <path
         id="path26001"
         d="m 101.62109,446.53516 h 5.08985 v 9.27343 h -5.08985 z m 0,0" />
    </clipPath>
    <clipPath
       id="clip252">
      <path
         id="path26004"
         d="m 139,443 h 7.48828 v 2 H 139 Z m 0,0" />
    </clipPath>
    <clipPath
       id="clip253">
      <path
         id="path26007"
         d="m 144,439.5625 h 5 V 449 h -5 z m 0,0" />
    </clipPath>
    <clipPath
       id="clip254">
      <path
         id="path26010"
         d="m 183,421 h 5.55078 v 17.53516 H 183 Z m 0,0" />
    </clipPath>
    <clipPath
       id="clip255">
      <path
         id="path26013"
         d="m 187.60937,414 h 57.94532 v 7.67969 h -57.94532 z m 0,0" />
    </clipPath>
    <clipPath
       id="clip256">
      <path
         id="path26016"
         d="m 192.42969,427 h 9.5 v 8.60156 h -9.5 z m 0,0" />
    </clipPath>
    <clipPath
       id="clip257">
      <path
         id="path26019"
         d="m 207.59766,428.04687 h 6.25781 v 2.67579 h -6.25781 z m 0,0" />
    </clipPath>
    <clipPath
       id="clip258">
      <path
         id="path26022"
         d="m 210.35547,426.01562 h 2.57422 V 434 h -2.57422 z m 0,0" />
    </clipPath>
    <clipPath
       id="clip259">
      <path
         id="path26025"
         d="m 221,425.60937 h 2 V 433 h -2 z m 0,0" />
    </clipPath>
    <clipPath
       id="clip260">
      <path
         id="path26028"
         d="m 225,425.04297 h 4 v 6.77734 h -4 z m 0,0" />
    </clipPath>
    <clipPath
       id="clip261">
      <path
         id="path26031"
         d="m 237.34375,425 h 5.12891 v 5.6875 h -5.12891 z m 0,0" />
    </clipPath>
    <clipPath
       id="clip262">
      <path
         id="path26034"
         d="M 243.36328,420.44922 H 248 V 425 h -4.63672 z m 0,0" />
    </clipPath>
    <clipPath
       id="clip263">
      <path
         id="path26037"
         d="m 202.61328,424 h 4.06641 v 4.6875 h -4.06641 z m 0,0" />
    </clipPath>
    <clipPath
       id="clip264">
      <path
         id="path26040"
         d="m 179.13672,437.28906 h 66.67578 v 3.29297 h -66.67578 z m 0,0" />
    </clipPath>
    <clipPath
       id="clip265">
      <path
         id="path26043"
         d="m 203.08594,447 h 13.35547 v 10 h -13.35547 z m 0,0" />
    </clipPath>
    <clipPath
       id="clip266">
      <path
         id="path26046"
         d="m 240,234.44141 h 2.56641 V 236 H 240 Z m 0,0" />
    </clipPath>
    <clipPath
       id="clip267">
      <path
         id="path26049"
         d="m 90,384.05859 h 1.917969 v 16.33594 H 90 Z m 0,0" />
    </clipPath>
    <clipPath
       id="clip268">
      <path
         id="path26052"
         d="m 95.257813,396.05469 h 3.507812 v 4.53906 h -3.507812 z m 0,0" />
    </clipPath>
    <clipPath
       id="clip269">
      <path
         id="path26055"
         d="m 104.44531,388 h 8.41797 v 6.6875 h -8.41797 z m 0,0" />
    </clipPath>
    <clipPath
       id="clip270">
      <path
         id="path26058"
         d="m 108.60938,387.33594 h 2.99609 v 13.08984 h -2.99609 z m 0,0" />
    </clipPath>
    <clipPath
       id="clip271">
      <path
         id="path26061"
         d="m 114.52344,396 h 3.05078 v 3.48437 h -3.05078 z m 0,0" />
    </clipPath>
    <clipPath
       id="clip272">
      <path
         id="path26064"
         d="m 124.46875,387.21484 h 2.4375 v 14.33203 h -2.4375 z m 0,0" />
    </clipPath>
    <clipPath
       id="clip273">
      <path
         id="path26067"
         d="M 224.14844,231.26172 H 230 V 238 h -5.85156 z m 0,0" />
    </clipPath>
    <clipPath
       id="clip274">
      <path
         id="path26070"
         d="m 227,231.48437 h 2 v 9.98829 h -2 z m 0,0" />
    </clipPath>
    <clipPath
       id="clip275">
      <path
         id="path26073"
         d="m 230.26172,232 h 4.33984 v 9 h -4.33984 z m 0,0" />
    </clipPath>
    <clipPath
       id="clip276">
      <path
         id="path26076"
         d="m 229,266.46484 h 6 v 10.22266 h -6 z m 0,0" />
    </clipPath>
    <clipPath
       id="clip277">
      <path
         id="path26079"
         d="m 240,268.41406 h 6.37891 v 2.33203 H 240 Z m 0,0" />
    </clipPath>
    <clipPath
       id="clip278">
      <path
         id="path26082"
         d="m 275.19922,269.11719 h 4.58984 v 2.30078 h -4.58984 z m 0,0" />
    </clipPath>
    <clipPath
       id="clip279">
      <path
         id="path26085"
         d="m 289,271.38281 h 4.52344 V 273 H 289 Z m 0,0" />
    </clipPath>
    <clipPath
       id="clip280">
      <path
         id="path26088"
         d="M 297.49219,271.28125 H 302 v 2.39062 h -4.50781 z m 0,0" />
    </clipPath>
    <clipPath
       id="clip281">
      <path
         id="path26091"
         d="m 302,273.44531 h 1.78125 V 277 H 302 Z m 0,0" />
    </clipPath>
    <clipPath
       id="clip282">
      <path
         id="path26094"
         d="m 302.08594,282.30078 h 1.82031 v 6.1875 h -1.82031 z m 0,0" />
    </clipPath>
    <clipPath
       id="clip283">
      <path
         id="path26097"
         d="m 302,292 h 1.87109 v 5.81641 H 302 Z m 0,0" />
    </clipPath>
    <clipPath
       id="clip284">
      <path
         id="path26100"
         d="m 303,302.26562 h 1.69922 v 6.55079 H 303 Z m 0,0" />
    </clipPath>
    <clipPath
       id="clip285">
      <path
         id="path26103"
         d="m 303.02734,310 h 1.96094 v 5.83984 h -1.96094 z m 0,0" />
    </clipPath>
    <clipPath
       id="clip286">
      <path
         id="path26106"
         d="m 293,277.54297 h 40 V 281 h -40 z m 0,0" />
    </clipPath>
    <clipPath
       id="clip287">
      <path
         id="path26109"
         d="m 306,271.10937 h 4.95312 V 273 H 306 Z m 0,0" />
    </clipPath>
    <clipPath
       id="clip288">
      <path
         id="path26112"
         d="M 264.62109,270.22266 H 269 V 272 h -4.37891 z m 0,0" />
    </clipPath>
    <clipPath
       id="clip289">
      <path
         id="path26115"
         d="M 315.19922,271.25 H 321 v 2.49609 h -5.80078 z m 0,0" />
    </clipPath>
    <clipPath
       id="clip290">
      <path
         id="path26118"
         d="M 325.42969,271.18359 H 331 V 273 h -5.57031 z m 0,0" />
    </clipPath>
    <clipPath
       id="clip291">
      <path
         id="path26121"
         d="M 336.06641,271.3125 H 341 V 273 h -4.93359 z m 0,0" />
    </clipPath>
    <clipPath
       id="clip292">
      <path
         id="path26124"
         d="M 346.08203,271 H 352 v 1.5 h -5.91797 z m 0,0" />
    </clipPath>
    <clipPath
       id="clip293">
      <path
         id="path26127"
         d="m 354,270.20703 h 5.67187 V 272 H 354 Z m 0,0" />
    </clipPath>
    <clipPath
       id="clip294">
      <path
         id="path26130"
         d="m 251.11328,331 h 7.78125 v 2 h -7.78125 z m 0,0" />
    </clipPath>
    <clipPath
       id="clip295">
      <path
         id="path26133"
         d="m 237,335.17187 h 7.97266 v 6.61719 H 237 Z m 0,0" />
    </clipPath>
    <clipPath
       id="clip296">
      <path
         id="path26136"
         d="m 244,340 h 3.61328 v 3 H 244 Z m 0,0" />
    </clipPath>
    <clipPath
       id="clip297">
      <path
         id="path26139"
         d="M 239.35156,339.62109 H 251 v 12.99219 h -11.64844 z m 0,0" />
    </clipPath>
    <clipPath
       id="clip298">
      <path
         id="path26142"
         d="M 242.47266,351 H 244 v 7.85937 h -1.52734 z m 0,0" />
    </clipPath>
    <clipPath
       id="clip299">
      <path
         id="path26145"
         d="m 244,352 h 4 v 6.4375 h -4 z m 0,0" />
    </clipPath>
    <clipPath
       id="clip300">
      <path
         id="path26148"
         d="m 241,236.32031 h 6 v 4.66797 h -6 z m 0,0" />
    </clipPath>
    <clipPath
       id="clip301">
      <path
         id="path26151"
         d="M 251.57031,242.30078 H 256 V 246 h -4.42969 z m 0,0" />
    </clipPath>
    <clipPath
       id="clip302">
      <path
         id="path26154"
         d="M 262.49609,248.07812 H 268 V 251 h -5.50391 z m 0,0" />
    </clipPath>
    <clipPath
       id="clip303">
      <path
         id="path26157"
         d="m 290,263.14453 h 5 v 4.37891 h -5 z m 0,0" />
    </clipPath>
    <clipPath
       id="clip304">
      <path
         id="path26160"
         d="m 298,269.54687 h 3.66016 v 2.92188 H 298 Z m 0,0" />
    </clipPath>
    <clipPath
       id="clip305">
      <path
         id="path26163"
         d="m 250.57031,270 h 6.82031 v 2 h -6.82031 z m 0,0" />
    </clipPath>
    <clipPath
       id="clip306">
      <path
         id="path26166"
         d="m 249.37109,312 h 7.39063 v 1.76562 h -7.39063 z m 0,0" />
    </clipPath>
    <clipPath
       id="clip307">
      <path
         id="path26169"
         d="M 259.38672,311.55469 H 264 V 313 h -4.61328 z m 0,0" />
    </clipPath>
    <clipPath
       id="clip308">
      <path
         id="path26172"
         d="m 242,238 h 118.89453 v 35.60547 H 242 Z m 0,0" />
    </clipPath>
    <clipPath
       id="clip309">
      <path
         id="path26175"
         d="m 260.34375,375 h 2.23437 v 10.75 h -2.23437 z m 0,0" />
    </clipPath>
    <clipPath
       id="clip310">
      <path
         id="path26178"
         d="m 265.52344,384.53125 h 2.98437 v 3.44531 h -2.98437 z m 0,0" />
    </clipPath>
    <clipPath
       id="clip311">
      <path
         id="path26181"
         d="m 274,374.53516 h 7.77344 v 7.04296 H 274 Z m 0,0" />
    </clipPath>
    <clipPath
       id="clip312">
      <path
         id="path26184"
         d="m 277.5,373.10937 h 3.16016 V 388 H 277.5 Z m 0,0" />
    </clipPath>
    <clipPath
       id="clip313">
      <path
         id="path26187"
         d="m 283.03125,384 h 2.82812 v 3.52734 h -2.82812 z m 0,0" />
    </clipPath>
    <clipPath
       id="clip314">
      <path
         id="path26190"
         d="m 289.51562,375.19531 h 8.44141 V 383 h -8.44141 z m 0,0" />
    </clipPath>
  </defs>
  <g
     transform="translate(-18.80114,-230.51384)"
     clip-path="url(#clip166)"
     clip-rule="nonzero"
     id="g26867">
    <path
       style="fill:none;stroke:#000000;stroke-width:0.745;stroke-linecap:round;stroke-linejoin:round;stroke-miterlimit:10;stroke-opacity:1"
       d="m 64.246094,361.46484 0.01953,0.53125 -0.01172,0.0781 -0.07422,-0.043 0.09766,0.14844 0.0078,-0.1836 -0.117187,0.0586 -0.02344,-0.0703 0.07422,0.0274 0.01563,-0.0937 -0.03906,0.15234 0.02344,-0.18359 0.0078,0.19531 -0.0039,-0.30078 -0.02734,0.0937 -0.09375,-0.0312 0.125,-0.0586 -0.09766,-0.98829 0.0625,0.0352 0.07031,-0.25781 0.03906,0.1289 -0.25,-0.32421 0.08984,-0.14454 0.0039,-0.40625 0.04687,-0.125 0.03906,0.16407 -0.171875,-0.30078 0.01563,-0.57032 0.09766,-0.0469 -0.148437,-0.77344 0.164062,-0.24219 -0.183594,-0.10547 -0.01172,-2.0039 0.03906,0.16015 0.02734,-0.0742 0.02344,-1.01563 -0.0078,-0.20703 -0.07422,0.23047 -0.0078,-0.90625 -0.07031,-0.0508 0.01172,-0.4375 0.08203,0.0117 -0.02344,-1.32422 0.105468,-0.39063 -0.152343,-0.76953 0.08984,-0.375 -0.05469,-2.19531 0.05078,-0.26563 0.105469,-0.0625 -0.125,-0.10547 -0.03516,-3.36328 -0.06641,-1.51172 -0.117168,-0.1719 0.09375,0.0664 v -0.36329 l -0.144531,-0.33984 0.06641,-0.0977 -0.117188,-0.28906 0.05469,-0.50781 -0.183594,-0.57031 0.101563,-0.0469 -0.222657,-1.375 0.08984,-0.30469 -0.113281,-0.17578 0.03906,-0.49609 0.09766,0.0547 -0.148438,-0.34375 0.261719,-0.17188 -0.07422,-0.54297 0.148438,-0.8164 -0.03125,-0.53125 0.04297,0.10937 0.03906,-0.0898 -0.05859,-1.42188 -0.144531,-0.95312 0.04297,-0.36328 -0.07813,-0.10938 0.08984,-0.1289 -0.160156,-0.26954 v -0.37109 l 0.0625,-0.16406 0.01563,0.15234 -0.121094,-0.52734 0.175782,-1.05469 -0.09766,-0.85156 0.125,-0.75781 -0.0625,-3.41407 -0.117187,-0.4375 0.07031,-0.0586 0.01563,-1.01172 -0.08594,-0.21484 0.234375,-2.78516 -0.07813,-0.26953 0.246094,-2.16016 -0.04687,-0.67578 0.105468,-0.64844 0.140625,-0.0508 -0.101562,-0.0508 0.02734,-2.76953 0.05859,0.0898 0.01953,-0.39453 0.01172,0.22266 0.0625,-1.82422 0.164063,-0.98828 -0.07813,-0.94141 0.113281,-0.38672 -0.05078,-1.5664 0.105469,-1.16406 -0.144532,-0.83204 0.136719,-0.67968 -0.148437,-0.86719 0.402343,-2.22656 -0.08203,-0.29297 0.101563,-0.45703 -0.121094,-0.27735 0.08203,-0.28515 -0.105469,-0.375 0.08203,-0.38672 -0.183594,-0.2461 0.06641,-0.37109 0.08203,-0.125 0.0039,0.10156 -0.07813,-0.88281 0.08984,-1.24219 -0.01172,-1.39843 -0.109375,-0.78516 0.09375,-0.65234 -0.144532,-0.0781 0.06641,-0.15234 0.0078,0.0859 -0.03516,-0.94531 -0.06641,0.004 0.07422,-0.19531 -0.109375,-0.11329 0.101563,-0.15625 0.03906,-0.5 -0.128906,-0.5 0.128906,-0.24609 0.03516,-0.50391 -0.03906,-2.0625 -0.140625,-0.29296 0.109375,-0.54297 -0.140625,-0.5 0.125,-0.28907 -0.109375,-0.15234 0.07813,-0.44531 -0.07813,-0.33203 0.117188,-0.1836 -0.160157,-0.41797 0.09766,-0.36328 -0.08203,-0.9375 0.125,-0.0976 -0.167968,-0.76172 -0.01172,-1.94922 -0.109375,0.0234 0.08594,-0.13282 0.05859,-1.17187 0.09766,-0.14453 -0.08203,-0.625 0.09375,-1.53125 -0.04297,-0.14844 -0.05469,0.0781 0.08594,-0.10938 -0.08594,-2.125 0.07813,-0.15234 -0.07422,-0.19141 -0.02344,0.16406 -0.05078,-1.30468 -0.136718,-0.39454 0.128906,-0.21875 -0.140625,-0.12109 -0.04687,-0.23437 -0.03516,-1.17969 0.273437,-1.35547 0.04297,-0.0898 0.105469,0.0391 -0.117188,-0.23047 0.07031,-0.56641 0.113281,0.0508 0.03906,-0.0898 -0.136718,-0.39844 0.101562,-0.21093 0.101563,-1.47266 0.113281,-0.39844 0.0078,-0.74609 -0.117187,-0.10156 0.136719,-0.0664 0.03125,-0.22656 -0.03125,-1.07032 0.117187,-0.58203 -0.08594,-0.0234 0.08984,-0.0586 0.0078,-0.45703 0.136719,-0.28516 -0.09766,-0.62109 0.378907,-0.49219 0.05078,-0.23437"
       transform="matrix(1,0,0,-1,0,594)"
       id="path26865" />
  </g>
  <g
     transform="translate(-18.80114,-230.51384)"
     clip-path="url(#clip167)"
     clip-rule="nonzero"
     id="g26871">
    <path
       style="fill:none;stroke:#000000;stroke-width:0.745;stroke-linecap:round;stroke-linejoin:round;stroke-miterlimit:10;stroke-opacity:1"
       d="m 65.382813,262.83203 -0.04297,0.14063 -0.05469,-0.12891 0.04297,0.0625 0.03516,-0.0781 -0.01953,0.19532 0.0039,-0.15625 -0.117187,0.0664 h 0.179687 l -0.05859,-0.0625 0.132812,0.11719 0.480469,-0.33984 0.371094,-0.0352 0.05078,0.16406 0.09766,-0.008 0.01172,-0.23437 0.191406,-0.10547 0.164063,0.11328 0.01953,-0.13281 0.277344,-0.004 0.511718,-0.20313 0.08203,0.0742 0.140625,-0.38281 0.128906,0.12891 0.230469,-0.0469 0.07813,0.25781 0.117187,0.008 0.0625,-0.3086 0.109375,-0.0937 1.859375,-0.11328 0.09766,-0.25 0.140625,0.31641 0.203125,-0.21875 0.890625,-0.0664 0.328125,0.13281 0.359375,-0.008 0.265625,0.21485 0.582032,-0.0469 0.07422,0.13281 0.386719,0.043 0.402344,0.25781 0.167969,-0.21093 0.917968,-0.0234 0.417969,-0.13672 0.238281,0.12891 0.363282,-0.19141 1.058593,0.12891 0.234375,0.28515 0.183594,-0.26562 0.253906,0.10937 0.08594,-0.0937 0.527344,-0.0664 0.878906,-0.0547 0.08203,0.10547 0.351563,-0.27344 0.296875,0.0273 0.601562,-0.15234 0.546875,0.19141 0.203125,-0.11719 0.429688,0.0664 0.199218,0.14453 0.140625,-0.0664 1.144532,0.14453 0.261718,-0.0703 0.105469,0.16016 0.621094,0.0742 0.714844,-0.0664 0.53125,-0.1836 0.484375,0.14063 0.08984,-0.21484 0.117188,-0.043 0.105469,0.23828 0.511718,0.17969 0.195313,-0.16016 0.621094,0.0312 0.132812,-0.10156 0.02344,0.0976 0.230468,0.0781 0.148438,-0.14063 0.214844,0.0625 0.132812,0.15235 0.144531,-0.19532 0.15625,0.0352 0.160157,-0.11328 0.222656,0.004 0.04297,0.1875 0.234375,-0.23829 0.675781,0.19922 0.417969,-0.0703 0.07031,-0.0937 0.253906,0.12891 0.242188,-0.0117 0.08984,0.10156 0.207031,-0.13672 0.417969,0.0156 0.199218,-0.16016 0.292969,0.004 0.195313,-0.16016 0.542968,0.24609 0.199219,-0.21875 0.738281,0.21875 0.34375,-0.16015 1.050782,-0.0508 0.304687,0.10547 0.789063,-0.043 0.191406,0.16015 0.121094,-0.0156 0.04297,-0.17188 0.625,-0.1875 0.132813,0.1211 0.367187,-0.004 0.101563,-0.24609 0.121094,-0.043 0.09766,0.18359 0.378906,0.0586 0.164063,0.1914 0.171875,0.0195 0.03516,-0.21093 0.355469,0.0117 0.57813,0.15625 1.37109,0.0703 0.625,0.11718 0.21485,0.13672 0.10546,-0.10156 0.80079,0.004 0.21484,-0.13672 0.21094,0.0664 0.19922,-0.11328 0.29296,0.0937 0.65625,-0.0859 0.50782,0.0742 0.33984,-0.15625 0.23828,0.10938 0.39453,-0.21484 0.50782,-0.0703 0.14062,0.0703 0.25,-0.20313 0.11719,0.12891 h 0.42187 l 0.28907,0.25 0.21484,-0.23438 0.45703,0.0977 0.10156,-0.0977 0.63282,-0.10547 0.92187,0.3711 0.24219,-0.11328 0.42187,0.1914 0.17188,-0.0703 0.6875,0.0781 0.66406,-0.0508 0.0742,-0.16406 0.11719,-0.0156 0.17187,0.16406 0.71094,-0.0234 0.88672,-0.19141 0.0742,-0.0937 0.1914,0.0859 0.11328,-0.20703 0.19141,0.15234 -0.008,-0.0898 0.0664,0.082 0.30079,-0.0273 0.4375,0.40234 0.28906,0.0117 0.0703,0.13281 0.16406,-0.0625 0.23438,0.13282 0.0742,-0.0977 0.20312,0.18359 0.0977,-0.14453 0.27344,0.24219 0.11328,-0.15234 0.51172,0.0195 0.11328,-0.11328 0.48828,0.21875 0.22265,0.21484 0.043,-0.14844 0.23828,-0.0234 1.03125,0.10938 0.5625,-0.29297 0.1211,0.13672 0.36719,0.082 0.043,0.13672 0.17579,-0.17188 0.32812,0.0234 0.17578,0.22266 0.0859,-0.13281 0.42969,-0.0781 0.14062,0.16016 0.1875,-0.0274 0.0898,0.0937 0.0625,-0.21093 0.71093,0.23828 0.10938,-0.10157 0.32422,-0.0273 0.0977,0.0781 0.21875,-0.0586 1.52344,0.125 0.28125,0.13281 1.39063,0.0234 0.44531,0.14063 0.32812,-0.12891 0.64844,0.28516 0.23437,-0.1211 2.63282,0.10157 0.46875,0.11328 0.40234,-0.0859 0.81641,0.0977 0.39062,0.14453 0.50391,-0.0312 1.53906,0.17187 0.41406,0.13281 0.59766,-0.10156 0.20703,0.1211 0.47266,-0.21875 0.0469,0.0976 0.38281,0.0977 0.4336,-0.19531 0.082,0.13281 0.0977,-0.20703 0.28515,-0.0117 0.14063,-0.1211 0.32422,0.10547 0.24218,-0.3125 0.0898,0.1836 0.21875,0.125 0.0547,-0.13282 0.1836,-0.0625 0.28906,-0.0351 0.60547,0.13281 0.27344,-0.15625 0.76562,0.28516 0.39844,-0.0742 0.21875,0.21875 0.24609,-0.22266 0.96875,0.0469 0.20313,-0.15235 0.0977,0.12891 0.26563,0.0352 0.0781,0.13281 0.13282,-0.17969 0.10937,0.0781 0.61719,-0.0899 0.74609,0.0781 0.32813,-0.24219 0.54297,0.33594 0.082,-0.16797 0.22265,-0.0781 1.58594,0.0469 0.13281,-0.10156 0.28125,0.12109 0.40235,0.008 0.28515,0.17188 0.36329,-0.0664 0.67578,0.23438 0.54297,-0.0391 0.10156,-0.14453 0.21094,0.1836 0.46875,0.1289 0.21093,-0.14844 0.46094,0.0586 0.10547,0.53125 0.22266,0.0781 0.10156,-0.55859 0.29297,-0.15625 0.80078,0.13281 0.26172,-0.28125 0.12109,0.15625 0.5625,0.0977 0.0977,-0.10156 0.33593,-0.0312 0.082,0.17578 0.0937,-0.0156 0.0977,-0.16015 0.5,-0.1211 0.0547,0.0742 0.26172,-0.30469 0.0508,0.0742 0.21484,-0.0586 0.0195,0.16015 0.13282,-0.30859 0.21093,0.0312 0.12891,-0.18359 0.35156,-0.14063 0.1211,0.0742 0.48828,-0.0469 0.37109,-0.13282 0.15235,0.10547 0.43359,-0.0547 0.35547,0.15235 0.16406,-0.13281 0.72266,-0.0586 0.86718,0.0508 0.73438,0.16797 0.58594,-0.0664 0.15625,0.10156 0.84765,0.0625 0.88672,-0.125 0.75391,0.0508 1.41406,-0.31641 0.23828,0.17969 0.625,0.0156 0.20313,0.26171 0.26953,0.0274 0.21094,-0.33985 0.21875,-0.0937 0.73046,-0.0469 0.41016,0.13672 0.19531,-0.11328 0.91407,-0.14453 1.20312,-0.0625 0.22266,0.0703 0.40234,-0.16016 0.5,-0.008 0.43359,0.0117 0.21094,0.26953 0.27735,0.0391 0.21875,-0.26953 0.23828,-0.0391 1.87109,0.0391 0.78906,-0.20312"
       transform="matrix(1,0,0,-1,0,594)"
       id="path26869" />
  </g>
  <g
     transform="translate(-18.80114,-230.51384)"
     clip-path="url(#clip168)"
     clip-rule="nonzero"
     id="g26875">
    <path
       style="fill:none;stroke:#000000;stroke-width:0.745;stroke-linecap:round;stroke-linejoin:round;stroke-miterlimit:10;stroke-opacity:1"
       d="m 86.265625,243.61328 -0.128906,0.0586 0.08984,0.0547 -0.08594,0.0117 -0.02344,0.625 -0.08984,0.14063 0.09766,0.20703 -0.117187,0.21484 -0.01172,0.36328 0.03516,-0.16797 -0.02344,0.10157 0.105468,0.0781 0.164063,1.07031 0.347656,1.08203 -0.0078,0.3125 0.09375,-0.17968 0.03125,0.25781 0.07031,-0.16406 0.0625,0.2539 0.109375,0.0742 -0.08984,0.0469 0.04687,-0.0625 0.07422,0.21093 0.02344,-0.12109 0.121093,0.10547 0.0039,0.15234 0.152343,-0.11328 0.05078,0.26953 -0.0039,-0.14843 0.128907,0.0781 -0.0078,0.20703 0.08203,0.0391 0.01172,-0.27343 0.207031,0.10156 0.02344,-0.17969 0.167969,0.3086 0.191406,0.0352 0.06641,0.17969 -0.01563,-0.125 0.179688,-0.043 0.05469,0.0977 0.195313,-0.0312 0.03125,0.17578 v -0.21875 l 0.230468,0.0195 0.03516,-0.1875 0.101562,0.0937 0.152344,-0.14453 0.01172,0.0898 0.01172,-0.11328 0.289063,-0.10547 0.01563,-0.14453 0.109375,0.0352 -0.0625,0.0469 0.203125,-0.0898 0.02344,-0.24219 0.113282,0.008 -0.05469,-0.19531 0.0625,0.0937 0.08984,-0.32812 0.03906,0.0977 0.08203,-0.043 0.04687,-0.4414 0.109375,0.008 0.01563,-0.21875 0.320312,-0.44531 0.03906,-0.40625 0.06641,-0.10157 -0.02734,0.25782 h 0.07813 l 0.304688,-1.07813 0.128906,-0.0898 0.05859,-0.27735 -0.08203,0.0195 h 0.109375 l 0.02734,-0.94141 0.128906,-0.004 -0.148437,-0.12109 0.117187,-0.20703 -0.125,-0.32813 0.0078,-0.4375 -0.03906,-0.0586 -0.01563,0.11719 0.08594,-0.23438 0.05859,0.0859 -0.257813,-0.27344 -0.05078,-0.35156 0.08594,0.0898 -0.125,-0.0547 -0.03906,-0.45704 -0.03516,0.14063 -0.05078,-0.0703 -0.01953,0.29297 0.02734,-0.33594 -0.04687,-0.17578 -0.09375,-0.0156 -0.09766,-0.46875 0.04297,0.1211 -0.125,-0.0273 0.02344,-0.082 -0.07813,0.125 0.01172,-0.23828 -0.160157,0.043 -0.183593,-0.27344 0.02734,0.16016 -0.08594,-0.0508 -0.15625,-0.39063 -0.117188,0.17188 -0.01172,0.40234 -0.05078,-0.60156 -0.136718,0.0703 -0.488282,-0.14844 -0.203125,0.0703 -0.04687,-0.23828 -0.02734,0.0937 -0.394532,0.0703 -0.277343,-0.29297 -0.425782,-0.16797 0.0625,0.16797 -0.08984,-0.0469 -0.06641,0.0937 0.05469,0.1836 -0.144531,0.13281 -0.0625,0.78515 0.01953,-0.17968 -0.105469,-0.0781 -0.132812,0.0312 0.01563,0.17578 -0.121094,0.0117"
       transform="matrix(1,0,0,-1,0,594)"
       id="path26873" />
  </g>
  <g
     transform="translate(-18.80114,-230.51384)"
     clip-path="url(#clip169)"
     clip-rule="nonzero"
     id="g26879">
    <path
       style="fill:none;stroke:#000000;stroke-width:0.745;stroke-linecap:round;stroke-linejoin:round;stroke-miterlimit:10;stroke-opacity:1"
       d="m 87.453125,240.46875 -0.207031,0.0352 0.183594,0.72656 -0.04297,-0.1875 -0.300781,0.55469 -0.125,0.043 -0.0625,-0.10156 -0.226563,0.21485 -0.05078,0.25781 -0.410156,0.39062 -0.121094,0.4336 -0.222656,0.35156 -0.07422,-0.0195 0.07813,0.36328 -0.121094,0.0703 0.03125,0.21875 -0.04297,-0.10547 0.191407,0.20703 0.03906,-0.14062"
       transform="matrix(1,0,0,-1,0,594)"
       id="path26877" />
  </g>
  <g
     transform="translate(-18.80114,-230.51384)"
     clip-path="url(#clip170)"
     clip-rule="nonzero"
     id="g26883">
    <path
       style="fill:none;stroke:#000000;stroke-width:0.745;stroke-linecap:round;stroke-linejoin:round;stroke-miterlimit:10;stroke-opacity:1"
       d="m 112.88281,248.625 0.10547,0.16797 -0.0508,-0.14453 0.23828,-0.60938 -0.008,-0.58203 0.17187,-0.92969 -0.082,-0.78125 0.0937,-3.24609 -0.1289,-2.55469 0.11718,-0.29687 0.0664,0.17578 0.0234,-0.16797 0.15234,-0.0156"
       transform="matrix(1,0,0,-1,0,594)"
       id="path26881" />
  </g>
  <g
     transform="translate(-18.80114,-230.51384)"
     clip-path="url(#clip171)"
     clip-rule="nonzero"
     id="g26887">
    <path
       style="fill:none;stroke:#000000;stroke-width:0.745;stroke-linecap:round;stroke-linejoin:round;stroke-miterlimit:10;stroke-opacity:1"
       d="m 139.67187,247.125 -0.10546,-0.0156 0.0469,0.23438 -0.0586,-0.15625 0.10937,0.0234 -0.0781,0.0859 0.20312,0.21094 0.0312,0.3125 0.16016,-0.0508 0.46875,0.58203 0.19922,-0.25 0.0234,0.22266 0.37891,0.42969 0.16016,-0.1211 0.86328,0.17969 0.0391,-0.49609 0.16016,-0.082 0.0547,0.47657 0.35938,0.0977 0.25391,-0.22656 0.125,0.0117 0.21875,-0.28906 0.14062,-0.76953 -0.0625,0.082 -0.0156,-0.0742 0.0273,-0.26172 -0.24609,-1.26172 -1.6836,-4.42187 -0.23437,-0.34375 -0.0937,0.0234 -0.0391,-0.36328 -0.26953,-0.33203 -0.0625,-0.3125 0.10547,0.13672 0.12891,-0.22266 0.16406,0.0508 0.58984,-0.22656 0.62891,0.0703 0.34375,-0.17968 0.18359,0.13281 0.48047,-0.043 0.16407,0.0977 0.26562,-0.27344 1.32031,-0.21094"
       transform="matrix(1,0,0,-1,0,594)"
       id="path26885" />
  </g>
  <g
     transform="translate(-18.80114,-230.51384)"
     clip-path="url(#clip172)"
     clip-rule="nonzero"
     id="g26891">
    <path
       style="fill:none;stroke:#000000;stroke-width:0.745;stroke-linecap:round;stroke-linejoin:round;stroke-miterlimit:10;stroke-opacity:1"
       d="m 169.02734,247.37891 -0.11328,0.0234 0.0586,0.10938 0.0117,-0.26953 0.10157,0.50781 0.14843,0.0117 0.0781,0.15625 0.35547,-0.0625 0.25781,0.18359 0.60938,0.14063 0.15625,0.1875 0.40625,-0.0898 0.16796,0.28907 0.17969,-0.53516 -0.008,0.14844 0.11719,-0.004 -0.0937,-0.86328 -0.6211,-1.58594 -0.10156,-0.14062 -0.0547,0.082 -0.14453,-0.082 -0.36719,-0.44532 -0.125,0.082 -0.0469,-0.38282 0.10937,0.1211 0.0547,-0.21094 0.22656,-0.23438 0.20704,0.13672 0.14062,-0.48047 1.77344,-1.77343 0.41797,-0.74219 0.0547,0.10156 0.043,-0.0469 0.13672,-0.77344 -0.15625,-0.42969 -0.18359,-0.0508 -0.16406,-0.23828 -0.082,0.23047 -0.15234,-0.0391 -0.19531,-0.46485 -1.33203,-0.2539 -0.69922,-0.0625 -0.19141,0.10937 -0.0703,-0.10156"
       transform="matrix(1,0,0,-1,0,594)"
       id="path26889" />
  </g>
  <g
     transform="translate(-18.80114,-230.51384)"
     clip-path="url(#clip173)"
     clip-rule="nonzero"
     id="g26895">
    <path
       style="fill:none;stroke:#000000;stroke-width:0.745;stroke-linecap:round;stroke-linejoin:round;stroke-miterlimit:10;stroke-opacity:1"
       d="m 49.871094,290.58203 -0.0078,0.34766 -0.02734,-0.0664 -0.0039,0.0977 -0.113281,-0.004 0.132813,0.16406 -0.105469,-0.043 0.06641,0.14063 -0.07422,0.0898 0.07813,-0.0469 -0.144531,0.004 0.175781,-0.0586 -0.08203,-0.0703 0.203125,-1.07813 0.1875,-2.32812 -0.253906,-4.08594 0.07813,-0.3125 -0.08203,0.39453 0.05078,0.67969"
       transform="matrix(1,0,0,-1,0,594)"
       id="path26893" />
  </g>
  <g
     transform="translate(-18.80114,-230.51384)"
     clip-path="url(#clip174)"
     clip-rule="nonzero"
     id="g26899">
    <path
       style="fill:none;stroke:#000000;stroke-width:0.745;stroke-linecap:round;stroke-linejoin:round;stroke-miterlimit:10;stroke-opacity:1"
       d="m 63.449219,287.69922 -0.04687,0.125 -0.226563,-0.125 0.304688,0.125 0.292969,-0.19141 0.546875,-0.0391 0.113281,0.20312 0.175781,-0.13671 0.550781,0.0391 0.554688,-0.10938"
       transform="matrix(1,0,0,-1,0,594)"
       id="path26897" />
  </g>
  <g
     transform="translate(-18.80114,-230.51384)"
     clip-path="url(#clip175)"
     clip-rule="nonzero"
     id="g26903">
    <path
       style="fill:none;stroke:#000000;stroke-width:0.745;stroke-linecap:round;stroke-linejoin:round;stroke-miterlimit:10;stroke-opacity:1"
       d="m 72.992188,288.4375 -0.128907,-0.11328 0.101563,-0.0508 0.0078,0.0703 -0.02734,-0.16406 -0.03906,0.1914 0.109375,-0.11718 0.363281,-0.0703 0.382813,-0.0469 0.246094,0.0742 0.601562,-0.14063 0.09766,-0.1875 0.378907,0.16016 0.523437,-0.0625 0.183594,0.0664 0.101562,-0.13671 0.160157,-0.0117 0.53125,0.10937"
       transform="matrix(1,0,0,-1,0,594)"
       id="path26901" />
  </g>
  <g
     transform="translate(-18.80114,-230.51384)"
     clip-path="url(#clip176)"
     clip-rule="nonzero"
     id="g26907">
    <path
       style="fill:none;stroke:#000000;stroke-width:0.745;stroke-linecap:round;stroke-linejoin:round;stroke-miterlimit:10;stroke-opacity:1"
       d="m 80.511719,288.51562 v 0.25 l -0.06641,-0.10546 0.08984,0.0976 0.0625,-0.12109 0.171875,0.19922 0.15625,-0.14844 0.417969,0.16797 0.582031,-0.1211 0.917969,0.25 0.613281,-0.15625 0.214844,0.14063 0.113281,-0.0469"
       transform="matrix(1,0,0,-1,0,594)"
       id="path26905" />
  </g>
  <g
     transform="translate(-18.80114,-230.51384)"
     clip-path="url(#clip177)"
     clip-rule="nonzero"
     id="g26911">
    <path
       style="fill:none;stroke:#000000;stroke-width:0.745;stroke-linecap:round;stroke-linejoin:round;stroke-miterlimit:10;stroke-opacity:1"
       d="m 87.285156,286.48437 -0.05469,0.10157 -0.257813,-0.0117 -0.03906,-0.22266 0.05859,0.28125 0.04687,-0.28515 -0.144532,-0.22657 0.136719,-2.09375"
       transform="matrix(1,0,0,-1,0,594)"
       id="path26909" />
  </g>
  <g
     transform="translate(-18.80114,-230.51384)"
     clip-path="url(#clip178)"
     clip-rule="nonzero"
     id="g26915">
    <path
       style="fill:none;stroke:#000000;stroke-width:0.745;stroke-linecap:round;stroke-linejoin:round;stroke-miterlimit:10;stroke-opacity:1"
       d="m 88.359375,277.08203 -0.0625,-0.11719 -0.01563,0.32032 -0.03516,-0.3086 -0.02734,0.0977 -0.06641,-0.082 0.07422,-0.0469 -0.171875,-0.42187 -0.08984,-0.6875 0.04687,0.29297 -0.02734,-0.36329 0.265625,-0.6289"
       transform="matrix(1,0,0,-1,0,594)"
       id="path26913" />
  </g>
  <g
     transform="translate(-18.80114,-230.51384)"
     clip-path="url(#clip179)"
     clip-rule="nonzero"
     id="g26919">
    <path
       style="fill:none;stroke:#000000;stroke-width:0.745;stroke-linecap:round;stroke-linejoin:round;stroke-miterlimit:10;stroke-opacity:1"
       d="m 88.707031,269.75391 -0.109375,0.082 -0.0078,-0.44141 -0.0625,0.0781 -0.109375,-0.23438 0.02344,-0.60156 0.121094,-0.33594 -0.207031,-0.82422 -0.03125,-2.21094 0.195312,-0.32812 -0.128906,-0.13281 0.05469,-0.4375"
       transform="matrix(1,0,0,-1,0,594)"
       id="path26917" />
  </g>
  <g
     transform="translate(-18.80114,-230.51384)"
     clip-path="url(#clip180)"
     clip-rule="nonzero"
     id="g26923">
    <path
       style="fill:none;stroke:#000000;stroke-width:0.745;stroke-linecap:round;stroke-linejoin:round;stroke-miterlimit:10;stroke-opacity:1"
       d="m 87.421875,287.99609 0.07422,-0.0312 -0.101563,0.0469 0.01172,0.1289 0.113281,-0.13671 -0.105468,0.11328 0.05078,0.0586 0.05078,-0.0898 -0.01172,0.33984 0.03906,-0.32031 0.167969,0.53906 0.429687,0.11328 0.117188,0.32422 0.25,0.0781 -0.09375,0.0351 0.07422,0.21875 0.03906,-0.10156 0.265625,0.1875 0.0039,0.21094 0.175781,0.0742 0.296875,0.50781 0.324219,0.20703 0.07031,0.21875 0.304687,0.0781 0.347656,0.37891 0.06641,0.21094 0.492187,0.35937 0.453125,0.58985 0.257813,0.0976 0.15625,0.26563 0.238281,-0.0586 0.164062,0.3086 0.941407,0.60547 0.378906,0.41406 0.507812,0.19141 0.796875,0.82812 0.660157,0.34375 0.390625,0.35547 0.113281,-0.0469 0.550781,0.67188 0.277344,0.0898 0.964844,0.76953 0.761718,0.79688 0.5,0.20703 0.605469,0.71875 0.371094,0.11328 1.335937,1 0.61719,0.76953 0.44531,-0.004 0.78125,0.74609 0.51563,0.30859 0.13281,0.2461 0.64844,0.49219 0.3164,0.5039 0.50782,0.3125 0.17968,0.25391 0.31641,0.0742 0.64844,1.15625 0.23437,0.0273 0.51172,0.46094 0.14844,-0.0508 0.65234,0.8164 0.35156,0.16016 0.26172,0.27734 0.14453,0.008 0.58985,0.5039 0.38281,0.16406 1.05859,1.07422 0.29297,0.0781 0.51953,0.34375 1.02344,0.96484 h 0.10938 l 0.67187,0.75 0.23047,0.082 0.5625,0.74219 0.26953,0.0625 0.60938,0.53906 0.4375,0.58985 0.25781,-0.008 0.59375,0.78125 0.30078,0.125 0.99219,0.98829 0.71094,0.46875 0.5,0.57421 0.32031,0.1836 2.7539,2.66797 0.80469,0.4375 0.25,0.35547 1.5625,1.14843 0.42188,0.48438 2.35937,1.89062 0.34766,0.42969 0.64062,0.4375 0.2461,0.36719 0.32421,0.13672 1.16407,0.88281 0.20312,0.004 0.45313,0.30078 0.95703,1 0.67578,0.46093 0.41797,0.54297 0.17187,0.004 0.59766,0.41406 0.625,0.64844 1.33594,1.02344 0.30859,0.36328 0.80859,0.52344 1.11329,1.125 0.28515,-0.004 0.26172,0.39062 0.49219,0.33594 0.86328,0.875 0.42187,0.19922 0.17969,-0.0898 0.26563,0.45703 0.41797,0.36719 0.13671,0.29687 0.76172,0.45313 0.35157,0.4414 0.44921,0.28516 0.24219,0.28125 0.47656,0.30859 0.10938,-0.0234 0.77344,0.87891 0.26562,0.0469 0.73828,0.64453 0.48047,0.17187 0.11328,0.25 0.60547,0.67578 0.39453,0.16016 2.08594,1.54297 0.34766,0.125 0.84375,0.80859 0.50781,0.25 0.61719,0.59375 0.1914,0.0352 0.89453,0.76172 0.66016,0.23047 0.14453,-0.0937 0.30469,0.42187 0.51953,0.4375 0.14844,0.0117 0.65234,0.61328 0.37891,0.14453 0.41797,0.44922 0.0625,-0.12109 0.16797,0.32422 0.71875,0.53906 0.125,0.23828 0.17578,-0.0352 0.0664,0.21094 0.27344,0.0781 0.375,0.47265 0.63672,0.44922 0.32812,0.42969 0.1875,0.008 0.39454,0.47656 0.17187,0.0274 0.59766,0.51172 0.36328,0.11718 v 0.14063 l 0.47265,0.42187 0.56641,0.3711 0.10938,-0.0117 0.35156,0.4414 0.1875,0.008 0.34375,0.46484 0.4375,0.22656 0.0859,-0.0469 0.15625,0.25 0.79296,0.69531 0.0469,0.17969 0.22656,0.0742 0.49219,0.42578 0.22266,0.0625 0.60156,0.5625 0.16015,-0.0937 0.0742,0.23828 0.29297,0.34766 0.23828,-0.0156 0.17188,0.15625 0.21875,-0.0312 0.41797,0.17969 0.3125,0.55078 0.15625,-0.14844 0.43359,0.67578 0.19531,0.043 0.1836,0.28516 1.05468,0.77344 0.32813,0.47265 0.0977,0.0781 0.082,-0.082 0.55468,0.42578 0.043,-0.125 0.0742,0.043 0.20313,0.44921 0.11328,-0.004 0.875,0.80078 0.50781,0.29297 0.36719,0.44922 0.043,-0.082 0.3789,0.6289 0.14844,-0.0351 0.46094,0.55468 0.0781,0.42188 v -0.28125 l 0.22266,0.25781 0.0859,0.31641 0.0742,-0.13672 0.71093,0.55469 0.5586,0.22656 0.19922,0.15625 0.17578,0.39062 0.10156,-0.0859 0.76172,0.72656 0.14844,0.0351 0.64843,0.75391"
       transform="matrix(1,0,0,-1,0,594)"
       id="path26921" />
  </g>
  <g
     transform="translate(-18.80114,-230.51384)"
     clip-path="url(#clip181)"
     clip-rule="nonzero"
     id="g26927">
    <path
       style="fill:none;stroke:#000000;stroke-width:0.745;stroke-linecap:round;stroke-linejoin:round;stroke-miterlimit:10;stroke-opacity:1"
       d="m 169.84375,355.71875 -0.0937,-0.008 0.0469,-0.14453 -0.0391,0.30859 0.008,-0.16016 0.0742,0.0469 -0.0664,0.0664 0.0937,-0.0703 -0.043,-0.0547 -0.0195,0.125 -0.004,-0.21093 -0.0664,0.16015 0.0703,0.10938 0.0977,-0.52735"
       transform="matrix(1,0,0,-1,0,594)"
       id="path26925" />
  </g>
  <g
     transform="translate(-18.80114,-230.51384)"
     clip-path="url(#clip182)"
     clip-rule="nonzero"
     id="g26931">
    <path
       style="fill:none;stroke:#000000;stroke-width:0.745;stroke-linecap:round;stroke-linejoin:round;stroke-miterlimit:10;stroke-opacity:1"
       d="m 169.77734,349.56641 h 0.082 l -0.10937,-0.32032 0.0195,-1.42187 0.25,-1.39844"
       transform="matrix(1,0,0,-1,0,594)"
       id="path26929" />
  </g>
  <g
     transform="translate(-18.80114,-230.51384)"
     clip-path="url(#clip183)"
     clip-rule="nonzero"
     id="g26935">
    <path
       style="fill:none;stroke:#000000;stroke-width:0.745;stroke-linecap:round;stroke-linejoin:round;stroke-miterlimit:10;stroke-opacity:1"
       d="m 169.46094,338.74609 -0.0937,-2.19922 0.0859,-0.61328 -0.0156,-2.01562 0.0977,-0.42969"
       transform="matrix(1,0,0,-1,0,594)"
       id="path26933" />
  </g>
  <g
     transform="translate(-18.80114,-230.51384)"
     clip-path="url(#clip184)"
     clip-rule="nonzero"
     id="g26939">
    <path
       style="fill:none;stroke:#000000;stroke-width:0.745;stroke-linecap:round;stroke-linejoin:round;stroke-miterlimit:10;stroke-opacity:1"
       d="m 170.20312,326.70312 0.21094,-1.05859 -0.0781,-1.41797 0.12109,-2.91797"
       transform="matrix(1,0,0,-1,0,594)"
       id="path26937" />
  </g>
  <g
     transform="translate(-18.80114,-230.51384)"
     clip-path="url(#clip185)"
     clip-rule="nonzero"
     id="g26943">
    <path
       style="fill:none;stroke:#000000;stroke-width:0.745;stroke-linecap:round;stroke-linejoin:round;stroke-miterlimit:10;stroke-opacity:1"
       d="m 169.78516,308.28906 -0.0703,-0.75781 0.22266,-2.31641 0.008,-1.07422 0.11328,-0.14843 0.0312,-1.33594"
       transform="matrix(1,0,0,-1,0,594)"
       id="path26941" />
  </g>
  <g
     transform="translate(-18.80114,-230.51384)"
     clip-path="url(#clip186)"
     clip-rule="nonzero"
     id="g26947">
    <path
       style="fill:none;stroke:#000000;stroke-width:0.745;stroke-linecap:round;stroke-linejoin:round;stroke-miterlimit:10;stroke-opacity:1"
       d="m 170.22656,288.51562 0.15235,-0.63281 -0.0977,-0.20703 0.0664,-0.14844 h -0.082 l 0.13282,-0.53515 -0.17969,-0.60938 0.0352,-0.51953 -0.28907,-2.38672 0.0703,-1.62109"
       transform="matrix(1,0,0,-1,0,594)"
       id="path26945" />
  </g>
  <g
     transform="translate(-18.80114,-230.51384)"
     clip-path="url(#clip187)"
     clip-rule="nonzero"
     id="g26951">
    <path
       style="fill:none;stroke:#000000;stroke-width:0.745;stroke-linecap:round;stroke-linejoin:round;stroke-miterlimit:10;stroke-opacity:1"
       d="m 170.50781,269.61719 0.008,-0.34375 -0.10156,-0.19922 0.0977,-0.0312 -0.0391,-1.30469 0.082,-1.09766 0.11718,-0.39062 0.12891,-2.73047 0.16797,-0.85937"
       transform="matrix(1,0,0,-1,0,594)"
       id="path26949" />
  </g>
  <g
     transform="translate(-18.80114,-230.51384)"
     clip-path="url(#clip188)"
     clip-rule="nonzero"
     id="g26955">
    <path
       style="fill:none;stroke:#000000;stroke-width:0.745;stroke-linecap:round;stroke-linejoin:round;stroke-miterlimit:10;stroke-opacity:1"
       d="m 65.632813,353.16016 -0.01172,0.38671 0.01172,-0.24218 -0.03516,0.0976 -0.04687,-0.0781 0.05469,0.125 0.09375,-0.0547 -0.183594,-0.008 0.136719,0.008 -0.04297,-0.14062 -0.0625,0.14843 0.203125,-0.008 -0.160156,0.0273 0.02734,-0.0781 0.08203,0.0352 -0.07813,0.0586 0.113281,-0.0469 -0.02344,-0.14453 0.0039,0.0859 0.242187,-0.0664 0.08203,0.0899 0.675781,-0.42188 0.308594,0.043 0.207031,-0.28906 0.1875,-0.0742 0.06641,-0.17969 0.617188,-0.22265 0.136718,0.0859 0.324219,-0.32031 0.175781,-0.0469 0.253907,-0.0547 0.136718,0.14453"
       transform="matrix(1,0,0,-1,0,594)"
       id="path26953" />
  </g>
  <g
     transform="translate(-18.80114,-230.51384)"
     clip-path="url(#clip189)"
     clip-rule="nonzero"
     id="g26959">
    <path
       style="fill:none;stroke:#000000;stroke-width:0.745;stroke-linecap:round;stroke-linejoin:round;stroke-miterlimit:10;stroke-opacity:1"
       d="m 80.773438,352.69531 0.07813,-0.0742 0.4375,0.082 0.320312,-0.125 0.5,0.0859 0.144531,0.16016 1.136719,-0.32031 1.605469,0.0742 0.855469,0.20313 0.265625,0.19922 0.609375,-0.0352 1.441406,0.17188"
       transform="matrix(1,0,0,-1,0,594)"
       id="path26957" />
  </g>
  <g
     transform="translate(-18.80114,-230.51384)"
     clip-path="url(#clip190)"
     clip-rule="nonzero"
     id="g26963">
    <path
       style="fill:none;stroke:#000000;stroke-width:0.745;stroke-linecap:round;stroke-linejoin:round;stroke-miterlimit:10;stroke-opacity:1"
       d="m 105.96484,351.55469 0.25,0.51172 0.875,-0.13282 0.15235,0.125 0.51562,0.10547 0.3711,-0.0859 1.0625,0.38282 0.45312,-0.125 1.40235,0.0234"
       transform="matrix(1,0,0,-1,0,594)"
       id="path26961" />
  </g>
  <g
     transform="translate(-18.80114,-230.51384)"
     clip-path="url(#clip191)"
     clip-rule="nonzero"
     id="g26967">
    <path
       style="fill:none;stroke:#000000;stroke-width:0.745;stroke-linecap:round;stroke-linejoin:round;stroke-miterlimit:10;stroke-opacity:1"
       d="m 129.67578,353.53125 h 0.0742 l -0.0625,-0.0898 0.17969,0.0312 -0.0273,-0.25391 0.0664,0.16016 0.47656,0.0937 0.53125,-0.16797 0.49219,0.0703 0.22656,-0.14063 0.12891,0.10938 0.62109,-0.11328 2.02344,0.125 1.14844,-0.33203 0.73828,0.0781"
       transform="matrix(1,0,0,-1,0,594)"
       id="path26965" />
  </g>
  <path
     style="fill:none;stroke:#000000;stroke-width:0.745;stroke-linecap:round;stroke-linejoin:round;stroke-miterlimit:10;stroke-opacity:1"
     d="m 134.63636,7.91194 0.14844,0.0117 0.0352,0.17578 0.082,-0.0859 0.15235,0.0586 0.0547,-0.0977 0.1914,0.14453 0.60938,0.0664 0.74609,0.38672 0.59766,-0.0547 0.85156,0.19531 0.91797,0.043 0.48437,-0.1289 0.41407,0.21484 0.59375,0.004 0.4414,-0.12891 1.13281,-0.0508 0.39454,-0.17188"
     id="path26969" />
  <g
     transform="translate(-18.80114,-230.51384)"
     clip-path="url(#clip192)"
     clip-rule="nonzero"
     id="g26973">
    <path
       style="fill:none;stroke:#000000;stroke-width:0.745;stroke-linecap:round;stroke-linejoin:round;stroke-miterlimit:10;stroke-opacity:1"
       d="m 29.394531,354.97656 -0.371093,0.25781 0.167968,0.33985 0.398438,0.34765 0.585937,0.25391 1.980469,0.46094 0.28125,-0.0937 0.05469,-0.53906 0.109375,-0.11329 0.0039,-0.18359 -0.277344,-0.43359 -0.179687,-0.73438 -0.617188,-1 -0.792969,-0.58594 -0.855468,-0.1875 0.09766,0.0899 0.445312,-0.10156 0.949219,-0.42188 1.183594,-0.92187 0.621094,-1.11329 0.08203,-0.49218 -0.113281,-0.6875 -0.542969,-0.90235 -0.746094,-0.70703 -0.894531,-0.4375 -0.550781,-0.0234 -1.347657,0.16407 1.949219,0.043"
       transform="matrix(1,0,0,-1,0,594)"
       id="path26971" />
  </g>
  <g
     transform="translate(-18.80114,-230.51384)"
     clip-path="url(#clip193)"
     clip-rule="nonzero"
     id="g26977">
    <path
       style="fill:none;stroke:#000000;stroke-width:0.745;stroke-linecap:round;stroke-linejoin:round;stroke-miterlimit:10;stroke-opacity:1"
       d="m 35.117188,351.6875 -0.0625,-0.39453 -0.08984,0.0742 0.09766,0.17187 -0.01172,-0.1875 -0.144531,0.16016 0.09375,-0.11328 -0.08594,-0.95703 0.04687,-1.21875 0.171875,-0.83204 0.234375,-0.47265 0.335937,-0.004 0.285156,-0.18359 0.40625,0.16015 0.476563,0.33985 0.460937,0.66797 0.121094,0.008 0.285156,0.39453 0.25,0.16406 0.570313,-0.42968 0.253906,-0.73047 0.207031,-0.23047 0.07422,0.0273 0.207031,-0.54687 0.152344,-0.0195 0.199219,0.0976 0.257812,0.48438 0.570313,1.96484 0.304687,0.66797 0.195313,0.19922 0.01563,0.47656 0.234375,0.38672"
       transform="matrix(1,0,0,-1,0,594)"
       id="path26975" />
  </g>
  <g
     transform="translate(-18.80114,-230.51384)"
     clip-path="url(#clip194)"
     clip-rule="nonzero"
     id="g26981">
    <path
       style="fill:none;stroke:#000000;stroke-width:0.745;stroke-linecap:round;stroke-linejoin:round;stroke-miterlimit:10;stroke-opacity:1"
       d="m 42.636719,346.42187 -0.167969,0.0469 0.08203,0.0352 -0.132812,0.28125 0.01953,0.35937 0.101563,0.14844 0.01563,0.30469 0.226562,0.0117 0.09766,0.26954 0.21875,-0.19141 0.160157,0.0898 0.152343,-0.0976 0.453125,-0.78125 0.08594,-0.39453 0.02344,-0.48047 -0.210937,-0.79688 -0.398438,-0.55469 -0.589843,0.0117 -0.859375,0.85157 -0.0078,0.68359 0.246094,0.35937"
       transform="matrix(1,0,0,-1,0,594)"
       id="path26979" />
  </g>
  <g
     transform="translate(-18.80114,-230.51384)"
     clip-path="url(#clip195)"
     clip-rule="nonzero"
     id="g26985">
    <path
       style="fill:none;stroke:#000000;stroke-width:0.745;stroke-linecap:round;stroke-linejoin:round;stroke-miterlimit:10;stroke-opacity:1"
       d="m 46.46875,351.49219 0.0625,0.0898 0.03516,-0.10937 0.05469,0.0859 0.589844,0.13282 0.761718,-0.0352 0.484375,0.18359 0.06641,-0.10156 0.160156,0.004 0.554687,0.29297"
       transform="matrix(1,0,0,-1,0,594)"
       id="path26983" />
  </g>
  <g
     transform="translate(-18.80114,-230.51384)"
     clip-path="url(#clip196)"
     clip-rule="nonzero"
     id="g26989">
    <path
       style="fill:none;stroke:#000000;stroke-width:0.745;stroke-linecap:round;stroke-linejoin:round;stroke-miterlimit:10;stroke-opacity:1"
       d="m 48.328125,354.06641 -0.01563,0.14843 -0.25,0.10547 0.125,-0.125 0.109375,-0.64453 0.101563,-1.74219 0.570312,-3.86718"
       transform="matrix(1,0,0,-1,0,594)"
       id="path26987" />
  </g>
  <g
     transform="translate(-18.80114,-230.51384)"
     clip-path="url(#clip197)"
     clip-rule="nonzero"
     id="g26993">
    <path
       style="fill:none;stroke:#000000;stroke-width:0.745;stroke-linecap:round;stroke-linejoin:round;stroke-miterlimit:10;stroke-opacity:1"
       d="m 52.375,354.84375 0.160156,-2.21094 -0.199218,-0.57812 0.1875,-0.53907 -0.07031,-2.51953 0.15625,-1.16797"
       transform="matrix(1,0,0,-1,0,594)"
       id="path26991" />
  </g>
  <g
     transform="translate(-18.80114,-230.51384)"
     clip-path="url(#clip198)"
     clip-rule="nonzero"
     id="g26997">
    <path
       style="fill:none;stroke:#000000;stroke-width:0.745;stroke-linecap:round;stroke-linejoin:round;stroke-miterlimit:10;stroke-opacity:1"
       d="m 97.539063,230.80078 -0.05859,0.17578 -0.0039,-0.3125 0.04297,0.26953 -0.171875,0.0195 0.128907,0.082 -0.07422,-0.0352 0.02734,0.25781 -0.02734,-0.27734 0.09375,-0.11328 -0.0078,0.19531 0.167969,0.0156 0.195313,0.28907 0.125,0.0195 0.07422,-0.19922 0.484375,0.0664 0.125,0.10546 1.097657,-0.125 0.886721,0.1875 0.35938,-0.18359 0.1289,0.15625 1.04688,0.125 0.3789,-0.0937 0.48047,0.0273 0.6836,-0.19921"
       transform="matrix(1,0,0,-1,0,594)"
       id="path26995" />
  </g>
  <g
     transform="translate(-18.80114,-230.51384)"
     clip-path="url(#clip199)"
     clip-rule="nonzero"
     id="g27001">
    <path
       style="fill:none;stroke:#000000;stroke-width:0.745;stroke-linecap:round;stroke-linejoin:round;stroke-miterlimit:10;stroke-opacity:1"
       d="m 101.14453,231.0625 -0.21484,-0.0781 0.49609,-4.14843 -0.0625,-0.53125 0.0859,-1.83594 -0.10156,-2.26953 0.0859,-1.23438 0.082,0.043 0.0195,-0.36719 0.0547,0.0586 0.0977,-0.30469"
       transform="matrix(1,0,0,-1,0,594)"
       id="path26999" />
  </g>
  <g
     transform="translate(-18.80114,-230.51384)"
     clip-path="url(#clip200)"
     clip-rule="nonzero"
     id="g27005">
    <path
       style="fill:none;stroke:#000000;stroke-width:0.745;stroke-linecap:round;stroke-linejoin:round;stroke-miterlimit:10;stroke-opacity:1"
       d="m 104.99219,224.05859 -0.0664,-0.48828 -0.14062,-0.043 0.0547,0.10938 0.0781,-0.0898 -0.0547,-2.84375"
       transform="matrix(1,0,0,-1,0,594)"
       id="path27003" />
  </g>
  <g
     transform="translate(-18.80114,-230.51384)"
     clip-path="url(#clip201)"
     clip-rule="nonzero"
     id="g27009">
    <path
       style="fill:none;stroke:#000000;stroke-width:0.745;stroke-linecap:round;stroke-linejoin:round;stroke-miterlimit:10;stroke-opacity:1"
       d="m 105.625,227.19531 -0.26562,0.33594 0.0703,-0.37109 0.10547,0.24218 -0.0781,0.0469 -0.004,-0.10156 0.1289,-0.0898 0.0352,0.0625"
       transform="matrix(1,0,0,-1,0,594)"
       id="path27007" />
  </g>
  <g
     transform="translate(-18.80114,-230.51384)"
     clip-path="url(#clip202)"
     clip-rule="nonzero"
     id="g27013">
    <path
       style="fill:none;stroke:#000000;stroke-width:0.745;stroke-linecap:round;stroke-linejoin:round;stroke-miterlimit:10;stroke-opacity:1"
       d="m 107.08594,220.58984 -0.0586,-0.33593 -0.13671,0.5625 0.0937,0.41015 0.0781,-0.0508 0.0156,0.5 0.32421,1.05469 0.1875,0.38672 0.0586,-0.0977 0.0625,0.0508 0.30859,0.89453 0.1211,-0.0977 0.35546,0.73437 0.0703,0.0391 0.0625,-0.15234 0.22265,-0.0547 0.1211,-0.26562 -0.0195,0.13281 0.13671,-0.082 0.19532,-0.67578 0.082,0.0547 0.14844,-1.3125 -0.0898,-1.85157 -0.0625,0.0898 0.0859,0.3789 0.0742,-0.21093 0.082,0.73828 0.22656,0.38281 0.13281,0.90234 0.0977,0.0547 0.043,-0.10156 0.39844,0.83203 0.0742,-0.125 0.30859,0.38281 0.32422,0.13281 0.14453,-0.20312 0.0273,0.11719 0.33594,0.14062 0.0117,-0.21875 0.23828,-0.33203 0.47266,-2.85547 0.0586,-0.15625 0.0937,0.0469 0.0937,-0.69141 0.35938,-0.58984"
       transform="matrix(1,0,0,-1,0,594)"
       id="path27011" />
  </g>
  <g
     transform="translate(-18.80114,-230.51384)"
     clip-path="url(#clip203)"
     clip-rule="nonzero"
     id="g27017">
    <path
       style="fill:none;stroke:#000000;stroke-width:0.745;stroke-linecap:round;stroke-linejoin:round;stroke-miterlimit:10;stroke-opacity:1"
       d="m 115.82422,221.71094 0.0352,0.27343 -0.0234,-0.3164 -0.0625,0.0508 0.0781,0.19922 0.1211,-0.39063 0.38281,0.1836 0.21875,-0.28516 0.0977,0.15234 0.21875,0.0312 0.22265,0.33204 0.0312,-0.23047 0.26953,0.0195 0.125,0.20703 0.10938,0.0625 0.0742,-0.10156 0.35547,0.33984 0.20703,0.43359 0.0586,0.4961 -0.0156,0.57812 -0.0352,-0.19922 -0.19922,0.45313 -0.0781,-0.0508 -0.22657,0.11328 -0.19922,-0.0937 -0.082,0.20312 -0.28906,-0.0312 -0.0781,0.19141 -0.30079,-0.58203 -0.14453,0.15625 -0.25,-0.33984 -0.11718,0.082 -0.10547,-0.0977 -0.36719,-0.74609 -0.26953,-0.95313 -0.0352,-0.88281 0.1211,-0.67578 0.44921,-1.25781 0.57032,-0.52344 0.8125,-0.47656 0.51172,0.15625 0.53515,-0.16407 0.9336,0.5"
       transform="matrix(1,0,0,-1,0,594)"
       id="path27015" />
  </g>
  <g
     transform="translate(-18.80114,-230.51384)"
     clip-path="url(#clip204)"
     clip-rule="nonzero"
     id="g27021">
    <path
       style="fill:none;stroke:#000000;stroke-width:0.745;stroke-linecap:round;stroke-linejoin:round;stroke-miterlimit:10;stroke-opacity:1"
       d="m 126.46484,230.17969 -0.0859,-0.40235 v 0.19141 l -0.1836,-0.44531 0.0391,-0.15235 -0.20313,-0.28515 -0.0703,-0.89453 -0.36719,-0.82422 -0.0312,-0.69141 -0.29297,-1.34766 -0.2539,-3.2539 0.043,-2.66797 0.53907,-1.44922 0.14062,-0.79687 0.38281,-0.64063 0.125,-0.15625 0.70313,-0.0898 0.0977,-0.17578 0.47265,0.14843"
       transform="matrix(1,0,0,-1,0,594)"
       id="path27019" />
  </g>
  <g
     transform="translate(-18.80114,-230.51384)"
     clip-path="url(#clip205)"
     clip-rule="nonzero"
     id="g27025">
    <path
       style="fill:none;stroke:#000000;stroke-width:0.745;stroke-linecap:round;stroke-linejoin:round;stroke-miterlimit:10;stroke-opacity:1"
       d="m 132.58984,225.11328 h -0.21093 l -0.21485,0.35547 -0.11328,-0.0273 -0.0742,-0.3086 -0.1914,-0.25781 -0.66016,-0.25781 -0.14063,-0.375 -0.0781,0.082 -0.16797,-0.23047 -0.0625,0.0469 -0.35547,-1.08593 0.0937,-0.81641 0.0234,0.28516 0.17578,-0.0352 0.16016,-0.375 0.10937,0.0195 0.26953,-0.20703 0.082,0.11328 0.11719,-0.38672 0.45313,-0.2539 0.26953,0.0195 0.30469,-0.35156 0.17578,0.0391 -0.0195,-0.3125 0.0391,0.10156 0.0352,-0.13672 -0.22265,-0.85156 -0.0742,0.0156 -0.20313,-0.37109 -0.10937,-0.41797 -0.38281,-0.35156 -0.20703,-0.35156 -0.11329,-0.0391 -0.0625,0.082 0.10938,-0.0352"
       transform="matrix(1,0,0,-1,0,594)"
       id="path27023" />
  </g>
  <g
     transform="translate(-18.80114,-230.51384)"
     clip-path="url(#clip206)"
     clip-rule="nonzero"
     id="g27029">
    <path
       style="fill:none;stroke:#000000;stroke-width:0.745;stroke-linecap:round;stroke-linejoin:round;stroke-miterlimit:10;stroke-opacity:1"
       d="m 137.48828,229.47656 0.11328,-0.11328 0.23047,0.0664 0.55859,-0.67578 0.23047,-0.57813 0.57032,-0.82031 0.16796,-0.62891 0.16016,-0.125 0.19922,-0.62109 0.0937,0.32031 0.0937,-0.14844 0.27734,-1.18359 0.16016,-3.66797 -0.45703,-2.69141 -0.71094,-1.65625 -0.55859,-1.03125 -1.32813,-0.74609 -0.0781,0.14063"
       transform="matrix(1,0,0,-1,0,594)"
       id="path27027" />
  </g>
  <g
     transform="translate(-18.80114,-230.51384)"
     clip-path="url(#clip207)"
     clip-rule="nonzero"
     id="g27033">
    <path
       style="fill:none;stroke:#000000;stroke-width:0.745;stroke-linecap:round;stroke-linejoin:round;stroke-miterlimit:10;stroke-opacity:1"
       d="m 21.113281,289.39453 h 0.101563 l -0.183594,-0.0859 -0.03906,0.13672 1.304687,0.0195 2.714844,0.30078 3.066406,0.082 1.097656,0.125 0.25,0.12109"
       transform="matrix(1,0,0,-1,0,594)"
       id="path27031" />
  </g>
  <g
     transform="translate(-18.80114,-230.51384)"
     clip-path="url(#clip208)"
     clip-rule="nonzero"
     id="g27037">
    <path
       style="fill:none;stroke:#000000;stroke-width:0.745;stroke-linecap:round;stroke-linejoin:round;stroke-miterlimit:10;stroke-opacity:1"
       d="m 21.546875,289.19531 -0.910156,-0.0234 h 0.105469 l -0.136719,0.10938 -0.707031,0.42578 -0.332032,0.49609 -0.347656,0.8125 -0.04687,0.48047 0.253906,0.40625 0.605469,0.36719 0.996094,0.10938 0.792969,-0.0859 3.09375,-0.625 0.652343,-0.3086 0.398438,-0.41015 -0.0039,-0.38672 -0.414063,-0.55469 -0.128906,0.0508 0.09375,0.0156 -0.08594,0.3164 0.515625,0.73047 2.199219,1.56641 0.902344,0.46094"
       transform="matrix(1,0,0,-1,0,594)"
       id="path27035" />
  </g>
  <g
     transform="translate(-18.80114,-230.51384)"
     clip-path="url(#clip209)"
     clip-rule="nonzero"
     id="g27041">
    <path
       style="fill:none;stroke:#000000;stroke-width:0.745;stroke-linecap:round;stroke-linejoin:round;stroke-miterlimit:10;stroke-opacity:1"
       d="m 27.320313,295.82422 0.08984,0.42578 -0.265625,0.26562 -0.605468,0.17969 -0.632813,0.043 -0.777344,-0.30469 -0.132812,-0.23437 -0.0078,-0.50781 0.523438,-0.53516 0.878906,-0.48047 1.511719,-0.0898 0.480469,0.0742 0.699218,0.32421 0.425782,0.3711 0.269531,0.39453 0.08984,0.37109"
       transform="matrix(1,0,0,-1,0,594)"
       id="path27039" />
  </g>
  <g
     transform="translate(-18.80114,-230.51384)"
     clip-path="url(#clip210)"
     clip-rule="nonzero"
     id="g27045">
    <path
       style="fill:none;stroke:#000000;stroke-width:0.745;stroke-linecap:round;stroke-linejoin:round;stroke-miterlimit:10;stroke-opacity:1"
       d="m 25.984375,301.44141 v -1.07813 l 0.183594,-0.87891 0.222656,-0.34375 0.375,-0.10546 0.617188,0.0664 0.679687,0.57031 0.386719,0.83594 0.203125,0.97266 0.152344,0.0742 1.082031,-0.14453 0.605469,-0.30469 1.238281,-0.84375 0.15625,-0.25781 L 31.660156,300"
       transform="matrix(1,0,0,-1,0,594)"
       id="path27043" />
  </g>
  <g
     transform="translate(-18.80114,-230.51384)"
     clip-path="url(#clip211)"
     clip-rule="nonzero"
     id="g27049">
    <path
       style="fill:none;stroke:#000000;stroke-width:0.745;stroke-linecap:round;stroke-linejoin:round;stroke-miterlimit:10;stroke-opacity:1"
       d="m 26.8125,304.29687 0.203125,-0.14453 0.835938,-0.17968 3.761718,0.10937 2.625,0.37891 0.964844,0.32031 0.605469,0.33594"
       transform="matrix(1,0,0,-1,0,594)"
       id="path27047" />
  </g>
  <g
     transform="translate(-18.80114,-230.51384)"
     clip-path="url(#clip212)"
     clip-rule="nonzero"
     id="g27053">
    <path
       style="fill:none;stroke:#000000;stroke-width:0.745;stroke-linecap:round;stroke-linejoin:round;stroke-miterlimit:10;stroke-opacity:1"
       d="m 25.734375,305.76562 0.296875,0.92969 0.503906,0.5586 0.574219,0.27343 0.625,-0.0469 0.828125,-0.46094 0.773438,-0.76953 0.613281,-0.96094 0.09766,-0.46094 -0.05859,-0.12109 -0.15625,-0.0352 -0.148437,0.1875"
       transform="matrix(1,0,0,-1,0,594)"
       id="path27051" />
  </g>
  <g
     transform="translate(-18.80114,-230.51384)"
     clip-path="url(#clip213)"
     clip-rule="nonzero"
     id="g27057">
    <path
       style="fill:none;stroke:#000000;stroke-width:0.745;stroke-linecap:round;stroke-linejoin:round;stroke-miterlimit:10;stroke-opacity:1"
       d="m 27.507813,308.85547 h -0.328125 l -0.492188,0.3125 -0.257812,0.25 -0.347657,0.73828 0.128907,0.86328 0.28125,0.47656 0.375,0.26172 0.359375,0.10938 0.734375,0.0195 0.996093,-0.14844 1.058594,-0.3125 0.878906,-0.51953 0.183594,-0.60156 -0.457031,-0.62891 -1.242188,-0.44922 -0.324218,-0.0664 -0.683594,0.0898 -0.597656,0.29297"
       transform="matrix(1,0,0,-1,0,594)"
       id="path27055" />
  </g>
  <g
     transform="translate(-18.80114,-230.51384)"
     clip-path="url(#clip214)"
     clip-rule="nonzero"
     id="g27061">
    <path
       style="fill:none;stroke:#000000;stroke-width:0.745;stroke-linecap:round;stroke-linejoin:round;stroke-miterlimit:10;stroke-opacity:1"
       d="m 27.125,314.72266 0.878906,-0.26172 1.972657,-0.36328 0.691406,0.004 -3.066406,0.6875 -0.746094,0.46875 -0.144531,0.1875 0.01172,0.22656 0.101563,0.19141 0.414062,0.29297 0.761719,0.32812 2.824219,0.4375 0.410156,0.1875"
       transform="matrix(1,0,0,-1,0,594)"
       id="path27059" />
  </g>
  <g
     transform="translate(-18.80114,-230.51384)"
     clip-path="url(#clip215)"
     clip-rule="nonzero"
     id="g27065">
    <path
       style="fill:none;stroke:#000000;stroke-width:0.745;stroke-linecap:round;stroke-linejoin:round;stroke-miterlimit:10;stroke-opacity:1"
       d="m 25.941406,322.08984 -0.226562,0.16016 -0.230469,-0.49609 1.304688,-1.41407 0.511718,-0.0898 0.539063,0.1875 0.386719,0.84375 0.324218,0.16406 1.253907,-0.33203 0.484375,-0.28906 1.207031,-1.04688 -0.07031,-0.16015 -0.148437,0.35547"
       transform="matrix(1,0,0,-1,0,594)"
       id="path27063" />
  </g>
  <g
     transform="translate(-18.80114,-230.51384)"
     clip-path="url(#clip216)"
     clip-rule="nonzero"
     id="g27069">
    <path
       style="fill:none;stroke:#000000;stroke-width:0.745;stroke-linecap:round;stroke-linejoin:round;stroke-miterlimit:10;stroke-opacity:1"
       d="m 30.300781,323.67969 -0.02344,0.21484 -0.207031,0.32813 -0.808594,0.45312 -1.558594,0.39063 -0.367187,-0.10547 0.06641,0.0117 -0.07813,-0.0312 0.07813,-0.39844 0.28125,-0.45703 0.996094,-0.8086 0.625,-0.30078 1.21875,-0.13281 1.425781,0.15234 0.621094,0.46875 0.496093,0.69141 -0.101562,0.53906 0.04687,0.98828 -0.53125,1.16407"
       transform="matrix(1,0,0,-1,0,594)"
       id="path27067" />
  </g>
</svg>
